SplineFontDB: 3.0
FontName: QuicksandBookOblique-Regular
FullName: Quicksand Book Oblique Regular
FamilyName: Quicksand Book Oblique
Weight: Book
Copyright: Copyright (c) Andrew Paglinawan, 2008. All rights reserved.
Version: 001.001
ItalicAngle: 0
UnderlinePosition: -50
UnderlineWidth: 50
Ascent: 800
Descent: 200
LayerCount: 2
Layer: 0 0 "Back"  1
Layer: 1 0 "Zeichenebene"  0
NeedsXUIDChange: 1
XUID: [1021 516 963196306 6893179]
FSType: 0
OS2Version: 2
OS2_WeightWidthSlopeOnly: 0
OS2_UseTypoMetrics: 1
CreationTime: 1223607444
ModificationTime: 1281974557
PfmFamily: 17
TTFWeight: 400
TTFWidth: 5
LineGap: 30
VLineGap: 0
Panose: 2 7 3 3 0 0 0 6 0 0
OS2TypoAscent: -100
OS2TypoAOffset: 1
OS2TypoDescent: 0
OS2TypoDOffset: 1
OS2TypoLinegap: 30
OS2WinAscent: 0
OS2WinAOffset: 1
OS2WinDescent: 0
OS2WinDOffset: 1
HheadAscent: -223
HheadAOffset: 1
HheadDescent: 6
HheadDOffset: 1
OS2SubXSize: 100
OS2SubYSize: 100
OS2SubXOff: 0
OS2SubYOff: 140
OS2SupXSize: 100
OS2SupYSize: 100
OS2SupXOff: 0
OS2SupYOff: 140
OS2StrikeYSize: 50
OS2StrikeYPos: 250
OS2Vendor: 'pyrs'
OS2CodePages: 00000011.00000000
OS2UnicodeRanges: 800000af.00000008.00000000.00000000
Lookup: 258 0 0 "'kern' Horizontales Kerning in Latin lookup 0"  {"'kern' Horizontales Kerning in Latin lookup 0 subtable"  } ['kern' ('latn' <'dflt' > ) ]
DEI: 91125
LangName: 1033 "" "" "" "FONTLAB:OTFEXPORT" "QuicksandBookOblique-Regular" "001.000" "" "Dashling is a trademark of the Andrew Paglinawan." "Andrew Paglinawan" "Andrew Paglinawan" "" "" "http://www.andrewpaglinawan.com" "" "" "" "Quicksand" "Book Oblique" 
Encoding: UnicodeBmp
UnicodeInterp: none
NameList: Adobe Glyph List
DisplaySize: -24
AntiAlias: 1
FitToEm: 1
WinInfo: 0 50 20
BeginPrivate: 4
BlueValues 21 [0 0 505 505 700 700]
OtherBlues 11 [-205 -205]
BlueScale 8 0.039625
ExpansionFactor 4 0.06
EndPrivate
BeginChars: 65537 192

StartChar: B
Encoding: 66 66 1
Width: 594
Flags: MW
HStem: 1 49<126 330 126 330 131 330 132 330 160 330 160 330> 352 50<222 348 222 392 213 348> 652 49<266 401 266 266>
VStem: 502 49<549.5 553> 515 48<227.5 232>
LayerCount: 2
Fore
SplineSet
126 1 m 0xe8
 113 4 104 16 107 30 c 2
 221 681 l 2
 224 693 235 701 247 701 c 2
 248 701 l 1
 401 701 l 2
 444 701 482 685 509 658 c 0
 536 632 551 594 551 553 c 0xf0
 551 543 550 533 548 523 c 0
 538 467 504 419 459 389 c 1
 480 380 499 368 515 352 c 0
 546 322 564 279 563 232 c 0
 563 220 562 209 560 197 c 0
 540 87 440 2 330 1 c 1
 133 1 l 1
 132 1 l 1
 131 1 l 2
 129 1 128 1 126 1 c 0xe8
515 232 m 0xe8
 514 301 466 351 392 352 c 1
 213 352 l 1
 160 50 l 1
 330 50 l 1
 414 49 498 121 512 205 c 0
 514 214 515 223 515 232 c 0xe8
502 553 m 0xf0
 501 611 462 651 401 652 c 1
 266 652 l 1
 222 402 l 1
 348 402 l 1
 418 401 489 461 500 531 c 0
 502 539 502 546 502 553 c 0xf0
EndSplineSet
EndChar

StartChar: C
Encoding: 67 67 2
Width: 719
Flags: MW
HStem: 0 49<379 415.5 379 421> 651 49<494 530.5>
VStem: 73 49<253.5 303 224.5 304.5>
LayerCount: 2
Fore
SplineSet
379 0 m 0
 291 0 214 31 159 84 c 0
 105 137 73 212 73 295 c 0
 73 314 74 334 78 354 c 0
 113 547 297 699 494 700 c 0
 578 700 652 671 706 623 c 0
 717 614 717 598 708 588 c 0
 699 578 684 577 674 586 c 0
 629 626 567 651 494 651 c 0
 322 652 155 513 126 346 c 0
 123 328 122 311 122 295 c 0
 122 154 226 50 379 49 c 0
 452 49 525 74 586 115 c 1
 586 115 l 1
 597 123 612 120 620 109 c 0
 628 98 625 83 614 75 c 0
 545 28 463 0 379 0 c 0
EndSplineSet
EndChar

StartChar: D
Encoding: 68 68 3
Width: 719
Flags: MW
HStem: -1 49<126 261 126 261 130 261 131 261 160 261 160 261> 650 49<266 266 266 376>
VStem: 624 49<397.5 406>
LayerCount: 2
Fore
SplineSet
126 -1 m 0
 113 2 104 14 106 28 c 2
 221 679 l 2
 223 691 234 699 245 699 c 0
 246 699 246 699 246 699 c 1
 376 699 l 2
 462 699 537 668 590 615 c 0
 643 562 673 488 673 406 c 0
 673 386 671 366 668 345 c 0
 633 153 454 0 261 -1 c 1
 131 -1 l 1
 131 -1 l 1
 131 -1 131 -1 130 -1 c 0
 129 -1 128 -1 126 -1 c 0
266 650 m 1
 160 48 l 1
 261 48 l 1
 427 47 591 186 620 353 c 0
 623 371 624 389 624 406 c 0
 623 546 524 649 376 650 c 1
 266 650 l 1
EndSplineSet
EndChar

StartChar: F
Encoding: 70 70 4
Width: 600
Flags: MW
HStem: 2 21G<126 127 126 131> 327 49<217 507 217 507 209 507> 653 49<266 606 266 266>
LayerCount: 2
Fore
SplineSet
126 2 m 0
 113 5 104 17 107 31 c 2
 221 682 l 2
 223 694 234 702 246 702 c 0
 247 702 247 702 248 702 c 2
 606 702 l 2
 619 702 630 691 630 677 c 0
 630 664 619 653 606 653 c 2
 266 653 l 1
 217 376 l 1
 507 376 l 2
 520 376 531 365 531 352 c 0
 531 338 520 327 507 327 c 2
 209 327 l 1
 155 22 l 2
 153 10 142 2 131 2 c 0
 129 2 128 2 126 2 c 0
EndSplineSet
EndChar

StartChar: G
Encoding: 71 71 5
Width: 800
Flags: MW
HStem: 2 49<380 415 380 422> 313 49<422.5 641 429 614> 653 49<495 531.5>
VStem: 73 49<297 305 297 306.5>
LayerCount: 2
Fore
SplineSet
380 2 m 0
 291 2 214 33 160 86 c 0
 105 139 73 214 73 297 c 0
 73 316 75 336 79 356 c 0
 113 549 297 701 495 702 c 0
 579 702 653 673 707 625 c 0
 717 616 718 600 709 590 c 0
 700 580 684 579 674 588 c 0
 630 628 568 653 495 653 c 0
 323 654 155 515 127 348 c 0
 124 330 122 313 122 297 c 0
 123 156 226 52 380 51 c 0
 450 51 519 74 579 112 c 1
 614 313 l 1
 429 313 l 2
 416 313 405 324 405 337 c 0
 405 351 416 362 429 362 c 2
 641 362 l 1
 642 362 l 2
 644 362 646 362 647 361 c 0
 661 359 670 346 667 333 c 2
 625 95 l 2
 625 92 624 90 623 88 c 2
 623 88 623 87 622 87 c 1
 622 86 l 1
 620 83 618 79 614 77 c 0
 546 30 464 2 380 2 c 0
EndSplineSet
EndChar

StartChar: H
Encoding: 72 72 6
Width: 760
Flags: MW
HStem: -2 21G<126 130 126 127 535 539 535 535.5> 323 49<217 567 208 576>
LayerCount: 2
Fore
SplineSet
249 697 m 0
 263 695 272 682 269 669 c 2
 217 372 l 1
 576 372 l 1
 630 677 l 2
 632 691 645 699 658 697 c 0
 671 695 680 682 678 669 c 2
 563 18 l 2
 561 6 550 -2 539 -2 c 0
 537 -2 536 -2 535 -2 c 0
 521 0 512 13 515 26 c 2
 567 323 l 1
 208 323 l 1
 154 18 l 2
 152 6 142 -2 130 -2 c 0
 129 -2 128 -2 126 -2 c 0
 113 0 104 13 106 26 c 2
 221 677 l 2
 223 691 236 699 249 697 c 0
EndSplineSet
EndChar

StartChar: I
Encoding: 73 73 7
Width: 305
Flags: MW
HStem: -2 21G<133 137 133 133.5>
LayerCount: 2
Fore
SplineSet
137 -2 m 0
 136 -2 134 -2 133 -2 c 0
 119 0 111 13 113 26 c 2
 228 677 l 2
 230 691 243 699 256 697 c 0
 269 695 278 682 276 669 c 2
 161 18 l 2
 159 6 149 -2 137 -2 c 0
EndSplineSet
EndChar

StartChar: J
Encoding: 74 74 8
Width: 594
Flags: MW
HStem: -1 49<203 244 244 245>
LayerCount: 2
Fore
SplineSet
93 174 m 0
 104 100 161 48 245 48 c 0
 350 47 454 135 472 240 c 2
 549 678 l 2
 551 692 564 701 577 698 c 1
 591 696 599 683 597 670 c 2
 520 232 l 1
 496 102 376 -1 245 -1 c 2
 244 -1 l 2
 139 -1 58 71 44 167 c 0
 42 181 52 193 65 195 c 0
 78 197 91 188 93 174 c 0
EndSplineSet
EndChar

StartChar: K
Encoding: 75 75 9
Width: 715
Flags: MW
HStem: 2 21G<126 130 126 126.5 610 616>
LayerCount: 2
Fore
SplineSet
249 701 m 0
 262 699 271 686 269 673 c 2
 199 273 l 1
 696 696 l 2
 706 704 721 703 730 693 c 0
 739 683 738 667 727 658 c 2
 409 387 l 1
 634 39 l 2
 642 28 638 13 627 5 c 0
 623 3 618 2 614 2 c 0
 606 2 598 5 593 13 c 2
 371 356 l 1
 186 198 l 1
 185 198 l 1
 154 22 l 2
 152 10 142 2 130 2 c 0
 129 2 127 2 126 2 c 0
 113 4 104 17 106 30 c 2
 221 681 l 2
 223 695 236 703 249 701 c 0
EndSplineSet
EndChar

StartChar: L
Encoding: 76 76 10
Width: 619
Flags: MW
HStem: -1 48<126 490 126 490 130 490 131 490 159 490 159 490>
LayerCount: 2
Fore
SplineSet
515 23 m 0
 515 9 504 -1 490 -1 c 2
 132 -1 l 1
 131 -1 l 1
 130 -1 l 2
 129 -1 127 -1 126 -1 c 0
 112 1 104 14 106 27 c 2
 221 678 l 2
 223 692 236 700 249 698 c 0
 262 696 271 683 269 670 c 2
 159 47 l 1
 490 47 l 2
 504 47 515 36 515 23 c 0
EndSplineSet
EndChar

StartChar: M
Encoding: 77 77 11
Width: 868
Flags: MW
HStem: -1 21G<126 131 126 127 668 672 668 669>
LayerCount: 2
Fore
SplineSet
668 -1 m 0
 655 1 646 14 648 27 c 2
 749 596 l 1
 470 286 l 2
 466 281 459 278 452 278 c 2
 451 278 l 2
 450 278 450 278 449 278 c 0
 441 278 432 283 428 291 c 2
 258 603 l 1
 155 19 l 2
 153 7 142 -1 131 -1 c 0
 129 -1 128 -1 126 -1 c 0
 113 1 104 14 106 27 c 2
 221 678 l 2
 223 690 234 699 246 698 c 1
 255 699 264 694 269 686 c 2
 455 342 l 1
 767 690 l 2
 772 696 779 699 786 698 c 1
 788 699 790 699 791 698 c 0
 805 696 814 683 811 670 c 2
 696 19 l 2
 694 7 684 -1 672 -1 c 0
 671 -1 670 -1 668 -1 c 0
EndSplineSet
EndChar

StartChar: N
Encoding: 78 78 12
Width: 790
Flags: MW
HStem: 2 21G<126 130 126 126.5 596 600 596 596.5>
LayerCount: 2
Fore
SplineSet
106 30 m 2
 220 678 l 2
 221 678 221 679 221 679 c 1
 221 687 226 694 233 699 c 1
 245 705 260 701 266 689 c 2
 588 98 l 1
 690 678 l 2
 692 691 705 700 718 698 c 0
 732 695 740 683 738 669 c 2
 624 22 l 2
 622 10 611 2 600 2 c 0
 598 2 597 2 596 2 c 0
 588 3 582 8 578 14 c 1
 578 16 577 17 576 18 c 2
 257 604 l 1
 154 22 l 2
 152 10 142 2 130 2 c 0
 129 2 127 2 126 2 c 0
 113 4 104 17 106 30 c 2
EndSplineSet
EndChar

StartChar: O
Encoding: 79 79 13
Width: 850
Flags: MW
HStem: 0 48<311.5 429.5 352 429.5> 651 49<388 507.5 465 507.5>
VStem: 73 49<289 298 289 299.5> 697 49<401 410>
LayerCount: 2
Fore
SplineSet
467 700 m 0
 548 700 619 668 668 616 c 0
 717 564 746 491 746 410 c 0
 746 389 744 367 740 345 c 1
 716 350 l 1
 740 345 l 1
 705 154 535 0 352 0 c 1
 352 0 l 1
 271 0 200 31 151 83 c 0
 101 135 73 208 73 289 c 0
 73 310 75 332 79 354 c 0
 113 545 283 699 467 700 c 0
692 354 m 0
 695 373 697 392 697 410 c 0
 696 549 603 650 467 651 c 0
 466 651 466 651 465 651 c 0
 311 651 156 513 127 345 c 0
 124 326 122 307 122 289 c 0
 123 150 216 49 352 48 c 1
 507 48 663 185 692 354 c 0
EndSplineSet
EndChar

StartChar: P
Encoding: 80 80 14
Width: 583
Flags: MW
HStem: 0 21G<129.5 136> 300 49<212 381 212 381 203 381> 651 49<265 443 265 265>
VStem: 565 49<526.5 554.5 525 566>
LayerCount: 2
Fore
SplineSet
245 700 m 0
 246 700 246 700 246 700 c 1
 443 700 l 2
 492 700 535 682 566 651 c 0
 597 621 614 578 614 531 c 0
 614 519 613 508 611 496 c 0
 591 387 491 301 381 300 c 1
 203 300 l 1
 154 20 l 2
 152 8 142 0 130 0 c 0
 129 0 127 0 126 1 c 0
 113 3 104 16 106 29 c 2
 221 680 l 2
 223 692 234 700 245 700 c 0
565 531 m 0
 565 601 517 650 443 651 c 1
 265 651 l 1
 212 349 l 1
 381 349 l 1
 464 348 549 420 563 504 c 0
 565 513 565 522 565 531 c 0
EndSplineSet
EndChar

StartChar: Q
Encoding: 81 81 15
Width: 844
Flags: MW
HStem: -144 49<568.5 584 584 585> -65 113<318 354> 660 50
LayerCount: 2
Fore
SplineSet
764 -50 m 0
 769 -60 766 -75 753 -85 c 0
 693 -126 636 -144 585 -144 c 2
 584 -144 l 2
 521 -144 468 -118 420 -87 c 1
 394 -69 367 -65 341 -65 c 0
 295 -65 252 -82 244 -87 c 0
 243 -87 243 -87 243 -87 c 1
 234 -92 222 -90 216 -85 c 1
 216 -85 l 1
 215 -85 l 1
 213 -82 210 -79 209 -74 c 0
 206 -61 213 -47 228 -40 c 2
 328 2 l 1
 166 24 66 175 97 353 c 0
 132 548 309 708 495 710 c 1
 682 708 802 548 768 353 c 0
 742 208 634 81 505 26 c 1
 505 26 l 1
 396 -20 l 1
 415 -24 433 -31 452 -44 c 0
 498 -74 545 -95 592 -95 c 0
 632 -95 675 -82 730 -46 c 0
 742 -37 757 -38 764 -50 c 0
146 353 m 0
 116 184 222 48 379 48 c 0
 535 48 689 184 719 353 c 0
 750 524 643 660 486 660 c 0
 330 660 177 524 146 353 c 0
EndSplineSet
EndChar

StartChar: R
Encoding: 82 82 16
Width: 625
Flags: MW
HStem: 0 21G<116 122.5> 300 49<199 365 190 367 365 367> 651 49<252 252 252 429>
VStem: 470 49<82 99.5 82 101.5> 552 49<526.5 531>
LayerCount: 2
Fore
SplineSet
480 186 m 0
 479 227 459 251 434 270 c 0
 409 288 379 297 367 300 c 0
 366 300 365 300 365 300 c 1
 190 300 l 1
 141 20 l 2
 139 9 128 0 117 0 c 0
 115 0 114 0 112 1 c 0
 99 3 90 16 92 29 c 2
 207 680 l 2
 209 692 220 700 232 700 c 2
 232 700 232 700 233 700 c 2
 429 700 l 2
 478 700 522 682 552 651 c 1
 583 621 601 578 601 531 c 0
 601 519 600 508 598 496 c 0
 583 415 525 348 451 317 c 1
 488 295 529 252 528 186 c 0
 528 175 527 164 526 153 c 1
 521 127 519 107 519 92 c 0
 519 72 522 63 524 60 c 1
 535 61 546 54 550 42 c 0
 554 29 546 16 533 12 c 0
 532 11 528 10 522 10 c 0
 521 10 521 10 521 10 c 2
 511 10 495 16 485 30 c 0
 475 44 470 64 470 92 c 0
 470 111 472 133 477 162 c 0
 479 170 480 178 480 186 c 0
252 651 m 1
 199 349 l 1
 367 349 l 1
 451 348 535 420 550 504 c 0
 551 513 552 522 552 531 c 0
 551 601 503 650 429 651 c 1
 252 651 l 1
EndSplineSet
EndChar

StartChar: S
Encoding: 83 83 17
Width: 667
Flags: MW
HStem: 0 44<308 316 308 316> 657 43<394.5 429 422 429>
LayerCount: 2
Fore
SplineSet
73 100 m 1
 65 107 66 121 75 130 c 1
 75 130 l 1
 84 140 98 141 106 133 c 1
 106 133 l 1
 150 92 227 44 316 44 c 1
 316 44 l 1
 376 44 433 62 476 90 c 1
 476 90 l 1
 519 118 547 154 553 193 c 1
 553 193 l 1
 560 232 547 260 514 286 c 1
 514 286 l 1
 481 311 428 329 364 342 c 1
 364 342 l 1
 362 342 l 1
 300 354 247 372 210 400 c 1
 210 400 l 1
 172 428 151 469 161 521 c 1
 161 521 l 1
 170 573 207 619 255 650 c 1
 255 650 l 1
 304 682 366 700 429 700 c 1
 429 700 l 1
 520 700 581 656 629 620 c 1
 629 620 l 1
 638 614 638 600 630 590 c 1
 630 590 l 1
 621 580 607 577 598 584 c 1
 598 584 l 1
 550 619 498 657 422 657 c 1
 422 657 l 1
 367 657 314 640 275 615 c 1
 275 615 l 1
 236 589 210 556 204 521 c 1
 204 521 l 1
 198 486 210 460 240 437 c 1
 240 437 l 1
 271 414 319 396 378 385 c 1
 378 385 l 1
 380 385 l 1
 447 372 504 352 544 322 c 1
 544 322 l 1
 584 292 607 248 597 193 c 1
 597 193 l 1
 587 137 548 88 495 55 c 1
 495 55 l 1
 443 21 377 0 308 0 c 1
 308 0 l 1
 204 1 121 54 73 100 c 1
 73 100 l 1
EndSplineSet
EndChar

StartChar: T
Encoding: 84 84 18
Width: 648
Flags: MW
HStem: 1 21G<194 201> 652 49<67.5 545 74 280 330 330 330 545>
LayerCount: 2
Fore
SplineSet
191 2 m 0
 177 4 168 17 171 30 c 2
 280 652 l 1
 74 652 l 2
 61 652 50 663 50 677 c 0
 50 690 61 701 74 701 c 2
 545 701 l 2
 558 701 569 690 569 677 c 0
 569 663 558 652 545 652 c 2
 330 652 l 1
 219 21 l 2
 217 10 207 1 195 1 c 0
 193 1 192 1 191 2 c 0
EndSplineSet
EndChar

StartChar: U
Encoding: 85 85 19
Width: 814
Flags: MW
HStem: 1 49<346 346 347 347>
VStem: 105 49<239 245.5 239 247>
LayerCount: 2
Fore
SplineSet
724 701 m 0
 737 698 746 686 744 672 c 2
 674 280 l 2
 646 125 502 2 347 1 c 0
 346 1 346 1 346 1 c 2
 277 1 216 27 173 69 c 0
 130 112 105 172 105 239 c 0
 105 255 107 271 110 288 c 2
 179 681 l 2
 181 694 194 703 207 701 c 0
 221 698 229 686 227 672 c 2
 158 280 l 2
 155 266 154 252 154 239 c 0
 155 130 232 51 347 50 c 0
 476 49 604 158 626 288 c 1
 696 681 l 2
 698 694 711 703 724 701 c 0
EndSplineSet
EndChar

StartChar: V
Encoding: 86 86 20
Width: 750
Flags: MW
HStem: 1 21G<242 243 243 243 243 243 243 243>
LayerCount: 2
Fore
SplineSet
653 664 m 2
 264 13 l 1
 263 12 l 2
 262 11 261 10 260 9 c 0
 260 8 259 8 259 7 c 0
 258 6 257 6 256 5 c 0
 255 5 255 4 254 4 c 0
 253 3 251 3 250 2 c 1
 249 2 l 1
 249 2 l 1
 247 1 245 1 243 1 c 1
 243 1 l 1
 243 1 l 1
 243 1 l 1
 241 1 239 1 237 2 c 1
 236 2 l 1
 234 3 232 4 231 5 c 0
 230 5 230 5 230 5 c 1
 230 5 l 1
 229 6 228 6 227 7 c 0
 226 8 226 8 226 8 c 2
 225 9 224 10 223 11 c 1
 223 11 l 1
 221 14 220 17 219 20 c 2
 60 671 l 2
 56 684 64 697 78 700 c 1
 91 704 104 696 107 683 c 2
 252 89 l 1
 611 689 l 2
 618 701 633 705 644 698 c 0
 656 691 660 676 653 664 c 2
EndSplineSet
EndChar

StartChar: W
Encoding: 87 87 21
Width: 1102
Flags: MW
HStem: -20 20G<239 240 239 239 247.5 248.5 248 252 252 252 644 645 644 644 652.5 653.5 653 657 657 657> -1 21G<245 246 246 246 650 651 651 651>
LayerCount: 2
Fore
SplineSet
1061 662 m 2x80
 672 11 l 1
 672 11 672 11 671 10 c 0
 670 9 670 8 668 7 c 0
 668 6 667 6 667 5 c 1
 666 5 665 4 664 3 c 0
 663 3 663 2 662 2 c 0
 661 1 660 1 658 1 c 1
 658 0 657 0 657 0 c 1
 657 0 l 1
 656 0 654 0 653 0 c 0x80
 652 0 652 -1 651 -1 c 1
 651 -1 l 1x40
 649 -1 647 0 645 0 c 2
 644 0 l 1
 642 1 640 2 639 3 c 1
 638 3 l 1
 638 3 l 1
 637 4 636 5 635 5 c 1
 635 6 634 6 634 6 c 2
 633 7 632 8 632 9 c 1
 631 9 631 9 631 10 c 0
 630 11 629 12 629 13 c 1
 629 13 l 1
 628 15 628 16 627 18 c 2
 524 441 l 1
 267 11 l 1
 267 11 267 11 266 10 c 0
 266 9 265 8 263 7 c 0
 263 6 262 6 262 5 c 1
 261 5 260 4 259 3 c 0
 258 3 258 2 257 2 c 0
 256 1 255 1 253 1 c 1
 253 0 252 0 252 0 c 1
 252 0 l 1
 251 0 249 0 248 0 c 0x80
 247 0 247 -1 246 -1 c 1
 246 -1 l 1x40
 244 -1 242 0 240 0 c 2
 239 0 l 1
 237 1 235 2 234 3 c 1
 234 3 234 3 233 3 c 1
 233 3 l 1
 232 4 231 5 230 5 c 1
 230 6 229 6 229 6 c 2
 228 7 227 8 227 9 c 1
 226 9 226 9 226 10 c 0
 224 12 223 15 222 18 c 2
 63 669 l 2
 60 682 68 695 81 699 c 0
 94 702 107 694 110 681 c 2
 256 87 l 1
 510 513 l 2
 515 521 523 525 532 525 c 0
 544 526 555 518 558 507 c 2
 661 87 l 1
 1019 687 l 2
 1026 699 1041 703 1053 696 c 0
 1064 689 1068 674 1061 662 c 2x80
EndSplineSet
EndChar

StartChar: X
Encoding: 88 88 22
Width: 722
Flags: MW
HStem: -2 21G<97.5 103.5 572 578>
LayerCount: 2
Fore
SplineSet
426 345 m 1
 598 35 l 2
 604 23 600 8 588 1 c 0
 584 -1 580 -2 576 -2 c 0
 568 -2 559 3 555 11 c 2
 391 307 l 1
 119 6 l 2
 114 1 107 -2 100 -2 c 0
 95 -2 89 0 84 5 c 0
 74 14 73 29 82 39 c 2
 366 352 l 1
 194 662 l 2
 187 674 192 689 203 695 c 0
 215 702 230 698 237 686 c 2
 401 390 l 1
 673 690 l 2
 682 700 698 701 707 692 c 1
 718 683 718 667 709 657 c 2
 426 345 l 1
EndSplineSet
EndChar

StartChar: Y
Encoding: 89 89 23
Width: 604
Flags: MW
HStem: -1 21G<203 208 203 204>
LayerCount: 2
Fore
SplineSet
581 658 m 2
 287 334 l 1
 232 19 l 2
 230 7 219 -1 208 -1 c 0
 206 -1 205 -1 203 -1 c 0
 190 1 181 14 183 27 c 2
 239 341 l 1
 61 662 l 2
 54 674 59 689 70 695 c 0
 82 702 97 698 104 686 c 2
 269 387 l 1
 544 690 l 2
 553 700 569 701 579 692 c 0
 589 683 590 668 581 658 c 2
EndSplineSet
EndChar

StartChar: Z
Encoding: 90 90 24
Width: 667
Flags: MW
HStem: -20 20G<86.5 87.5> -2 49<151 572 151 572> -1 21G<72 91 72 89.5> 649 49<204 687 211 631> 677 20G<693 695 695 695>
LayerCount: 2
Fore
SplineSet
572 47 m 2x48
 585 47 596 36 596 23 c 0
 596 9 585 -2 572 -2 c 2
 96 -2 l 1
 95 -2 l 2x50
 94 -2 92 -1 91 -1 c 2
 91 -1 90 -1 89 -1 c 0x30
 88 0 88 0 87 0 c 0x90
 86 0 86 1 85 1 c 0
 84 1 83 2 83 2 c 2
 82 3 81 3 81 4 c 1
 80 4 80 4 79 5 c 1
 79 5 l 1
 78 6 78 6 77 7 c 0
 77 8 76 8 76 9 c 1
 75 9 75 10 75 11 c 0
 74 12 74 12 74 13 c 0
 73 14 73 14 73 15 c 0
 73 16 72 17 72 17 c 2
 72 18 72 19 72 20 c 2
 72 20 72 21 71 22 c 1
 71 23 l 1
 72 24 l 2
 72 25 72 26 72 27 c 0
 72 28 72 28 72 29 c 0
 73 30 73 31 73 32 c 2
 73 32 74 33 74 34 c 2
 74 34 75 35 75 36 c 0
 76 37 76 37 77 38 c 2
 77 38 77 39 78 39 c 2
 631 649 l 1
 211 649 l 2
 197 649 186 660 186 674 c 0
 186 687 197 698 211 698 c 2
 687 698 l 1
 688 698 l 2
 689 698 690 698 691 698 c 0x30
 692 698 692 698 693 697 c 0
 694 697 695 697 695 697 c 1
 696 696 697 696 698 695 c 1
 699 695 l 1
 700 694 701 693 702 693 c 1
 702 692 703 692 703 692 c 1
 703 692 l 1
 704 691 705 690 705 689 c 1
 706 689 706 688 707 688 c 1
 707 687 707 686 708 686 c 1
 708 685 709 684 709 684 c 2
 709 683 709 682 710 682 c 1
 710 681 710 680 710 679 c 1
 711 679 711 678 711 677 c 0
 711 676 711 675 711 674 c 1
 711 674 l 1
 711 673 711 673 711 672 c 0
 711 671 711 671 711 670 c 0
 710 669 710 668 710 667 c 2
 710 667 710 666 709 665 c 0
 709 664 709 664 708 663 c 0
 708 662 708 661 707 661 c 1
 707 660 706 659 706 659 c 2
 705 658 705 658 705 657 c 2
 151 47 l 1
 572 47 l 2x48
EndSplineSet
EndChar

StartChar: ampersand
Encoding: 38 38 25
Width: 696
Flags: MW
HStem: -1 49<245 245> 271 49<400 443> 650 49<355 355>
VStem: 49 49<192 197 192 198.5> 452 49<552 555> 546 49<388 389.5 389.5 395 394 395>
LayerCount: 2
Fore
SplineSet
569 421 m 0
 583 422 594 411 595 398 c 0
 595 395 595 391 595 388 c 0
 595 347 580 315 556 296 c 0
 543 285 528 278 513 274 c 1
 513 271 513 267 513 264 c 0
 513 250 512 237 509 224 c 0
 487 98 371 0 245 -1 c 1
 245 -1 l 1
 189 -1 139 20 104 54 c 0
 69 89 49 138 49 192 c 0
 49 205 50 218 52 232 c 0
 67 311 118 379 186 419 c 1
 169 443 159 473 159 505 c 0
 159 515 160 525 162 534 c 0
 178 626 262 698 355 699 c 0
 397 699 434 684 460 658 c 0
 486 632 501 595 501 555 c 0
 501 546 500 536 498 526 c 0
 496 513 483 504 470 506 c 0
 456 508 448 521 450 534 c 0
 451 542 452 549 452 555 c 0
 451 611 414 649 355 650 c 0
 289 651 221 593 210 526 c 0
 208 519 208 512 208 505 c 0
 208 474 220 448 241 432 c 1
 241 432 l 1
 252 423 253 408 245 397 c 0
 244 397 243 396 243 396 c 2
 243 395 242 395 242 395 c 2
 241 394 241 393 240 393 c 0
 238 392 237 391 235 390 c 0
 167 360 113 295 101 223 c 0
 99 213 98 202 98 192 c 0
 99 109 157 49 245 48 c 0
 345 47 444 131 461 232 c 0
 463 243 464 253 464 264 c 0
 464 266 464 268 464 270 c 1
 455 271 447 271 439 271 c 0
 361 271 325 249 307 227 c 1
 288 206 285 180 285 169 c 0
 285 166 285 165 286 164 c 0
 286 163 286 163 286 163 c 1
 286 163 l 1
 287 150 278 138 265 136 c 0
 264 136 262 136 261 136 c 0
 249 136 239 145 237 157 c 0
 237 158 237 162 236 169 c 1
 237 187 240 224 269 259 c 0
 298 294 352 320 439 320 c 0
 450 320 461 319 473 319 c 1
 474 318 476 318 478 318 c 0
 495 318 513 323 525 334 c 0
 537 344 546 359 546 388 c 0
 546 391 546 393 546 395 c 0
 545 409 556 420 569 421 c 0
EndSplineSet
EndChar

StartChar: zero
Encoding: 48 48 27
Width: 710
Flags: MW
HStem: 0 49<237 257 257 258> 651 49<347 372 372 372>
VStem: 65 49<234 279.5 234 281> 516 49<420.5 466>
LayerCount: 2
Fore
SplineSet
372 700 m 0
 432 700 482 669 515 621 c 0
 548 572 565 507 565 433 c 0
 565 405 562 376 557 346 c 1
 533 350 l 1
 557 346 l 1
 541 252 500 167 447 104 c 0
 394 42 328 0 258 0 c 0
 257 0 257 0 257 0 c 2
 198 0 148 32 115 80 c 0
 83 128 65 193 65 267 c 0
 65 295 68 324 73 354 c 0
 90 449 130 534 183 596 c 0
 236 658 302 700 372 700 c 0
509 354 m 0
 514 382 516 408 516 433 c 0
 516 499 500 555 474 593 c 0
 448 631 414 651 372 651 c 1
 372 651 l 1
 322 651 267 620 220 565 c 0
 173 509 136 432 121 346 c 0
 116 319 114 292 114 267 c 0
 114 201 130 145 156 107 c 0
 182 69 216 49 258 49 c 0
 308 49 363 80 410 136 c 0
 457 191 494 269 509 354 c 0
EndSplineSet
EndChar

StartChar: one
Encoding: 49 49 28
Width: 335
Flags: MW
HStem: 0 21G<92.5 99> 679 20G<200 202 201.5 202 214 216 215.5 216.5> 680 20G
LayerCount: 2
Fore
SplineSet
232 672 m 1xa0
 232 672 l 1
 117 20 l 2
 115 9 105 0 93 0 c 0
 92 0 91 0 89 1 c 0
 76 3 67 16 69 29 c 2
 175 630 l 1
 69 573 l 2
 66 571 62 570 58 570 c 0
 49 570 41 575 36 583 c 0
 30 595 34 610 46 616 c 2
 197 697 l 1
 197 697 197 697 197 698 c 1
 198 698 199 698 200 699 c 0
 201 699 201 699 202 699 c 0xc0
 203 700 204 700 204 700 c 2
 205 700 206 700 207 700 c 2
 207 700 208 700 209 700 c 0
 210 700 211 700 211 700 c 2
 212 700 212 700 212 700 c 2xa0
 213 700 213 700 214 699 c 0
 215 699 215 699 216 699 c 0xc0
 217 699 218 698 218 698 c 2
 219 698 220 697 220 697 c 2
 221 696 222 696 222 696 c 2
 223 695 224 695 224 694 c 1
 225 694 225 693 226 692 c 2
 226 692 227 691 228 691 c 1
 228 690 228 689 229 689 c 1
 229 688 229 688 230 687 c 1
 230 687 230 687 230 686 c 2
 230 686 231 685 231 684 c 0
 231 683 232 683 232 682 c 0
 232 681 232 680 232 680 c 2
 232 679 232 678 232 677 c 0
 233 676 233 676 232 675 c 0
 232 674 232 673 232 672 c 1xa0
EndSplineSet
EndChar

StartChar: two
Encoding: 50 50 29
Width: 590
Flags: MW
HStem: 1 49<143 465 143 465> 652 49<354.5 400.5>
VStem: 523 49<508 524>
LayerCount: 2
Fore
SplineSet
572 508 m 0
 571 433 533 355 465 302 c 2
 143 50 l 1
 465 50 l 2
 479 50 490 39 490 26 c 0
 490 12 479 1 465 1 c 2
 75 1 l 2
 74 1 74 1 73 1 c 2
 72 1 l 2
 64 1 57 4 52 11 c 0
 44 21 46 37 57 45 c 2
 435 340 l 2
 492 385 523 450 523 508 c 0
 523 540 514 570 496 595 c 0
 468 633 425 652 376 652 c 0
 333 652 286 637 244 605 c 1
 205 573 l 1
 205 573 l 1
 194 565 178 567 170 578 c 0
 162 588 164 604 174 612 c 2
 214 643 l 2
 264 682 321 701 376 701 c 0
 438 701 498 675 535 624 c 0
 560 590 572 549 572 508 c 0
EndSplineSet
EndChar

StartChar: three
Encoding: 51 51 30
Width: 610
Flags: MW
HStem: 0 51<219 234 234 235> 650 50<228 571 244 503>
LayerCount: 2
Fore
SplineSet
587 664 m 0
 585 661 583 658 580 656 c 2
 366 470 l 1
 408 461 447 440 474 406 c 1
 513 360 525 299 514 238 c 0
 504 177 470 116 415 70 c 0
 360 24 295 0 235 0 c 0
 234 0 234 0 234 0 c 2
 174 0 117 23 79 70 c 1
 79 70 l 1
 71 79 74 95 85 105 c 0
 97 115 113 115 121 105 c 0
 151 69 195 51 243 51 c 0
 291 51 342 69 386 105 c 1
 429 142 456 190 464 238 c 0
 472 286 463 334 433 370 c 0
 403 407 358 425 310 425 c 0
 302 425 296 429 292 435 c 1
 291 435 l 1
 283 445 286 461 297 471 c 2
 503 650 l 1
 235 650 l 2
 221 650 212 661 214 675 c 0
 217 689 230 700 244 700 c 2
 571 700 l 2
 585 700 594 689 591 675 c 0
 591 671 589 667 587 664 c 0
EndSplineSet
EndChar

StartChar: four
Encoding: 52 52 31
Width: 664
Flags: MW
HStem: 1 21G<456 463> 145 49<132 453 511 554 132 503> 680 20G<563.5 564.5> 681 20G<567 569 569 571 571 575 575 576 576 576 576 576>
LayerCount: 2
Fore
SplineSet
554 194 m 2xd0
 568 194 579 183 579 170 c 0
 579 156 568 145 554 145 c 2
 503 145 l 1
 481 21 l 2
 479 10 469 1 457 1 c 0
 455 1 454 1 453 2 c 0
 439 4 430 17 433 30 c 2
 453 145 l 1
 76 145 l 1
 75 145 l 1
 74 145 l 2
 68 145 62 147 57 152 c 0
 47 162 47 177 57 187 c 2
 554 694 l 1
 554 694 l 1
 554 694 l 1
 554 694 555 694 555 695 c 1
 556 695 557 696 558 697 c 2
 558 697 559 698 560 698 c 2
 560 698 561 699 562 699 c 0
 563 699 563 700 564 700 c 0xe0
 565 700 566 700 567 701 c 1
 567 701 568 701 569 701 c 0
 570 701 570 701 571 701 c 0
 572 701 574 701 575 701 c 2
 576 701 l 1
 576 701 l 1
 579 700 582 699 585 697 c 0
 586 696 588 695 589 694 c 1
 589 694 l 1
 590 693 l 2
 591 692 591 691 592 691 c 1
 592 690 593 689 593 688 c 2
 593 688 594 687 594 686 c 2
 594 686 595 685 595 684 c 0
 595 683 595 683 596 682 c 0
 596 681 596 680 596 679 c 0
 596 678 596 678 596 677 c 0
 596 676 596 674 596 672 c 2
 511 194 l 1
 554 194 l 2xd0
132 194 m 1
 462 194 l 1
 534 603 l 1
 132 194 l 1
EndSplineSet
EndChar

StartChar: five
Encoding: 53 53 32
Width: 605
Flags: MW
HStem: -1 50<203 227 227 227> 424 50<283 327> 649 50<245 554 245 245>
VStem: 456 50<245 292>
LayerCount: 2
Fore
SplineSet
554 699 m 2
 568 699 580 688 580 674 c 0
 580 660 568 649 554 649 c 2
 245 649 l 1
 184 445 l 1
 223 464 263 474 303 474 c 0
 363 474 422 451 461 403 c 0
 491 366 506 320 506 274 c 0
 506 200 470 123 405 67 c 1
 351 22 288 -1 227 -1 c 1
 227 -1 l 1
 166 -1 108 23 69 70 c 1
 69 70 l 1
 60 81 62 97 72 106 c 1
 83 114 99 113 108 102 c 0
 136 67 179 49 227 49 c 0
 275 49 328 68 372 106 c 0
 427 152 456 216 456 274 c 0
 456 310 445 344 422 371 c 1
 394 406 351 424 303 424 c 0
 255 424 202 405 158 367 c 0
 147 358 131 360 122 370 c 0
 119 374 117 379 117 384 c 1
 116 387 116 391 117 395 c 2
 202 680 l 2
 204 687 209 692 215 695 c 0
 219 698 223 699 228 699 c 2
 554 699 l 2
EndSplineSet
EndChar

StartChar: six
Encoding: 54 54 33
Width: 642
Flags: MW
HStem: 2 49<262 262> 415 49<301.5 334 334 335> 653 49
VStem: 65 48<197 215 197 215> 485 49<264 269>
LayerCount: 2
Fore
SplineSet
335 464 m 0
 392 464 442 443 478 408 c 0
 513 373 534 324 534 269 c 0
 534 256 532 243 530 229 c 1
 506 233 l 1
 530 229 l 1
 507 102 390 3 262 2 c 1
 262 2 l 1
 205 2 155 23 120 58 c 0
 85 93 64 143 64 197 c 0
 64 202 64 207 65 212 c 0
 65 213 65 214 65 215 c 0
 72 311 105 428 168 525 c 0
 231 621 327 697 456 702 c 0
 469 703 481 692 481 679 c 0
 482 665 471 654 458 653 c 0
 348 649 267 585 209 498 c 0
 188 465 170 428 155 391 c 1
 204 436 268 464 335 464 c 0
482 237 m 1
 484 248 485 259 485 269 c 0
 484 353 425 414 335 415 c 1
 334 415 l 2
 233 415 133 330 116 229 c 0
 114 218 113 207 113 197 c 0
 114 113 173 52 262 51 c 0
 364 50 465 136 482 237 c 1
 482 237 l 1
EndSplineSet
EndChar

StartChar: seven
Encoding: 55 55 34
Width: 587
Flags: MW
HStem: 1 21G<90 96.5> 652 49<97.5 481 104 438> 680 20G<487.5 488.5>
LayerCount: 2
Fore
SplineSet
503 665 m 2xa0
 503 665 503 665 502 664 c 2
 113 13 l 2
 109 5 101 1 92 1 c 0
 88 1 84 2 80 5 c 0
 68 12 64 27 71 38 c 2
 438 652 l 1
 104 652 l 2
 91 652 80 663 80 677 c 0
 80 690 91 701 104 701 c 2
 481 701 l 2
 482 701 482 701 483 701 c 0
 484 701 485 701 486 701 c 2xc0
 486 701 487 700 488 700 c 0
 489 700 489 700 490 699 c 0
 491 699 492 699 493 698 c 1
 494 698 l 1
 494 697 l 1
 495 697 496 696 497 696 c 1
 497 695 498 695 498 694 c 1
 499 694 499 693 500 692 c 2
 501 691 l 2
 502 690 502 689 503 689 c 1
 503 688 503 687 504 687 c 1
 504 686 504 685 505 684 c 1
 505 684 505 683 505 682 c 0
 505 681 505 681 506 680 c 0
 506 679 506 678 506 677 c 1
 506 677 l 1
 506 676 506 676 506 675 c 0
 506 674 506 673 505 673 c 1
 505 672 505 671 505 670 c 0
 505 669 505 669 504 668 c 0
 504 667 503 666 503 665 c 2xa0
EndSplineSet
EndChar

StartChar: eight
Encoding: 56 56 35
Width: 630
Flags: MW
HStem: 0 48<250 250> 406 51<321 321> 652 48<365 365>
VStem: 55 48<191 196.5 191 197.5> 468 48<257 262>
LayerCount: 2
Fore
SplineSet
409 435 m 1
 429 425 446 413 461 399 c 0
 496 364 516 316 516 262 c 0
 516 249 515 236 513 223 c 0
 490 99 375 1 250 0 c 1
 250 0 l 1
 194 0 145 21 110 55 c 0
 75 90 55 138 55 191 c 0
 55 204 56 218 59 231 c 1
 59 231 l 1
 76 327 149 406 238 438 c 1
 236 440 234 442 231 445 c 0
 209 467 196 499 196 533 c 0
 196 542 196 550 198 559 c 1
 198 559 l 1
 213 638 285 699 365 700 c 0
 401 700 433 687 456 664 c 0
 478 642 491 610 491 576 c 0
 491 567 491 559 489 550 c 0
 480 502 450 460 409 435 c 1
221 554 m 1
 245 550 l 1
 244 544 244 539 244 533 c 0
 244 489 274 458 322 457 c 0
 377 456 433 504 442 559 c 0
 443 565 443 570 443 576 c 0
 443 620 413 651 365 652 c 0
 310 653 254 605 245 550 c 1
 221 554 l 1
465 231 m 0
 467 242 468 252 468 262 c 0
 467 345 410 405 321 406 c 1
 222 406 123 322 106 223 c 1
 83 227 l 1
 106 223 l 1
 104 212 103 202 103 191 c 0
 104 109 162 49 250 48 c 0
 349 47 448 131 465 231 c 0
EndSplineSet
EndChar

StartChar: nine
Encoding: 57 57 36
Width: 642
Flags: MW
HStem: 0 49<136.5 142 135 143 135 144> 238 49<264 264> 651 49<337 337>
VStem: 66 49<433 438 433 439.5> 486 49<500 505>
LayerCount: 2
Fore
SplineSet
479 644 m 0
 515 609 535 560 535 505 c 0
 535 500 535 496 535 491 c 0
 535 489 535 488 535 487 c 0
 527 391 494 274 431 178 c 0
 368 82 273 5 144 0 c 0
 143 0 143 0 143 0 c 2
 130 0 119 10 118 24 c 0
 118 37 128 49 142 49 c 0
 251 54 332 117 390 205 c 0
 412 238 430 274 444 311 c 1
 395 266 331 239 264 238 c 0
 207 238 157 259 122 294 c 0
 86 329 66 379 66 433 c 0
 66 446 67 460 69 473 c 1
 69 473 l 1
 92 600 210 699 337 700 c 0
 394 700 444 679 479 644 c 0
264 287 m 0
 365 286 466 372 483 473 c 0
 485 484 486 495 486 505 c 0
 485 590 427 650 337 651 c 0
 236 652 135 567 118 465 c 1
 94 469 l 1
 118 465 l 1
 116 454 115 443 115 433 c 0
 116 349 174 288 264 287 c 0
EndSplineSet
EndChar

StartChar: a
Encoding: 97 97 37
Width: 619
Flags: MW
HStem: 0 48<235 235> 440 48<261.5 341.5 312 341.5>
VStem: 40 47<203 209 203 210.5>
LayerCount: 2
Fore
SplineSet
235 0 m 1
 178 0 129 22 94 59 c 0
 59 96 40 146 40 203 c 0
 40 218 41 233 44 248 c 0
 68 380 184 487 313 488 c 0
 370 488 419 466 454 429 c 0
 465 417 475 404 483 389 c 1
 497 468 l 2
 499 481 511 490 524 488 c 0
 537 485 546 473 544 460 c 2
 466 20 l 2
 464 8 454 0 442 0 c 0
 441 0 440 0 438 0 c 0
 425 3 417 15 419 28 c 2
 430 92 l 1
 380 36 310 1 235 0 c 1
 235 0 l 1
91 240 m 0
 88 227 87 215 87 203 c 0
 88 113 148 49 235 48 c 0
 336 47 439 137 458 248 c 1
 458 248 l 1
 460 261 461 273 461 285 c 0
 460 375 402 439 313 440 c 1
 312 440 l 2
 211 440 110 350 91 240 c 0
EndSplineSet
EndChar

StartChar: b
Encoding: 98 98 38
Width: 660
Flags: MW
HStem: -2 49<332 332 333 333> 439 49<357.5 439.5 409 439.5>
VStem: 563 49<277 283>
LayerCount: 2
Fore
SplineSet
115 -2 m 0
 102 1 93 13 96 27 c 2
 210 678 l 2
 213 691 225 700 239 698 c 1
 252 695 261 683 259 669 c 2
 210 396 l 1
 262 452 334 487 410 488 c 0
 469 488 520 466 556 429 c 0
 592 392 612 340 612 283 c 0
 612 268 611 254 608 239 c 1
 584 243 l 1
 608 239 l 1
 584 105 464 -1 333 -2 c 0
 332 -2 332 -2 332 -2 c 2
 274 -2 223 20 187 57 c 0
 176 69 166 82 158 97 c 1
 144 18 l 2
 142 6 131 -2 120 -2 c 0
 118 -2 117 -2 115 -2 c 0
409 439 m 2
 306 439 201 348 183 239 c 0
 180 226 179 215 179 203 c 0
 180 112 241 48 333 47 c 0
 436 46 541 137 560 247 c 1
 560 247 l 1
 562 259 563 271 563 283 c 0
 562 374 502 438 410 439 c 1
 409 439 l 2
EndSplineSet
EndChar

StartChar: c
Encoding: 99 99 39
Width: 571
Flags: MW
HStem: 1 48<242 296.5 273 296.5> 442 48<350 374.5>
VStem: 58 48<179 213.5 162.5 215>
LayerCount: 2
Fore
SplineSet
58 208 m 0
 58 222 59 235 62 249 c 0
 86 384 213 489 350 490 c 0
 409 490 462 470 500 436 c 0
 509 427 510 412 501 402 c 0
 492 392 477 391 468 400 c 0
 439 426 399 442 350 442 c 0
 238 443 127 350 109 241 c 0
 107 229 106 219 106 208 c 0
 106 117 173 50 273 49 c 0
 320 49 368 65 409 93 c 1
 409 93 l 1
 420 100 435 97 442 86 c 0
 449 75 447 61 436 53 c 0
 388 21 331 1 273 1 c 1
 273 1 l 1
 211 1 157 23 119 60 c 0
 80 98 58 150 58 208 c 0
EndSplineSet
EndChar

StartChar: d
Encoding: 100 100 40
Width: 660
Flags: MW
HStem: 1 49<261 261 262 262> 442 49<340 340>
VStem: 60 49<206 212 206 213>
LayerCount: 2
Fore
SplineSet
261 1 m 0
 203 1 152 23 116 60 c 0
 80 97 60 149 60 206 c 0
 60 220 61 235 64 250 c 0
 88 384 208 490 340 491 c 0
 398 491 449 469 485 432 c 0
 497 420 506 406 515 392 c 1
 565 681 l 2
 568 694 581 703 594 701 c 0
 607 698 616 686 614 672 c 2
 499 21 l 2
 497 9 486 1 475 1 c 0
 473 1 472 1 471 1 c 0
 457 4 448 16 451 30 c 2
 462 93 l 1
 410 37 338 1 262 1 c 2
 262 1 262 1 261 1 c 0
88 246 m 1
 112 242 l 1
 110 229 109 218 109 206 c 0
 110 115 170 51 262 50 c 0
 366 49 471 140 490 250 c 1
 490 250 l 1
 492 262 493 274 493 286 c 0
 492 377 431 441 340 442 c 0
 236 443 131 352 112 242 c 1
 88 246 l 1
EndSplineSet
EndChar

StartChar: e
Encoding: 101 101 41
Width: 609
Flags: MW
HStem: 1 48<229 292.5 258 292.5> 235 49<121 491 121 513 108 491> 442 48<338 338>
VStem: 58 48<176.5 210 160 212> 491 48<284 286 285.5 286>
LayerCount: 2
Fore
SplineSet
58 205 m 0
 58 219 59 234 62 250 c 0
 86 383 205 489 338 490 c 0
 396 490 446 468 482 431 c 0
 518 394 539 343 539 286 c 0
 539 277 538 269 537 260 c 0
 537 258 536 256 536 254 c 0
 533 244 524 235 513 235 c 2
 108 235 l 1
 106 225 106 215 106 205 c 0
 106 115 168 50 259 49 c 0
 326 49 393 85 436 139 c 0
 445 149 460 151 470 142 c 0
 480 134 482 120 473 110 c 0
 422 45 343 1 259 1 c 2
 259 1 259 1 258 1 c 0
 200 1 150 23 114 60 c 0
 78 97 58 148 58 205 c 0
338 442 m 0
 246 443 155 374 121 284 c 1
 491 284 l 1
 491 285 491 285 491 286 c 0
 490 376 429 441 338 442 c 0
EndSplineSet
EndChar

StartChar: f
Encoding: 102 102 42
Width: 362
Flags: MW
HStem: -1 21G<91 104.5> 449 49<80.5 161 96 153 210 271 96 202> 650 49<307.5 325>
LayerCount: 2
Fore
SplineSet
327 699 m 0
 340 699 349 688 347 674 c 0
 345 661 332 650 318 650 c 0
 285 650 266 643 253 631 c 0
 240 619 227 595 219 550 c 2
 210 498 l 1
 279 498 l 2
 293 498 302 487 299 474 c 1
 297 460 284 449 271 449 c 2
 202 449 l 1
 126 23 l 2
 124 10 111 -1 98 -1 c 0
 84 -1 75 10 78 23 c 2
 153 449 l 1
 87 449 l 2
 74 449 65 460 67 474 c 1
 70 487 83 498 96 498 c 2
 161 498 l 1
 170 550 l 2
 179 600 194 637 222 664 c 1
 251 690 288 699 327 699 c 0
EndSplineSet
EndChar

StartChar: g
Encoding: 103 103 43
Width: 660
Flags: MW
HStem: -196 48<209 224 209 224> -1 48<228.5 257 257 258> 439 49<283 361.5 332 361.5>
VStem: 60 48<201 207 201 208.5>
LayerCount: 2
Fore
SplineSet
257 -1 m 2
 200 -1 150 21 115 58 c 0
 81 93 60 144 60 201 c 0
 60 216 62 231 65 247 c 0
 89 379 207 487 333 488 c 0
 390 488 440 466 476 429 c 0
 487 417 497 403 504 388 c 1
 518 468 l 1
 518 468 l 1
 521 481 532 490 545 488 c 0
 559 485 568 473 565 459 c 2
 526 238 l 1
 526 238 l 1
 526 238 l 1
 526 238 l 1
 526 238 l 1
 526 238 l 1
 490 32 l 1
 466 -95 349 -195 224 -196 c 0
 187 -196 153 -187 124 -171 c 0
 112 -165 108 -151 114 -139 c 1
 121 -128 134 -124 146 -130 c 0
 168 -141 194 -148 224 -148 c 0
 323 -149 425 -62 443 41 c 2
 451 89 l 1
 400 35 330 -1 258 -1 c 0
 257 -1 257 -1 257 -1 c 2
112 238 m 0
 109 225 108 213 108 201 c 0
 109 109 169 47 258 47 c 0
 357 46 460 134 479 247 c 0
 482 259 483 271 483 282 c 0
 482 375 422 439 333 439 c 2
 332 439 l 2
 234 439 130 349 112 238 c 0
EndSplineSet
EndChar

StartChar: h
Encoding: 104 104 44
Width: 613
Flags: MW
HStem: -20 20G<125 127 125 125> -1 21G<113 115 113 113.5 115 118 118 120 118 118 120 123 472 477 472 473> 441 49<377 377>
VStem: 503 49<313 317>
LayerCount: 2
Fore
SplineSet
93 22 m 0x70
 93 24 93 26 94 27 c 2
 208 678 l 2
 211 692 223 701 237 698 c 0
 250 696 259 683 257 670 c 2
 215 422 l 1
 258 463 316 489 377 490 c 0
 427 490 471 471 503 440 c 0
 534 409 552 365 552 317 c 0
 552 306 551 294 549 282 c 2
 501 19 l 2
 499 7 488 -1 477 -1 c 0
 475 -1 474 -1 472 -1 c 0x70
 459 1 450 14 453 27 c 2
 501 290 l 2
 502 300 503 309 503 317 c 0
 502 389 453 440 377 441 c 0
 291 442 205 368 190 282 c 2
 142 19 l 1
 142 19 l 1
 142 18 l 1
 141 17 141 16 141 14 c 1
 140 14 140 13 140 13 c 2
 139 12 139 11 139 10 c 1
 138 10 138 9 137 9 c 1
 137 8 136 7 136 7 c 2
 135 6 135 6 134 5 c 2
 134 5 133 4 132 4 c 1
 132 3 131 3 131 3 c 2
 130 2 129 2 129 1 c 1
 128 1 128 1 127 0 c 0
 126 0 125 0 125 0 c 1xb0
 124 -1 123 -1 123 -1 c 2
 122 -1 121 -1 120 -1 c 0
 119 -1 119 -1 118 -1 c 1
 118 -1 l 1
 117 -1 116 -1 115 -1 c 2
 115 -1 114 -1 113 -1 c 0
 109 0 104 2 101 5 c 0
 96 10 93 16 93 22 c 0x70
EndSplineSet
EndChar

StartChar: i
Encoding: 105 105 45
Width: 281
Flags: MW
HStem: 0 21G<116 117 116 120>
LayerCount: 2
Fore
SplineSet
116 0 m 0
 103 2 94 15 97 27 c 2
 174 470 l 2
 176 483 189 491 202 490 c 1
 215 487 224 475 221 461 c 2
 143 19 l 2
 141 8 131 0 120 0 c 0
 118 0 118 0 116 0 c 0
243 584 m 2
 241 572 231 564 219 564 c 0
 218 564 216 564 215 564 c 0
 202 567 194 579 196 592 c 2
 200 615 l 2
 202 627 215 636 227 634 c 0
 241 632 249 619 247 606 c 2
 243 584 l 2
EndSplineSet
EndChar

StartChar: j
Encoding: 106 106 46
Width: 249
Flags: MW
HStem: -190 21G<12 19>
LayerCount: 2
Fore
SplineSet
237 586 m 1
 236 574 225 566 215 566 c 0
 212 566 211 566 210 566 c 0
 198 568 189 581 192 594 c 1
 195 617 l 1
 198 629 210 637 221 635 c 0
 235 632 244 621 242 608 c 2
 237 586 l 1
195 490 m 0
 208 488 216 476 213 463 c 2
 111 -111 l 2
 103 -155 64 -189 19 -190 c 0
 5 -190 -5 -179 -5 -166 c 0
 -5 -153 5 -143 19 -143 c 0
 38 -144 62 -124 65 -103 c 2
 168 472 l 1
 168 472 l 1
 169 484 182 492 195 490 c 0
EndSplineSet
EndChar

StartChar: k
Encoding: 107 107 47
Width: 560
Flags: MW
HStem: -2 21G<115 120 115 116 447 453>
LayerCount: 2
Fore
SplineSet
451 -2 m 0
 443 -2 435 2 430 9 c 2
 285 233 l 1
 164 131 l 2
 164 130 164 130 163 130 c 2
 144 18 l 2
 141 6 131 -2 120 -2 c 0
 118 -2 117 -2 115 -2 c 0
 102 0 93 13 95 26 c 2
 210 677 l 2
 213 691 225 700 239 697 c 0
 252 695 261 682 258 669 c 2
 177 206 l 1
 515 493 l 2
 525 502 541 501 549 490 c 1
 558 480 557 465 547 456 c 2
 322 265 l 1
 471 35 l 2
 479 24 476 9 464 2 c 0
 460 -1 455 -2 451 -2 c 0
EndSplineSet
EndChar

StartChar: l
Encoding: 108 108 48
Width: 249
Flags: MW
HStem: 0 21G<122 126 122 122.5>
LayerCount: 2
Fore
SplineSet
245 699 m 0
 258 697 267 684 265 671 c 2
 150 20 l 2
 148 8 138 0 126 0 c 0
 125 0 123 0 122 0 c 0
 108 2 100 15 102 28 c 2
 217 679 l 2
 219 693 232 702 245 699 c 0
EndSplineSet
EndChar

StartChar: m
Encoding: 109 109 49
Width: 951
Flags: MW
HStem: -2 21G<115 116 115 115 116 119 119 121 119 119 121 124 465 465.5 465 467 467 470 470 470 470 471 471 475 475 475 816 817 816 820> -1 21G<125 128 125 125.5> 440 48<372 372 723 723>
VStem: 846 48<314.5 319>
LayerCount: 2
Fore
SplineSet
141 12 m 1xb0
 140 11 140 10 139 9 c 0
 139 8 139 8 138 8 c 1
 138 7 137 6 136 5 c 2
 136 5 136 5 135 4 c 2
 135 4 134 3 133 2 c 2
 133 2 132 2 132 1 c 1
 131 1 130 1 129 0 c 2
 129 0 128 0 128 -1 c 1
 127 -1 126 -1 125 -1 c 1x70
 125 -2 124 -2 124 -2 c 2
 123 -2 122 -2 121 -2 c 0
 120 -2 120 -2 119 -2 c 1
 119 -2 l 1
 118 -2 117 -2 116 -2 c 2
 115 -2 l 1
 102 0 93 13 95 26 c 2
 142 292 l 2
 142 293 142 293 142 293 c 1
 173 468 l 2
 176 481 188 490 201 487 c 0
 214 485 223 473 220 460 c 2
 214 421 l 1
 256 462 313 487 372 488 c 0
 421 488 465 470 495 439 c 0
 511 423 523 404 531 383 c 1
 575 445 646 487 723 488 c 0
 772 488 815 470 846 439 c 0
 876 409 894 366 894 319 c 0
 894 308 893 296 891 284 c 2
 844 17 l 2
 842 6 832 -2 820 -2 c 0
 819 -2 818 -2 816 -2 c 0
 803 0 794 13 797 26 c 2
 844 292 l 2
 845 302 846 310 846 319 c 0
 845 389 797 439 723 440 c 1
 640 440 556 371 541 287 c 0
 541 286 540 285 540 284 c 2
 493 17 l 2
 491 7 484 0 475 -2 c 1
 475 -2 l 1
 473 -2 472 -2 471 -2 c 2
 470 -2 l 1
 470 -2 l 1
 469 -2 468 -2 467 -2 c 2
 467 -2 466 -2 465 -2 c 0
 452 0 444 13 446 26 c 2
 493 292 l 2
 493 293 493 294 494 295 c 0
 495 303 496 311 496 319 c 0
 495 389 447 439 372 440 c 0
 288 441 204 369 189 284 c 2
 142 17 l 2
 142 16 142 14 141 13 c 1
 141 12 l 1xb0
EndSplineSet
EndChar

StartChar: n
Encoding: 110 110 50
Width: 613
Flags: MW
HStem: 0 21G<114 116 114 114.5 116 119 119 121 119 119 121 123 464 465 464 467> 1 21G<125 128 125 125.5> 440 48<370 370>
VStem: 493 48<314.5 319>
LayerCount: 2
Fore
SplineSet
445 28 m 2xb0
 491 292 l 2
 492 302 493 310 493 319 c 0
 492 389 445 439 370 440 c 0
 288 441 203 370 188 285 c 2
 142 19 l 2
 142 18 141 16 141 15 c 2
 140 14 l 2
 140 13 139 12 139 11 c 0
 138 10 138 10 138 10 c 2
 137 9 137 8 136 7 c 2
 136 7 135 7 135 6 c 1
 134 6 134 5 133 4 c 0
 132 4 132 4 132 3 c 1
 131 3 130 3 129 2 c 2
 129 2 128 2 128 1 c 1
 127 1 126 1 125 1 c 0x70
 124 0 124 0 123 0 c 0
 122 0 122 0 121 0 c 0
 120 0 119 0 119 0 c 1
 119 0 l 1
 118 0 117 0 116 0 c 0
 115 0 115 0 114 0 c 0
 101 2 93 15 95 28 c 2
 142 292 l 2
 142 293 142 293 142 293 c 1
 172 468 l 2
 174 481 187 490 200 487 c 1
 214 485 222 473 220 460 c 2
 213 421 l 1
 256 462 312 487 370 488 c 0
 419 488 463 470 493 439 c 0
 523 409 541 367 541 319 c 0
 541 308 540 296 538 284 c 2
 491 19 l 2
 489 8 479 0 467 0 c 0
 466 0 466 0 464 0 c 0
 451 2 442 15 445 28 c 2xb0
EndSplineSet
EndChar

StartChar: o
Encoding: 111 111 51
Width: 625
Flags: MW
HStem: 0 47<266 266 267 267> 442 48<293 373.5 343 373.5>
VStem: 70 48<204 209.5 204 211> 494 47<280 286>
LayerCount: 2
Fore
SplineSet
541 286 m 0
 541 271 540 256 537 240 c 1
 514 245 l 1
 537 240 l 1
 513 107 395 0 267 0 c 2
 267 0 267 0 266 0 c 0
 210 0 160 22 125 59 c 0
 90 96 70 147 70 204 c 0
 70 218 71 233 74 249 c 0
 98 382 216 489 345 490 c 0
 402 490 452 467 487 430 c 0
 522 394 541 342 541 286 c 0
490 249 m 0
 492 261 494 274 494 286 c 0
 493 377 433 441 345 442 c 0
 344 442 344 442 343 442 c 0
 243 442 140 351 121 240 c 0
 119 228 118 215 118 204 c 0
 119 112 178 48 267 47 c 0
 368 46 471 138 490 249 c 0
EndSplineSet
EndChar

StartChar: p
Encoding: 112 112 52
Width: 660
Flags: MW
HStem: -204 21G<115 116 115 119> 5 48<367 367> 439 49<390 470 440 470>
VStem: 593 49<278.5 284>
LayerCount: 2
Fore
SplineSet
115 -204 m 0
 102 -201 93 -189 95 -175 c 2
 170 249 l 1
 170 249 l 1
 170 249 l 1
 209 468 l 2
 211 481 224 490 237 488 c 0
 251 485 260 473 257 459 c 2
 246 397 l 1
 298 452 368 487 441 488 c 0
 499 488 551 466 585 429 c 1
 621 393 642 341 642 284 c 0
 642 271 641 256 638 241 c 0
 614 109 495 5 367 5 c 1
 367 5 l 1
 309 5 259 26 223 63 c 1
 211 73 202 87 193 101 c 1
 143 -184 l 2
 141 -196 131 -204 119 -204 c 0
 118 -204 117 -204 115 -204 c 0
440 439 m 2
 340 439 237 349 218 241 c 0
 216 228 215 217 215 205 c 0
 216 116 277 54 367 53 c 0
 467 52 572 141 590 249 c 0
 592 261 593 273 593 284 c 0
 592 375 532 438 441 439 c 0
 440 439 440 439 440 439 c 2
EndSplineSet
EndChar

StartChar: q
Encoding: 113 113 53
Width: 660
Flags: MW
HStem: -206 21G<430 430.5 430 434> 2 49<260 260> 439 49<338 338>
VStem: 60 49<205 211 205 212.5>
LayerCount: 2
Fore
SplineSet
430 -206 m 0
 416 -203 408 -191 410 -177 c 2
 458 94 l 1
 408 38 336 3 260 2 c 1
 260 2 l 1
 202 2 152 24 117 61 c 0
 81 98 60 148 60 205 c 0
 60 220 61 234 64 249 c 0
 88 381 207 487 338 488 c 0
 396 488 445 466 481 429 c 0
 493 417 502 403 511 389 c 1
 525 468 l 2
 527 481 540 490 553 488 c 0
 566 485 575 473 573 459 c 2
 458 -186 l 2
 456 -198 445 -206 434 -206 c 0
 432 -206 431 -206 430 -206 c 0
260 51 m 0
 364 50 467 141 486 249 c 1
 486 249 l 1
 488 262 489 273 489 285 c 0
 488 374 427 438 338 439 c 0
 234 440 131 350 112 241 c 1
 88 245 l 1
 112 241 l 1
 110 228 109 217 109 205 c 0
 110 116 171 52 260 51 c 0
EndSplineSet
EndChar

StartChar: r
Encoding: 114 114 54
Width: 439
Flags: MW
HStem: 1 21G<118.5 125> 440 48<422 428.5>
LayerCount: 2
Fore
SplineSet
115 2 m 0
 102 4 93 16 96 29 c 2
 135 249 l 1
 135 249 135 249 135 250 c 2
 174 468 l 2
 176 481 188 490 201 488 c 0
 214 486 222 473 220 460 c 2
 203 361 l 1
 205 364 208 367 210 369 c 0
 257 427 328 488 422 488 c 0
 435 488 446 478 446 464 c 0
 446 451 435 440 422 440 c 0
 359 441 305 403 263 359 c 0
 221 314 194 263 184 244 c 0
 183 241 182 239 181 238 c 2
 143 21 l 2
 141 9 131 1 119 1 c 0
 118 1 116 1 115 2 c 0
EndSplineSet
EndChar

StartChar: s
Encoding: 115 115 55
Width: 492
Flags: MW
HStem: 0 48<224 232 224 232> 443 47<282.5 309 300 309>
LayerCount: 2
Fore
SplineSet
60 69 m 5
 51 78 52 93 62 103 c 5
 62 103 l 5
 72 113 88 115 97 106 c 5
 97 106 l 5
 125 79 176 48 232 48 c 5
 232 48 l 5
 271 48 308 60 334 77 c 5
 334 77 l 5
 361 95 378 117 381 139 c 5
 381 139 l 5
 385 162 378 178 357 194 c 5
 357 194 l 5
 337 210 302 222 260 230 c 5
 260 230 l 5
 259 231 l 5
 216 239 179 251 153 271 c 5
 153 271 l 5
 126 291 110 322 117 360 c 5
 117 360 l 5
 124 399 151 432 186 455 c 5
 186 455 l 5
 221 477 264 490 309 490 c 5
 309 490 l 5
 373 490 415 459 448 435 c 5
 448 435 l 5
 458 428 458 413 449 402 c 5
 449 402 l 5
 440 391 424 388 415 395 c 5
 415 395 l 5
 382 419 348 443 300 443 c 5
 300 443 l 5
 265 443 232 432 207 416 c 5
 207 416 l 5
 183 400 168 380 165 360 c 5
 165 360 l 5
 161 340 168 326 186 311 c 5
 186 311 l 5
 205 297 237 285 275 278 c 5
 275 278 l 5
 277 277 l 5
 323 269 363 255 391 234 c 5
 391 234 l 5
 420 213 437 180 429 139 c 5
 429 139 l 5
 422 98 393 63 356 39 c 5
 356 39 l 5
 318 14 272 0 224 0 c 5
 224 0 l 5
 150 1 93 38 60 69 c 5
 60 69 l 5
EndSplineSet
EndChar

StartChar: t
Encoding: 116 116 56
Width: 400
Flags: MW
HStem: 1 21G<131.5 142 142 142> 441 49<60 140 67 131 189 315 67 181>
VStem: 66 101<19 78.5>
LayerCount: 2
Fore
SplineSet
315 490 m 2
 328 490 339 479 339 465 c 0
 339 452 328 441 315 441 c 2
 181 441 l 1
 116 83 l 2
 115 81 115 78 115 76 c 0
 116 60 124 51 142 50 c 0
 156 50 167 39 167 26 c 0
 167 12 156 1 142 1 c 1
 142 1 l 1
 121 1 102 9 88 23 c 0
 74 37 66 56 66 76 c 0
 66 81 67 86 67 91 c 2
 131 441 l 1
 67 441 l 2
 53 441 42 452 42 465 c 0
 42 479 53 490 67 490 c 2
 140 490 l 1
 171 681 l 1
 171 681 l 1
 174 694 186 703 200 701 c 1
 213 698 222 686 220 673 c 2
 189 490 l 1
 315 490 l 2
EndSplineSet
EndChar

StartChar: u
Encoding: 117 117 57
Width: 613
Flags: MW
HStem: 1 48<253 253>
VStem: 83 48<169 173 169 174.5>
LayerCount: 2
Fore
SplineSet
509 488 m 0
 522 486 531 473 528 460 c 2
 482 195 l 1
 462 86 362 2 253 1 c 1
 253 1 l 1
 204 1 162 19 131 50 c 0
 101 80 83 122 83 169 c 0
 83 180 84 192 86 204 c 2
 133 468 l 2
 136 481 148 490 161 488 c 0
 173 486 182 473 179 460 c 2
 133 195 l 2
 132 186 131 177 131 169 c 0
 132 99 179 50 253 49 c 0
 336 48 421 119 435 204 c 1
 482 468 l 2
 484 481 496 490 509 488 c 0
EndSplineSet
EndChar

StartChar: v
Encoding: 118 118 58
Width: 582
Flags: MW
HStem: 2 21G<184 186> 3 21G<179 180 179 179 191 192 191 191 191 191>
LayerCount: 2
Fore
SplineSet
459 483 m 0x40
 470 476 474 461 467 450 c 2
 206 14 l 1
 206 14 205 14 205 13 c 0
 204 12 203 11 202 10 c 0
 202 9 201 9 201 8 c 0
 200 7 199 7 198 6 c 0
 197 6 197 5 196 5 c 0
 195 4 194 4 192 3 c 1
 191 3 l 1
 191 3 l 1x40
 189 2 187 2 185 2 c 0x80
 183 2 181 3 180 3 c 0
 179 3 179 3 179 3 c 1
 177 4 175 5 174 6 c 1
 174 6 l 1
 174 6 174 6 173 6 c 0
 172 7 171 7 171 8 c 1
 170 8 170 9 170 9 c 2
 169 10 168 11 167 12 c 1
 167 12 l 1
 166 13 165 14 165 16 c 1
 165 16 l 1
 164 17 163 19 163 20 c 2
 56 457 l 2
 53 469 60 482 73 486 c 0
 86 489 98 481 101 468 c 2
 195 87 l 1
 426 475 l 2
 433 486 447 490 459 483 c 0x40
EndSplineSet
EndChar

StartChar: w
Encoding: 119 119 59
Width: 861
Flags: MW
HStem: 2 21G<190 191 191 191 461 462 462 462> 3 21G<185 186 185 185 193.5 194.5 194 197 197 197 456 457 456 456 464 468 464 464.5 468 469 468 468>
LayerCount: 2
Fore
SplineSet
735 483 m 0x40
 746 476 750 461 743 450 c 2
 483 14 l 1
 483 14 l 1
 482 12 481 11 479 10 c 0
 479 9 478 9 478 8 c 0
 477 7 476 7 475 6 c 0
 474 6 474 5 473 5 c 0
 472 4 471 4 469 3 c 1
 469 3 469 3 468 3 c 1
 468 3 l 1
 467 3 465 3 464 3 c 2x40
 464 3 463 2 462 2 c 1
 462 2 l 1x80
 460 2 459 3 457 3 c 0
 456 3 456 3 456 3 c 1
 454 4 452 5 450 6 c 1
 450 6 l 1
 450 6 450 6 449 6 c 0
 448 7 448 7 447 8 c 0
 446 9 446 9 446 9 c 2
 445 10 444 11 443 12 c 1
 443 12 l 1
 442 13 441 15 441 16 c 1
 441 16 l 1
 440 18 439 19 439 21 c 2
 374 287 l 1
 212 14 l 1
 212 14 212 14 211 13 c 0
 211 12 210 11 208 10 c 0
 208 9 207 9 207 8 c 0
 206 7 205 7 204 6 c 0
 203 6 203 5 202 5 c 0
 201 4 200 4 198 4 c 1
 198 3 198 3 197 3 c 1
 197 3 l 1
 196 3 195 3 194 3 c 0x40
 193 3 192 2 191 2 c 1
 191 2 l 1x80
 189 2 187 3 186 3 c 0
 185 3 185 3 185 3 c 1
 183 4 181 5 179 6 c 1
 179 6 l 1
 179 6 179 6 178 6 c 0
 177 7 177 7 176 8 c 0
 175 9 175 9 175 9 c 2
 174 10 173 11 172 12 c 1
 172 12 l 1
 171 13 170 15 170 16 c 1
 170 16 l 1
 169 18 168 19 168 21 c 2
 61 457 l 2
 58 470 65 482 78 486 c 0
 91 489 104 481 107 468 c 2
 201 87 l 1
 362 357 l 2
 366 365 374 369 382 369 c 0
 394 370 404 362 406 351 c 2
 472 87 l 1
 703 475 l 2
 710 486 724 490 735 483 c 0x40
EndSplineSet
EndChar

StartChar: x
Encoding: 120 120 60
Width: 570
Flags: MW
HStem: 2 21G<91 97 408.5 414>
LayerCount: 2
Fore
SplineSet
472 478 m 2
 481 488 496 489 506 480 c 0
 515 471 516 456 507 446 c 2
 320 241 l 1
 433 38 l 2
 439 26 435 12 424 5 c 0
 420 3 416 2 412 2 c 0
 405 2 396 7 392 15 c 2
 288 205 l 1
 112 10 l 2
 107 5 100 2 94 2 c 0
 88 2 82 4 78 9 c 1
 68 17 67 33 76 42 c 2
 263 247 l 1
 150 451 l 2
 143 462 148 477 159 483 c 0
 171 490 185 486 192 474 c 2
 296 284 l 1
 472 478 l 2
EndSplineSet
EndChar

StartChar: y
Encoding: 121 121 61
Width: 588
Flags: MW
HStem: -193 48<151.5 166 151.5 166> 1 47<209.5 233 196 233>
VStem: 63 47<167 171.5 167 173>
LayerCount: 2
Fore
SplineSet
502 480 m 0
 506 476 508 471 508 467 c 1
 509 465 509 462 508 460 c 2
 433 34 l 2
 410 -93 293 -192 166 -193 c 0
 130 -193 96 -184 68 -170 c 0
 56 -163 52 -148 58 -136 c 0
 64 -125 78 -121 90 -127 c 0
 111 -138 137 -145 166 -145 c 0
 268 -146 369 -59 386 42 c 2
 390 65 l 1
 348 26 292 1 233 1 c 1
 233 1 l 1
 186 1 141 18 110 48 c 0
 80 78 63 121 63 167 c 0
 63 179 64 191 66 203 c 2
 112 469 l 2
 114 481 127 490 140 488 c 0
 153 485 162 473 159 460 c 2
 112 194 l 2
 110 185 110 176 110 167 c 0
 111 98 159 48 233 48 c 0
 316 47 400 118 414 203 c 1
 461 469 l 1
 461 469 l 1
 461 469 l 1
 461 469 l 1
 461 469 l 1
 463 481 476 490 488 488 c 0
 494 487 499 484 502 480 c 0
EndSplineSet
EndChar

StartChar: z
Encoding: 122 122 62
Width: 554
Flags: MW
HStem: -20 20G<76 76.5> -2 48<139 410 139 410> -1 21G<79 81 79 79> 443 47<156.5 488 163 434> 469 20G<495 497 496.5 497>
LayerCount: 2
Fore
SplineSet
509 456 m 1x48
 509 455 509 454 508 454 c 1
 508 453 507 452 507 452 c 2
 506 451 506 451 506 450 c 2
 139 46 l 1
 410 46 l 2
 423 46 434 35 434 22 c 0
 434 9 423 -2 410 -2 c 2
 85 -2 l 1
 85 -2 85 -2 84 -2 c 0x50
 83 -2 82 -1 81 -1 c 0
 80 -1 79 -1 79 -1 c 1x30
 78 0 77 0 76 0 c 2
 76 0 75 1 74 1 c 2
 74 1 73 2 72 2 c 1
 72 3 71 3 70 3 c 1
 70 4 69 4 69 5 c 1
 69 5 l 1
 68 6 67 6 67 7 c 1
 66 7 66 8 66 9 c 1
 65 9 65 10 64 10 c 1
 64 11 64 12 63 13 c 1
 63 13 63 14 63 15 c 1
 62 15 62 16 62 17 c 0
 62 18 62 18 62 19 c 0
 61 20 61 21 61 22 c 1
 61 22 l 1
 61 23 61 23 61 24 c 0
 61 25 61 25 62 26 c 0
 62 27 62 28 62 29 c 2
 62 29 63 30 63 31 c 0
 63 32 63 32 64 33 c 0
 64 34 65 34 65 35 c 0
 65 36 66 36 67 37 c 0
 67 38 67 38 67 38 c 1
 434 443 l 1
 163 443 l 2
 150 443 139 453 139 466 c 0
 139 480 150 490 163 490 c 2
 488 490 l 2
 489 490 489 490 490 490 c 0
 491 490 492 490 492 490 c 2x90
 493 490 494 490 495 489 c 1
 495 489 496 489 497 489 c 0
 498 488 498 488 499 488 c 0
 500 487 500 487 501 487 c 0
 502 486 502 486 503 485 c 2
 504 484 l 1
 505 484 l 1
 505 483 506 482 506 482 c 2
 507 481 507 481 508 480 c 0
 508 479 509 479 509 478 c 0
 509 477 510 477 510 476 c 0
 510 475 511 475 511 474 c 0
 511 473 511 472 512 472 c 1
 512 471 512 470 512 470 c 2
 512 469 512 468 512 467 c 2
 512 467 512 467 512 466 c 2
 512 465 l 2
 512 464 512 463 512 462 c 2
 512 462 511 461 511 460 c 0
 511 459 511 459 510 458 c 0
 510 457 510 456 509 456 c 1x48
EndSplineSet
EndChar

StartChar: exclam
Encoding: 33 33 63
Width: 252
Flags: MW
HStem: -2 21G<116 120 116 116.5>
LayerCount: 2
Fore
SplineSet
239 698 m 0
 252 695 261 682 259 669 c 2
 170 167 l 2
 168 155 158 147 146 147 c 0
 145 147 143 147 142 147 c 0
 128 150 120 162 122 176 c 2
 211 678 l 2
 213 691 226 700 239 698 c 0
128 70 m 0
 141 67 150 55 148 41 c 2
 144 18 l 2
 142 6 131 -2 120 -2 c 0
 118 -2 117 -2 116 -2 c 0
 102 1 93 13 96 27 c 2
 100 50 l 2
 102 63 115 72 128 70 c 0
EndSplineSet
EndChar

StartChar: parenleft
Encoding: 40 40 64
Width: 430
Flags: MW
HStem: -95 56<202 254 242 254 242 254 244 254> 649 56<375 385 375 385>
LayerCount: 2
Fore
SplineSet
92 30 m 1
 71 103 74 200 93 305 c 1
 93 305 l 1
 111 410 142 506 189 580 c 1
 189 580 l 1
 235 653 303 705 385 705 c 1
 385 705 l 1
 400 705 411 692 408 677 c 1
 408 677 l 1
 405 662 390 649 375 649 c 1
 375 649 l 1
 319 648 276 618 235 556 c 1
 235 556 l 1
 196 495 166 405 148 305 c 1
 148 305 l 1
 131 205 129 115 147 54 c 1
 147 54 l 1
 166 -8 197 -39 254 -39 c 1
 254 -39 l 1
 269 -39 279 -52 277 -67 c 1
 277 -67 l 1
 274 -83 259 -95 244 -95 c 1
 244 -95 l 1
 243 -95 243 -95 242 -95 c 1
 242 -95 l 1
 162 -95 112 -43 92 30 c 1
 92 30 l 1
EndSplineSet
EndChar

StartChar: parenright
Encoding: 41 41 65
Width: 430
Flags: MW
HStem: -95 56<78.5 96 86 96> 649 56<209.5 227 217 227>
LayerCount: 2
Fore
SplineSet
379 580 m 0
 400 507 397 410 378 305 c 1
 378 305 l 1
 360 200 329 104 282 30 c 1
 282 30 l 1
 236 -43 168 -95 86 -95 c 1
 86 -95 l 1
 71 -95 60 -82 63 -67 c 1
 63 -67 l 1
 66 -52 81 -39 96 -39 c 1
 96 -39 l 1
 152 -38 195 -8 236 54 c 1
 236 54 l 1
 275 115 305 205 323 305 c 1
 323 305 l 1
 340 405 342 495 324 556 c 1
 324 556 l 1
 305 618 274 649 217 649 c 1
 217 649 l 1
 202 649 192 662 194 677 c 1
 194 677 l 1
 197 693 212 705 227 705 c 1
 227 705 l 1
 228 705 228 705 229 705 c 1
 229 705 l 1
 309 705 359 653 379 580 c 0
EndSplineSet
EndChar

StartChar: plus
Encoding: 43 43 66
Width: 620
Flags: MW
HStem: 103 21G<266 272 266 267> 315 66<88 282 97 270 348 522 97 337>
LayerCount: 2
Fore
SplineSet
522 381 m 2
 540 381 554 366 554 348 c 0
 554 330 540 315 522 315 c 2
 337 315 l 1
 304 130 l 2
 301 114 288 103 272 103 c 0
 270 103 268 103 266 103 c 0
 249 107 237 123 240 141 c 2
 270 315 l 1
 97 315 l 2
 79 315 64 330 64 348 c 0
 64 366 79 381 97 381 c 2
 282 381 l 1
 315 566 l 2
 318 584 335 596 353 592 c 0
 370 589 382 572 379 555 c 2
 348 381 l 1
 522 381 l 2
EndSplineSet
EndChar

StartChar: less
Encoding: 60 60 67
Width: 620
Flags: MW
HStem: -1 21G<347 354>
LayerCount: 2
Fore
SplineSet
446 692 m 2
 458 702 476 701 486 689 c 0
 496 677 495 659 483 648 c 2
 129 345 l 1
 373 46 l 2
 383 33 381 15 369 5 c 0
 364 1 357 -1 351 -1 c 0
 343 -1 334 2 329 9 c 2
 66 331 l 2
 66 332 65 333 64 334 c 0
 64 335 64 335 64 335 c 1
 63 336 62 338 62 339 c 2
 61 340 l 1
 61 342 61 343 61 344 c 0
 60 345 60 345 60 346 c 0
 60 347 60 348 60 349 c 0
 60 350 60 351 60 351 c 2
 60 352 60 353 61 354 c 0
 61 355 61 356 61 357 c 0
 61 358 62 358 62 359 c 0
 62 360 63 361 63 362 c 0
 64 363 64 363 64 364 c 0
 65 365 66 366 66 367 c 1
 67 367 67 368 67 368 c 2
 68 369 69 370 70 371 c 2
 446 692 l 2
EndSplineSet
EndChar

StartChar: greater
Encoding: 62 62 68
Width: 620
Flags: MW
HStem: 1 21G<117 124>
LayerCount: 2
Fore
SplineSet
522 338 m 0
 521 337 521 337 521 336 c 0
 520 335 519 334 519 333 c 1
 518 333 518 332 517 332 c 1
 517 331 516 330 515 329 c 2
 139 8 l 2
 134 3 127 1 121 1 c 0
 113 1 105 4 99 11 c 0
 89 23 90 41 102 51 c 2
 456 354 l 1
 212 654 l 2
 202 666 204 684 216 694 c 0
 228 704 246 703 256 690 c 2
 519 369 l 2
 520 368 520 366 521 365 c 1
 521 365 l 1
 522 363 523 362 523 360 c 1
 523 360 524 360 524 359 c 0
 524 358 524 357 525 355 c 1
 525 354 l 2
 525 353 525 352 525 351 c 0
 525 350 525 349 525 348 c 0
 525 347 525 347 524 346 c 0
 524 345 524 344 524 343 c 0
 524 342 523 342 523 341 c 0
 523 340 522 339 522 338 c 0
EndSplineSet
EndChar

StartChar: A
Encoding: 65 65 69
Width: 646
Flags: MW
HStem: 0 21G<81 87 568 574.5 574 579> 182 49<224 508 224 518 197 508> 680 20G<438.5 468>
LayerCount: 2
Fore
SplineSet
518 182 m 1
 197 182 l 1
 104 13 l 2
 100 5 91 0 83 0 c 0
 79 0 75 1 71 3 c 0
 59 10 55 24 61 36 c 2
 421 687 l 2
 425 696 434 700 443 700 c 0
 455 700 466 692 468 680 c 2
 598 29 l 2
 600 16 592 3 579 0 c 0
 577 0 575 0 574 0 c 0
 562 0 552 8 550 20 c 2
 518 182 l 1
508 231 m 1
 433 608 l 1
 224 231 l 1
 508 231 l 1
EndSplineSet
EndChar

StartChar: period
Encoding: 46 46 70
Width: 230
Flags: MW
HStem: 0 115<137.5 152>
LayerCount: 2
Fore
SplineSet
201 58 m 0
 195 25 169 0 135 0 c 0
 102 0 82 25 88 58 c 0
 94 90 121 115 154 115 c 0
 188 115 207 90 201 58 c 0
EndSplineSet
EndChar

StartChar: question
Encoding: 63 63 71
Width: 534
Flags: MW
HStem: -1 21G<130.5 136.5> 653 46<215.5 247>
VStem: 385 47<512.5 517>
LayerCount: 2
Fore
SplineSet
139 68 m 0
 152 65 160 53 158 41 c 2
 154 19 l 2
 152 7 142 -1 131 -1 c 0
 130 -1 129 -1 127 0 c 0
 115 2 106 14 108 27 c 2
 112 49 l 2
 115 61 127 70 139 68 c 0
247 699 m 0
 300 699 346 680 379 647 c 0
 413 614 432 568 432 517 c 0
 432 505 430 492 428 479 c 0
 408 368 309 279 198 269 c 1
 179 158 l 2
 177 146 167 138 156 138 c 0
 155 138 153 138 152 139 c 0
 139 141 131 153 133 166 c 2
 155 291 l 2
 155 292 155 292 156 293 c 0
 157 305 167 314 179 314 c 0
 273 313 366 393 382 487 c 0
 384 498 385 508 385 517 c 0
 384 595 330 652 247 653 c 0
 184 653 121 618 82 566 c 0
 74 556 59 554 49 562 c 0
 39 569 37 584 45 594 c 0
 92 657 167 699 247 699 c 0
EndSplineSet
EndChar

StartChar: equal
Encoding: 61 61 72
Width: 620
Flags: MW
HStem: 210 57<99.5 477 107 477> 433 57<139 517 147 517>
LayerCount: 2
Fore
SplineSet
477 267 m 2
 494 267 506 254 506 239 c 0
 506 223 494 210 477 210 c 2
 107 210 l 2
 92 210 79 223 79 239 c 0
 79 254 92 267 107 267 c 2
 477 267 l 2
517 490 m 2
 532 490 545 477 545 462 c 0
 545 445 532 433 517 433 c 2
 147 433 l 2
 131 433 118 445 118 462 c 0
 118 477 131 490 147 490 c 2
 517 490 l 2
EndSplineSet
EndChar

StartChar: hyphen
Encoding: 45 45 73
AltUni2: 0000ad.ffffffff.0
Width: 408
Flags: MW
HStem: 328 38<79.5 85 85 85 85 298>
LayerCount: 2
Fore
SplineSet
85 328 m 1
 74 328 66 336 66 348 c 1
 66 348 l 1
 66 359 74 366 85 366 c 1
 85 366 l 1
 298 366 l 2
 308 366 317 359 317 348 c 1
 317 348 l 1
 317 336 308 328 298 328 c 1
 298 328 l 1
 85 328 l 1
 85 328 l 1
EndSplineSet
EndChar

StartChar: colon
Encoding: 58 58 74
Width: 240
Flags: MW
HStem: -1 71<122.5 130> 527 72<216 223>
LayerCount: 2
Fore
SplineSet
255 563 m 0
 252 543 233 527 213 527 c 0
 193 527 180 543 184 563 c 0
 187 583 206 599 226 599 c 0
 245 599 259 583 255 563 c 0
162 34 m 1
 158 15 140 -1 120 -1 c 0
 100 -1 87 15 91 34 c 1
 94 54 113 70 132 70 c 0
 152 70 165 54 162 34 c 1
EndSplineSet
EndChar

StartChar: semicolon
Encoding: 59 59 75
AltUni2: 00037e.ffffffff.0
Width: 240
Flags: MW
HStem: -103 21G<69.5 77.5> 529 71<226.5 233.5>
LayerCount: 2
Fore
SplineSet
237 600 m 0
 256 600 269 584 266 564 c 0
 263 545 243 529 224 529 c 0
 204 529 191 545 195 564 c 1
 198 584 216 600 237 600 c 0
60 -88 m 0
 60 -83 64 -78 69 -75 c 0
 107 -55 124 -33 124 2 c 1
 110 6 99 17 101 37 c 2
 103 58 l 2
 105 77 121 91 140 91 c 0
 159 91 171 77 169 58 c 2
 167 33 l 1
 161 -23 148 -53 128 -71 c 0
 109 -89 82 -103 73 -103 c 0
 66 -103 59 -98 60 -88 c 0
EndSplineSet
EndChar

StartChar: comma
Encoding: 44 44 76
Width: 230
Flags: MW
HStem: -104 21G<64.5 72.5> 70 20G<147 165>
LayerCount: 2
Fore
SplineSet
56 -89 m 0
 57 -84 61 -79 67 -76 c 0
 108 -56 126 -34 131 1 c 1
 117 5 107 16 111 36 c 2
 115 57 l 1
 120 75 138 90 156 90 c 0
 174 90 186 75 181 57 c 1
 176 32 l 2
 164 -24 149 -54 128 -72 c 1
 105 -90 77 -104 68 -104 c 0
 61 -104 54 -99 56 -89 c 0
EndSplineSet
EndChar

StartChar: quotesingle
Encoding: 39 39 77
Width: 230
Flags: MW
HStem: 509 21G<78.5 86.5> 683 20G<161 179>
LayerCount: 2
Fore
SplineSet
70 524 m 0
 71 529 75 534 81 537 c 0
 122 557 140 579 145 614 c 1
 131 618 121 629 125 649 c 2
 129 670 l 1
 134 688 152 703 170 703 c 0
 188 703 200 688 195 670 c 1
 190 645 l 2
 178 589 163 559 142 541 c 1
 119 523 91 509 82 509 c 0
 75 509 68 514 70 524 c 0
EndSplineSet
EndChar

StartChar: quotedbl
Encoding: 34 34 78
Width: 410
Flags: MW
HStem: 442 21G<79.5 88.5 259.5 268.5> 682 20G<128 147 147 151.5 308 327 327 331.5>
LayerCount: 2
Fore
SplineSet
250 461 m 2
 280 676 l 2
 283 694 292 702 308 702 c 2
 327 702 l 2
 336 702 343 697 343 685 c 0
 343 679 340 670 338 661 c 2
 281 460 l 2
 277 447 273 442 264 442 c 0
 255 442 248 446 250 461 c 2
70 461 m 2
 100 676 l 2
 103 694 112 702 128 702 c 2
 147 702 l 2
 156 702 163 697 163 685 c 0
 163 679 160 670 158 661 c 2
 101 460 l 2
 97 447 93 442 84 442 c 0
 75 442 68 446 70 461 c 2
EndSplineSet
EndChar

StartChar: underscore
Encoding: 95 95 79
Width: 600
Flags: MW
HStem: -160 44<-11 612 8 599>
LayerCount: 2
Fore
SplineSet
-5 -160 m 2
 -17 -160 -24 -150 -20 -138 c 0
 -17 -126 -4 -116 8 -116 c 2
 612 -116 l 2
 624 -116 631 -126 628 -138 c 0
 624 -150 611 -160 599 -160 c 2
 -5 -160 l 2
EndSplineSet
EndChar

StartChar: asterisk
Encoding: 42 42 80
Width: 430
Flags: MW
HStem: 400 21G<196 208> 684 20G<250 262>
LayerCount: 2
Fore
SplineSet
186 422 m 2
 213 531 l 1
 111 469 l 2
 105 465 100 463 94 463 c 0
 83 463 76 473 78 484 c 0
 80 493 88 500 95 503 c 2
 207 552 l 1
 113 601 l 2
 105 605 100 611 102 620 c 0
 104 631 114 640 126 641 c 0
 133 641 135 639 141 635 c 2
 221 573 l 1
 232 682 l 2
 233 694 244 704 256 704 c 0
 268 704 275 694 272 682 c 2
 245 573 l 1
 347 635 l 2
 353 639 358 641 364 641 c 0
 375 641 382 631 380 620 c 0
 378 609 370 604 363 601 c 2
 251 552 l 1
 345 503 l 2
 352 500 358 495 356 484 c 0
 354 473 343 463 332 463 c 0
 326 463 323 465 317 469 c 2
 237 531 l 1
 226 422 l 2
 225 410 214 400 202 400 c 0
 190 400 183 410 186 422 c 2
EndSplineSet
EndChar

StartChar: at
Encoding: 64 64 81
Width: 980
Flags: MW
HStem: 0 48<350 363 350 365> 162 49<379 379> 488 49<400 458.5 435 458.5> 651 49<382 508>
VStem: 53 49<251.5 301.5 223 303> 228 48<319 323.5 319 325> 539 49<375.5 380> 714 49<397.5 406>
LayerCount: 2
Fore
SplineSet
136 84 m 0
 83 137 53 210 53 293 c 0
 53 313 55 333 58 354 c 0
 93 546 272 699 465 700 c 0
 551 700 626 668 679 615 c 0
 732 563 763 489 763 406 c 0
 763 387 761 366 757 345 c 0
 747 288 724 234 691 186 c 1
 689 185 652 131 591 115 c 0
 584 114 577 113 571 113 c 0
 550 112 532 122 521 136 c 0
 511 149 508 165 508 180 c 2
 508 192 l 1
 512 216 l 1
 475 183 428 162 379 162 c 0
 335 162 297 179 270 208 c 0
 243 237 227 276 228 319 c 0
 228 331 228 342 231 354 c 0
 249 455 338 536 437 537 c 0
 480 537 519 520 546 491 c 0
 573 463 588 423 588 380 c 0
 588 369 587 357 585 345 c 0
 584 342 584 340 583 337 c 1
 583 334 l 1
 557 185 l 2
 557 183 556 181 556 180 c 0
 556 173 558 168 560 166 c 0
 562 163 563 162 571 162 c 0
 573 162 576 162 580 163 c 0
 612 169 644 205 650 214 c 0
 651 214 651 215 651 215 c 1
 680 257 701 304 709 354 c 0
 712 372 714 389 714 406 c 0
 713 547 613 650 465 651 c 1
 299 651 135 513 106 345 c 0
 103 327 102 310 102 293 c 0
 102 153 202 49 350 48 c 0
 376 48 402 52 427 58 c 0
 440 61 453 53 456 40 c 0
 460 27 452 13 438 10 c 0
 410 3 380 0 350 0 c 0
 264 0 189 31 136 84 c 0
279 345 m 0
 277 336 276 328 276 319 c 0
 277 255 318 212 379 211 c 0
 450 210 524 275 537 354 c 0
 539 363 539 371 539 380 c 0
 538 444 498 487 437 488 c 1
 435 488 l 2
 365 488 292 423 279 345 c 0
EndSplineSet
EndChar

StartChar: backslash
Encoding: 92 92 82
Width: 500
Flags: MW
HStem: 2 21G<305.5 310 310 310>
LayerCount: 2
Fore
SplineSet
320 3 m 1
 320 3 l 1
 317 2 314 2 310 2 c 1
 310 2 l 1
 301 2 292 7 288 17 c 2
 15 665 l 1
 15 665 l 1
 9 678 15 692 28 697 c 1
 28 697 l 1
 41 702 54 696 60 684 c 2
 333 36 l 1
 333 36 l 1
 338 23 332 9 320 3 c 1
EndSplineSet
EndChar

StartChar: quotedblleft
Encoding: 8220 8220 83
Width: 410
Flags: MW
HStem: 509 21G<98 116 278 296> 683 20G<190.5 198.5 370.5 378.5>
LayerCount: 2
Fore
SplineSet
387 688 m 0
 386 683 382 678 376 675 c 0
 335 655 317 633 312 598 c 1
 326 594 336 583 332 563 c 2
 328 542 l 1
 323 524 305 509 287 509 c 0
 269 509 257 524 262 542 c 1
 267 567 l 2
 279 623 294 653 315 671 c 1
 338 689 366 703 375 703 c 0
 382 703 389 698 387 688 c 0
207 688 m 0
 206 683 202 678 196 675 c 0
 155 655 137 633 132 598 c 1
 146 594 156 583 152 563 c 2
 148 542 l 1
 143 524 125 509 107 509 c 0
 89 509 77 524 82 542 c 1
 87 567 l 2
 99 623 114 653 135 671 c 1
 158 689 186 703 195 703 c 0
 202 703 209 698 207 688 c 0
EndSplineSet
EndChar

StartChar: quotedblright
Encoding: 8221 8221 84
Width: 410
Flags: MW
HStem: 509 21G<69.5 77.5 249.5 257.5> 683 20G<152 170 332 350>
LayerCount: 2
Fore
SplineSet
61 524 m 0
 62 529 66 534 72 537 c 0
 113 557 131 579 136 614 c 1
 122 618 112 629 116 649 c 2
 120 670 l 1
 125 688 143 703 161 703 c 0
 179 703 191 688 186 670 c 1
 181 645 l 2
 169 589 154 559 133 541 c 1
 110 523 82 509 73 509 c 0
 66 509 59 514 61 524 c 0
241 524 m 0
 242 529 246 534 252 537 c 0
 293 557 311 579 316 614 c 1
 302 618 292 629 296 649 c 2
 300 670 l 1
 305 688 323 703 341 703 c 0
 359 703 371 688 366 670 c 1
 361 645 l 2
 349 589 334 559 313 541 c 1
 290 523 262 509 253 509 c 0
 246 509 239 514 241 524 c 0
EndSplineSet
EndChar

StartChar: quoteleft
Encoding: 8216 8216 86
Width: 230
Flags: MW
HStem: 509 21G<190.5 198.5> 683 20G<98 116>
LayerCount: 2
Fore
SplineSet
207 524 m 0
 209 514 202 509 195 509 c 0
 186 509 158 523 135 541 c 1
 114 559 99 589 87 645 c 2
 82 670 l 1
 77 688 89 703 107 703 c 0
 125 703 143 688 148 670 c 1
 152 649 l 2
 156 629 146 618 132 614 c 1
 137 579 155 557 196 537 c 0
 202 534 206 529 207 524 c 0
EndSplineSet
EndChar

StartChar: quoteright
Encoding: 8217 8217 87
Width: 230
Flags: MW
HStem: 509 21G<69.5 77.5> 683 20G<152 170>
LayerCount: 2
Fore
SplineSet
61 524 m 0
 62 529 66 534 72 537 c 0
 113 557 131 579 136 614 c 1
 122 618 112 629 116 649 c 2
 120 670 l 1
 125 688 143 703 161 703 c 0
 179 703 191 688 186 670 c 1
 181 645 l 2
 169 589 154 559 133 541 c 1
 110 523 82 509 73 509 c 0
 66 509 59 514 61 524 c 0
EndSplineSet
EndChar

StartChar: E
Encoding: 69 69 88
Width: 593
Flags: MW
HStem: -2 49<126 491 126 491 130 491 131 491 159 491 159 491> 323 49<217 507 217 507 208 507> 649 49<266 606 266 266>
LayerCount: 2
Fore
SplineSet
126 -2 m 0
 113 1 104 13 106 27 c 2
 221 678 l 2
 223 690 234 698 246 698 c 2
 247 698 l 1
 606 698 l 2
 619 698 630 687 630 673 c 0
 630 660 619 649 606 649 c 2
 266 649 l 1
 217 372 l 1
 507 372 l 2
 520 372 531 361 531 348 c 0
 531 334 520 323 507 323 c 2
 208 323 l 1
 159 47 l 1
 491 47 l 2
 504 47 515 36 515 22 c 0
 515 9 504 -2 491 -2 c 2
 132 -2 l 1
 132 -2 132 -2 131 -2 c 2
 131 -2 131 -2 130 -2 c 0
 129 -2 128 -2 126 -2 c 0
EndSplineSet
EndChar

StartChar: slash
Encoding: 47 47 89
Width: 500
Flags: MW
HStem: 0 21G<20 22 22 22>
LayerCount: 2
Fore
SplineSet
12 1 m 0
 0 7 -6 21 -1 34 c 1
 -1 34 l 1
 272 682 l 2
 278 694 291 700 304 695 c 1
 304 695 l 1
 317 690 323 676 317 663 c 1
 317 663 l 1
 44 15 l 2
 40 5 31 0 22 0 c 1
 22 0 l 1
 18 0 15 0 12 1 c 0
EndSplineSet
EndChar

StartChar: grave
Encoding: 96 96 90
Width: 500
Flags: MW
HStem: 592 21G<264.5 274.5> 703 20G<199.5 215>
LayerCount: 2
Fore
SplineSet
271 592 m 0
 258 592 251 594 241 605 c 2
 172 682 l 2
 167 688 163 694 164 700 c 0
 165 710 190 723 209 723 c 0
 221 723 228 717 234 705 c 2
 283 612 l 2
 285 609 286 605 285 601 c 1
 285 596 278 592 271 592 c 0
EndSplineSet
EndChar

StartChar: acute
Encoding: 180 180 91
Width: 500
Flags: MW
HStem: 592 21G<212.5 222.5> 703 20G<272 287.5>
LayerCount: 2
Fore
SplineSet
216 592 m 0
 209 592 202 596 202 601 c 1
 201 605 202 609 204 612 c 2
 253 705 l 2
 259 717 266 723 278 723 c 0
 297 723 322 710 323 700 c 0
 324 694 320 688 315 682 c 2
 246 605 l 2
 236 594 229 592 216 592 c 0
EndSplineSet
EndChar

StartChar: tilde
Encoding: 732 732 92
Width: 500
Flags: MW
HStem: 584 21G<117 127> 595 52<304 332 304 332> 636 52<181 209> 679 20G<386.5 396>
LayerCount: 2
Fore
SplineSet
142 598 m 0xa0
 138 592 132 584 122 584 c 0
 112 584 105 591 106 601 c 0
 107 604 108 610 110 613 c 0
 136 671 163 688 199 688 c 0xa0
 237 688 287 647 321 647 c 0
 343 647 356 658 371 685 c 0
 375 691 382 699 391 699 c 0
 401 699 408 692 407 682 c 0
 407 679 405 673 403 670 c 0
 377 612 350 595 314 595 c 0x50
 276 595 226 636 192 636 c 0
 170 636 157 625 142 598 c 0xa0
EndSplineSet
EndChar

StartChar: Agrave
Encoding: 192 192 93
Width: 790
Flags: MW
HStem: 0 21G<82 88 569 575.5 575 580> 182 49<225 509 225 519 198 509> 680 20G<439.5 469> 903 20G<450.5 466>
LayerCount: 2
Fore
SplineSet
519 182 m 1
 198 182 l 1
 105 13 l 2
 101 5 92 0 84 0 c 0
 80 0 76 1 72 3 c 0
 60 10 56 24 62 36 c 2
 422 687 l 2
 426 696 435 700 444 700 c 0
 456 700 467 692 469 680 c 2
 599 29 l 2
 601 16 593 3 580 0 c 0
 578 0 576 0 575 0 c 0
 563 0 553 8 551 20 c 2
 519 182 l 1
509 231 m 1
 434 608 l 1
 225 231 l 1
 509 231 l 1
522 792 m 0
 509 792 502 794 492 805 c 2
 423 882 l 2
 418 888 414 894 415 900 c 0
 416 910 441 923 460 923 c 0
 472 923 479 917 485 905 c 2
 534 812 l 2
 536 809 537 805 536 801 c 1
 536 796 529 792 522 792 c 0
EndSplineSet
EndChar

StartChar: Aacute
Encoding: 193 193 94
Width: 790
Flags: MW
HStem: 0 21G<82 88 569 575.5 575 580> 182 49<225 509 225 519 198 509> 680 20G<439.5 469> 903 20G<476 491.5>
LayerCount: 2
Fore
SplineSet
519 182 m 1
 198 182 l 1
 105 13 l 2
 101 5 92 0 84 0 c 0
 80 0 76 1 72 3 c 0
 60 10 56 24 62 36 c 2
 422 687 l 2
 426 696 435 700 444 700 c 0
 456 700 467 692 469 680 c 2
 599 29 l 2
 601 16 593 3 580 0 c 0
 578 0 576 0 575 0 c 0
 563 0 553 8 551 20 c 2
 519 182 l 1
509 231 m 1
 434 608 l 1
 225 231 l 1
 509 231 l 1
420 792 m 0
 413 792 406 796 406 801 c 1
 405 805 406 809 408 812 c 2
 457 905 l 2
 463 917 470 923 482 923 c 0
 501 923 526 910 527 900 c 0
 528 894 524 888 519 882 c 2
 450 805 l 2
 440 794 433 792 420 792 c 0
EndSplineSet
EndChar

StartChar: circumflex
Encoding: 710 710 95
Width: 500
Flags: MW
HStem: 592 21G<149 159.5 337.5 348.5> 700 20G<262 270 270 276>
LayerCount: 2
Fore
SplineSet
257 663 m 1
 187 605 l 2
 173 594 166 592 153 592 c 0
 145 592 141 597 141 602 c 1
 142 606 143 609 148 614 c 2
 232 702 l 2
 242 713 250 720 262 720 c 2
 270 720 l 2
 282 720 288 713 296 702 c 2
 356 614 l 2
 359 609 360 606 359 602 c 1
 359 597 353 592 344 592 c 0
 331 592 323 594 313 605 c 2
 257 663 l 1
EndSplineSet
EndChar

StartChar: Atilde
Encoding: 195 195 96
Width: 790
Flags: MW
HStem: 0 21G<82 88 569 575.5 575 580> 182 49<225 509 225 519 198 509> 680 20G<439.5 469> 795 52<532 560 532 560> 836 52<409 437> 879 20G<614.5 624>
LayerCount: 2
Fore
SplineSet
519 182 m 1xe8
 198 182 l 1
 105 13 l 2
 101 5 92 0 84 0 c 0
 80 0 76 1 72 3 c 0
 60 10 56 24 62 36 c 2
 422 687 l 2
 426 696 435 700 444 700 c 0
 456 700 467 692 469 680 c 2
 599 29 l 2
 601 16 593 3 580 0 c 0
 578 0 576 0 575 0 c 0
 563 0 553 8 551 20 c 2
 519 182 l 1xe8
509 231 m 1
 434 608 l 1
 225 231 l 1
 509 231 l 1
370 798 m 0
 366 792 360 784 350 784 c 0
 340 784 333 791 334 801 c 0
 335 804 336 810 338 813 c 0
 364 871 391 888 427 888 c 0xe8
 465 888 515 847 549 847 c 0
 571 847 584 858 599 885 c 0
 603 891 610 899 619 899 c 0
 629 899 636 892 635 882 c 0
 635 879 633 873 631 870 c 0
 605 812 578 795 542 795 c 0xf4
 504 795 454 836 420 836 c 0
 398 836 385 825 370 798 c 0
EndSplineSet
EndChar

StartChar: Egrave
Encoding: 200 200 97
Width: 670
Flags: MW
HStem: -2 49<126 491 126 491 130 491 131 491 159 491 159 491> 323 49<217 507 217 507 208 507> 649 49<266 606 266 266> 903 20G<419.5 435>
LayerCount: 2
Fore
SplineSet
126 -2 m 0
 113 1 104 13 106 27 c 2
 221 678 l 2
 223 690 234 698 246 698 c 2
 247 698 l 1
 606 698 l 2
 619 698 630 687 630 673 c 0
 630 660 619 649 606 649 c 2
 266 649 l 1
 217 372 l 1
 507 372 l 2
 520 372 531 361 531 348 c 0
 531 334 520 323 507 323 c 2
 208 323 l 1
 159 47 l 1
 491 47 l 2
 504 47 515 36 515 22 c 0
 515 9 504 -2 491 -2 c 2
 132 -2 l 1
 132 -2 132 -2 131 -2 c 2
 131 -2 131 -2 130 -2 c 0
 129 -2 128 -2 126 -2 c 0
491 792 m 0
 478 792 471 794 461 805 c 2
 392 882 l 2
 387 888 383 894 384 900 c 0
 385 910 410 923 429 923 c 0
 441 923 448 917 454 905 c 2
 503 812 l 2
 505 809 506 805 505 801 c 1
 505 796 498 792 491 792 c 0
EndSplineSet
EndChar

StartChar: Eacute
Encoding: 201 201 98
Width: 670
Flags: MW
HStem: -2 49<126 491 126 491 130 491 131 491 159 491 159 491> 323 49<217 507 217 507 208 507> 649 49<266 606 266 266> 903 20G<488 503.5>
LayerCount: 2
Fore
SplineSet
126 -2 m 0
 113 1 104 13 106 27 c 2
 221 678 l 2
 223 690 234 698 246 698 c 2
 247 698 l 1
 606 698 l 2
 619 698 630 687 630 673 c 0
 630 660 619 649 606 649 c 2
 266 649 l 1
 217 372 l 1
 507 372 l 2
 520 372 531 361 531 348 c 0
 531 334 520 323 507 323 c 2
 208 323 l 1
 159 47 l 1
 491 47 l 2
 504 47 515 36 515 22 c 0
 515 9 504 -2 491 -2 c 2
 132 -2 l 1
 132 -2 132 -2 131 -2 c 2
 131 -2 131 -2 130 -2 c 0
 129 -2 128 -2 126 -2 c 0
432 792 m 0
 425 792 418 796 418 801 c 1
 417 805 418 809 420 812 c 2
 469 905 l 2
 475 917 482 923 494 923 c 0
 513 923 538 910 539 900 c 0
 540 894 536 888 531 882 c 2
 462 805 l 2
 452 794 445 792 432 792 c 0
EndSplineSet
EndChar

StartChar: Igrave
Encoding: 204 204 99
Width: 274
Flags: MW
HStem: -2 21G<37 41 37 37.5> 903 20G<130.5 146>
LayerCount: 2
Fore
SplineSet
41 -2 m 0
 40 -2 38 -2 37 -2 c 0
 23 0 15 13 17 26 c 2
 132 677 l 2
 134 691 147 699 160 697 c 0
 173 695 182 682 180 669 c 2
 65 18 l 2
 63 6 53 -2 41 -2 c 0
202 792 m 0
 189 792 182 794 172 805 c 2
 103 882 l 2
 98 888 94 894 95 900 c 0
 96 910 121 923 140 923 c 0
 152 923 159 917 165 905 c 2
 214 812 l 2
 216 809 217 805 216 801 c 1
 216 796 209 792 202 792 c 0
EndSplineSet
EndChar

StartChar: Iacute
Encoding: 205 205 100
Width: 274
Flags: MW
HStem: -2 21G<133 137 133 133.5> 903 20G<277 292.5>
LayerCount: 2
Fore
SplineSet
137 -2 m 0
 136 -2 134 -2 133 -2 c 0
 119 0 111 13 113 26 c 2
 228 677 l 2
 230 691 243 699 256 697 c 0
 269 695 278 682 276 669 c 2
 161 18 l 2
 159 6 149 -2 137 -2 c 0
221 792 m 0
 214 792 207 796 207 801 c 1
 206 805 207 809 209 812 c 2
 258 905 l 2
 264 917 271 923 283 923 c 0
 302 923 327 910 328 900 c 0
 329 894 325 888 320 882 c 2
 251 805 l 2
 241 794 234 792 221 792 c 0
EndSplineSet
EndChar

StartChar: Icircumflex
Encoding: 206 206 101
Width: 274
Flags: MW
HStem: -2 21G<50 54 50 50.5> 900 20G<200 208 208 214>
LayerCount: 2
Fore
SplineSet
54 -2 m 0
 53 -2 51 -2 50 -2 c 0
 36 0 28 13 30 26 c 2
 145 677 l 2
 147 691 160 699 173 697 c 0
 186 695 195 682 193 669 c 2
 78 18 l 2
 76 6 66 -2 54 -2 c 0
195 863 m 1
 125 805 l 2
 111 794 104 792 91 792 c 0
 83 792 79 797 79 802 c 1
 80 806 81 809 86 814 c 2
 170 902 l 2
 180 913 188 920 200 920 c 2
 208 920 l 2
 220 920 226 913 234 902 c 2
 294 814 l 2
 297 809 298 806 297 802 c 1
 297 797 291 792 282 792 c 0
 269 792 261 794 251 805 c 2
 195 863 l 1
EndSplineSet
EndChar

StartChar: Idieresis
Encoding: 207 207 102
Width: 274
Flags: MW
HStem: -2 21G<42 46 42 42.5>
LayerCount: 2
Fore
SplineSet
46 -2 m 0
 45 -2 43 -2 42 -2 c 0
 28 0 20 13 22 26 c 2
 137 677 l 2
 139 691 152 699 165 697 c 0
 178 695 187 682 185 669 c 2
 70 18 l 2
 68 6 58 -2 46 -2 c 0
EndSplineSet
EndChar

StartChar: Ntilde
Encoding: 209 209 103
Width: 790
Flags: MW
HStem: 2 21G<126 130 126 126.5 596 600 596 596.5> 795 52<586 614 586 614> 836 52<463 491> 879 20G<668.5 678>
LayerCount: 2
Fore
SplineSet
106 30 m 2xa0
 220 678 l 2
 221 678 221 679 221 679 c 1
 221 687 226 694 233 699 c 1
 245 705 260 701 266 689 c 2
 588 98 l 1
 690 678 l 2
 692 691 705 700 718 698 c 0
 732 695 740 683 738 669 c 2
 624 22 l 2
 622 10 611 2 600 2 c 0
 598 2 597 2 596 2 c 0
 588 3 582 8 578 14 c 1
 578 16 577 17 576 18 c 2
 257 604 l 1
 154 22 l 2
 152 10 142 2 130 2 c 0
 129 2 127 2 126 2 c 0
 113 4 104 17 106 30 c 2xa0
424 798 m 0
 420 792 414 784 404 784 c 0
 394 784 387 791 388 801 c 0
 389 804 390 810 392 813 c 0
 418 871 445 888 481 888 c 0xa0
 519 888 569 847 603 847 c 0
 625 847 638 858 653 885 c 0
 657 891 664 899 673 899 c 0
 683 899 690 892 689 882 c 0
 689 879 687 873 685 870 c 0
 659 812 632 795 596 795 c 0xd0
 558 795 508 836 474 836 c 0
 452 836 439 825 424 798 c 0
EndSplineSet
EndChar

StartChar: Ograve
Encoding: 210 210 104
Width: 850
Flags: MW
HStem: 0 48<311.5 429.5 352 429.5> 651 49<388 507.5 465 507.5> 903 20G<524.5 540>
VStem: 73 49<289 298 289 299.5> 697 49<401 410>
LayerCount: 2
Fore
SplineSet
467 700 m 0
 548 700 619 668 668 616 c 0
 717 564 746 491 746 410 c 0
 746 389 744 367 740 345 c 1
 716 350 l 1
 740 345 l 1
 705 154 535 0 352 0 c 1
 352 0 l 1
 271 0 200 31 151 83 c 0
 101 135 73 208 73 289 c 0
 73 310 75 332 79 354 c 0
 113 545 283 699 467 700 c 0
692 354 m 0
 695 373 697 392 697 410 c 0
 696 549 603 650 467 651 c 0
 466 651 466 651 465 651 c 0
 311 651 156 513 127 345 c 0
 124 326 122 307 122 289 c 0
 123 150 216 49 352 48 c 1
 507 48 663 185 692 354 c 0
596 792 m 0
 583 792 576 794 566 805 c 2
 497 882 l 2
 492 888 488 894 489 900 c 0
 490 910 515 923 534 923 c 0
 546 923 553 917 559 905 c 2
 608 812 l 2
 610 809 611 805 610 801 c 1
 610 796 603 792 596 792 c 0
EndSplineSet
EndChar

StartChar: Oacute
Encoding: 211 211 105
Width: 850
Flags: MW
HStem: 0 48<311.5 429.5 352 429.5> 651 49<388 507.5 465 507.5> 903 20G<521 536.5>
VStem: 73 49<289 298 289 299.5> 697 49<401 410>
LayerCount: 2
Fore
SplineSet
467 700 m 0
 548 700 619 668 668 616 c 0
 717 564 746 491 746 410 c 0
 746 389 744 367 740 345 c 1
 716 350 l 1
 740 345 l 1
 705 154 535 0 352 0 c 1
 352 0 l 1
 271 0 200 31 151 83 c 0
 101 135 73 208 73 289 c 0
 73 310 75 332 79 354 c 0
 113 545 283 699 467 700 c 0
692 354 m 0
 695 373 697 392 697 410 c 0
 696 549 603 650 467 651 c 0
 466 651 466 651 465 651 c 0
 311 651 156 513 127 345 c 0
 124 326 122 307 122 289 c 0
 123 150 216 49 352 48 c 1
 507 48 663 185 692 354 c 0
465 792 m 0
 458 792 451 796 451 801 c 1
 450 805 451 809 453 812 c 2
 502 905 l 2
 508 917 515 923 527 923 c 0
 546 923 571 910 572 900 c 0
 573 894 569 888 564 882 c 2
 495 805 l 2
 485 794 478 792 465 792 c 0
EndSplineSet
EndChar

StartChar: Ocircumflex
Encoding: 212 212 106
Width: 850
Flags: MW
HStem: 0 48<311.5 429.5 352 429.5> 651 49<388 507.5 465 507.5> 700 92<425 507.5> 900 20G<538 546 546 552>
VStem: 73 49<289 298 289 299.5> 697 49<401 410>
LayerCount: 2
Fore
SplineSet
467 700 m 0
 548 700 619 668 668 616 c 0
 717 564 746 491 746 410 c 0
 746 389 744 367 740 345 c 1
 716 350 l 1
 740 345 l 1
 705 154 535 0 352 0 c 1
 352 0 l 1
 271 0 200 31 151 83 c 0
 101 135 73 208 73 289 c 0
 73 310 75 332 79 354 c 0
 113 545 283 699 467 700 c 0
692 354 m 0
 695 373 697 392 697 410 c 0
 696 549 603 650 467 651 c 0
 466 651 466 651 465 651 c 0
 311 651 156 513 127 345 c 0
 124 326 122 307 122 289 c 0
 123 150 216 49 352 48 c 1
 507 48 663 185 692 354 c 0
533 863 m 1
 463 805 l 2
 449 794 442 792 429 792 c 0
 421 792 417 797 417 802 c 1
 418 806 419 809 424 814 c 2
 508 902 l 2
 518 913 526 920 538 920 c 2
 546 920 l 2
 558 920 564 913 572 902 c 2
 632 814 l 2
 635 809 636 806 635 802 c 1
 635 797 629 792 620 792 c 0xbc
 607 792 599 794 589 805 c 2
 533 863 l 1
EndSplineSet
EndChar

StartChar: Otilde
Encoding: 213 213 107
Width: 850
Flags: MW
HStem: 0 48<311.5 429.5 352 429.5> 651 49<388 507.5 465 507.5> 795 52<585 613 585 613> 836 52<462 490> 879 20G<667.5 677>
VStem: 73 49<289 298 289 299.5> 697 49<401 410>
LayerCount: 2
Fore
SplineSet
467 700 m 0xd6
 548 700 619 668 668 616 c 0
 717 564 746 491 746 410 c 0
 746 389 744 367 740 345 c 1
 716 350 l 1
 740 345 l 1
 705 154 535 0 352 0 c 1
 352 0 l 1
 271 0 200 31 151 83 c 0
 101 135 73 208 73 289 c 0
 73 310 75 332 79 354 c 0
 113 545 283 699 467 700 c 0xd6
692 354 m 0
 695 373 697 392 697 410 c 0
 696 549 603 650 467 651 c 0
 466 651 466 651 465 651 c 0
 311 651 156 513 127 345 c 0
 124 326 122 307 122 289 c 0
 123 150 216 49 352 48 c 1
 507 48 663 185 692 354 c 0
423 798 m 0
 419 792 413 784 403 784 c 0
 393 784 386 791 387 801 c 0
 388 804 389 810 391 813 c 0
 417 871 444 888 480 888 c 0xd6
 518 888 568 847 602 847 c 0
 624 847 637 858 652 885 c 0
 656 891 663 899 672 899 c 0
 682 899 689 892 688 882 c 0
 688 879 686 873 684 870 c 0
 658 812 631 795 595 795 c 0xee
 557 795 507 836 473 836 c 0
 451 836 438 825 423 798 c 0
EndSplineSet
EndChar

StartChar: Ugrave
Encoding: 217 217 108
Width: 760
Flags: MW
HStem: 1 49<334 334 335 335> 903 20G<451.5 467>
VStem: 93 49<239 245.5 239 247>
LayerCount: 2
Fore
SplineSet
712 701 m 0
 725 698 734 686 732 672 c 2
 662 280 l 2
 634 125 490 2 335 1 c 0
 334 1 334 1 334 1 c 2
 265 1 204 27 161 69 c 0
 118 112 93 172 93 239 c 0
 93 255 95 271 98 288 c 2
 167 681 l 2
 169 694 182 703 195 701 c 0
 209 698 217 686 215 672 c 2
 146 280 l 2
 143 266 142 252 142 239 c 0
 143 130 220 51 335 50 c 0
 464 49 592 158 614 288 c 1
 684 681 l 2
 686 694 699 703 712 701 c 0
523 792 m 0
 510 792 503 794 493 805 c 2
 424 882 l 2
 419 888 415 894 416 900 c 0
 417 910 442 923 461 923 c 0
 473 923 480 917 486 905 c 2
 535 812 l 2
 537 809 538 805 537 801 c 1
 537 796 530 792 523 792 c 0
EndSplineSet
EndChar

StartChar: Uacute
Encoding: 218 218 109
Width: 760
Flags: MW
HStem: 1 49<334 334 335 335> 903 20G<507 522.5>
VStem: 93 49<239 245.5 239 247>
LayerCount: 2
Fore
SplineSet
712 701 m 0
 725 698 734 686 732 672 c 2
 662 280 l 2
 634 125 490 2 335 1 c 0
 334 1 334 1 334 1 c 2
 265 1 204 27 161 69 c 0
 118 112 93 172 93 239 c 0
 93 255 95 271 98 288 c 2
 167 681 l 2
 169 694 182 703 195 701 c 0
 209 698 217 686 215 672 c 2
 146 280 l 2
 143 266 142 252 142 239 c 0
 143 130 220 51 335 50 c 0
 464 49 592 158 614 288 c 1
 684 681 l 2
 686 694 699 703 712 701 c 0
451 792 m 0
 444 792 437 796 437 801 c 1
 436 805 437 809 439 812 c 2
 488 905 l 2
 494 917 501 923 513 923 c 0
 532 923 557 910 558 900 c 0
 559 894 555 888 550 882 c 2
 481 805 l 2
 471 794 464 792 451 792 c 0
EndSplineSet
EndChar

StartChar: Ucircumflex
Encoding: 219 219 110
Width: 760
Flags: MW
HStem: 1 49<334 334 335 335> 900 20G<505 513 513 519>
VStem: 93 49<239 245.5 239 247>
LayerCount: 2
Fore
SplineSet
712 701 m 0
 725 698 734 686 732 672 c 2
 662 280 l 2
 634 125 490 2 335 1 c 0
 334 1 334 1 334 1 c 2
 265 1 204 27 161 69 c 0
 118 112 93 172 93 239 c 0
 93 255 95 271 98 288 c 2
 167 681 l 2
 169 694 182 703 195 701 c 0
 209 698 217 686 215 672 c 2
 146 280 l 2
 143 266 142 252 142 239 c 0
 143 130 220 51 335 50 c 0
 464 49 592 158 614 288 c 1
 684 681 l 2
 686 694 699 703 712 701 c 0
500 863 m 1
 430 805 l 2
 416 794 409 792 396 792 c 0
 388 792 384 797 384 802 c 1
 385 806 386 809 391 814 c 2
 475 902 l 2
 485 913 493 920 505 920 c 2
 513 920 l 2
 525 920 531 913 539 902 c 2
 599 814 l 2
 602 809 603 806 602 802 c 1
 602 797 596 792 587 792 c 0
 574 792 566 794 556 805 c 2
 500 863 l 1
EndSplineSet
EndChar

StartChar: Yacute
Encoding: 221 221 111
Width: 716
Flags: MW
HStem: -1 21G<203 208 203 204> 903 20G<420 435.5>
LayerCount: 2
Fore
SplineSet
581 658 m 2
 287 334 l 1
 232 19 l 2
 230 7 219 -1 208 -1 c 0
 206 -1 205 -1 203 -1 c 0
 190 1 181 14 183 27 c 2
 239 341 l 1
 61 662 l 2
 54 674 59 689 70 695 c 0
 82 702 97 698 104 686 c 2
 269 387 l 1
 544 690 l 2
 553 700 569 701 579 692 c 0
 589 683 590 668 581 658 c 2
364 792 m 0
 357 792 350 796 350 801 c 1
 349 805 350 809 352 812 c 2
 401 905 l 2
 407 917 414 923 426 923 c 0
 445 923 470 910 471 900 c 0
 472 894 468 888 463 882 c 2
 394 805 l 2
 384 794 377 792 364 792 c 0
EndSplineSet
EndChar

StartChar: agrave
Encoding: 224 224 112
Width: 574
Flags: MW
HStem: 0 48<258 258> 440 48<284.5 364.5 335 364.5> 703 20G<401.5 417>
VStem: 63 47<203 209 203 210.5>
LayerCount: 2
Fore
SplineSet
258 0 m 1
 201 0 152 22 117 59 c 0
 82 96 63 146 63 203 c 0
 63 218 64 233 67 248 c 0
 91 380 207 487 336 488 c 0
 393 488 442 466 477 429 c 0
 488 417 498 404 506 389 c 1
 520 468 l 2
 522 481 534 490 547 488 c 0
 560 485 569 473 567 460 c 2
 489 20 l 2
 487 8 477 0 465 0 c 0
 464 0 463 0 461 0 c 0
 448 3 440 15 442 28 c 2
 453 92 l 1
 403 36 333 1 258 0 c 1
 258 0 l 1
114 240 m 0
 111 227 110 215 110 203 c 0
 111 113 171 49 258 48 c 0
 359 47 462 137 481 248 c 1
 481 248 l 1
 483 261 484 273 484 285 c 0
 483 375 425 439 336 440 c 1
 335 440 l 2
 234 440 133 350 114 240 c 0
473 592 m 0
 460 592 453 594 443 605 c 2
 374 682 l 2
 369 688 365 694 366 700 c 0
 367 710 392 723 411 723 c 0
 423 723 430 717 436 705 c 2
 485 612 l 2
 487 609 488 605 487 601 c 1
 487 596 480 592 473 592 c 0
EndSplineSet
EndChar

StartChar: aacute
Encoding: 225 225 113
Width: 574
Flags: MW
HStem: 0 48<258 258> 440 48<284.5 364.5 335 364.5> 703 20G<357 372.5>
VStem: 63 47<203 209 203 210.5>
LayerCount: 2
Fore
SplineSet
258 0 m 1
 201 0 152 22 117 59 c 0
 82 96 63 146 63 203 c 0
 63 218 64 233 67 248 c 0
 91 380 207 487 336 488 c 0
 393 488 442 466 477 429 c 0
 488 417 498 404 506 389 c 1
 520 468 l 2
 522 481 534 490 547 488 c 0
 560 485 569 473 567 460 c 2
 489 20 l 2
 487 8 477 0 465 0 c 0
 464 0 463 0 461 0 c 0
 448 3 440 15 442 28 c 2
 453 92 l 1
 403 36 333 1 258 0 c 1
 258 0 l 1
114 240 m 0
 111 227 110 215 110 203 c 0
 111 113 171 49 258 48 c 0
 359 47 462 137 481 248 c 1
 481 248 l 1
 483 261 484 273 484 285 c 0
 483 375 425 439 336 440 c 1
 335 440 l 2
 234 440 133 350 114 240 c 0
301 592 m 0
 294 592 287 596 287 601 c 1
 286 605 287 609 289 612 c 2
 338 705 l 2
 344 717 351 723 363 723 c 0
 382 723 407 710 408 700 c 0
 409 694 405 688 400 682 c 2
 331 605 l 2
 321 594 314 592 301 592 c 0
EndSplineSet
EndChar

StartChar: acircumflex
Encoding: 226 226 114
Width: 574
Flags: MW
HStem: 0 48<258 258> 440 48<284.5 364.5 335 364.5> 488 104<306 364.5> 700 20G<419 427 427 433>
VStem: 63 47<203 209 203 210.5>
LayerCount: 2
Fore
SplineSet
258 0 m 1
 201 0 152 22 117 59 c 0
 82 96 63 146 63 203 c 0
 63 218 64 233 67 248 c 0
 91 380 207 487 336 488 c 0
 393 488 442 466 477 429 c 0
 488 417 498 404 506 389 c 1
 520 468 l 2
 522 481 534 490 547 488 c 0
 560 485 569 473 567 460 c 2
 489 20 l 2
 487 8 477 0 465 0 c 0
 464 0 463 0 461 0 c 0
 448 3 440 15 442 28 c 2
 453 92 l 1
 403 36 333 1 258 0 c 1
 258 0 l 1
114 240 m 0
 111 227 110 215 110 203 c 0
 111 113 171 49 258 48 c 0
 359 47 462 137 481 248 c 1
 481 248 l 1
 483 261 484 273 484 285 c 0
 483 375 425 439 336 440 c 1
 335 440 l 2
 234 440 133 350 114 240 c 0
414 663 m 1
 344 605 l 2
 330 594 323 592 310 592 c 0
 302 592 298 597 298 602 c 1
 299 606 300 609 305 614 c 2
 389 702 l 2
 399 713 407 720 419 720 c 2
 427 720 l 2
 439 720 445 713 453 702 c 2
 513 614 l 2
 516 609 517 606 516 602 c 1
 516 597 510 592 501 592 c 0xb8
 488 592 480 594 470 605 c 2
 414 663 l 1
EndSplineSet
EndChar

StartChar: atilde
Encoding: 227 227 115
Width: 574
Flags: MW
HStem: 0 48<258 258> 440 48<284.5 364.5 335 364.5> 595 52<466 494 466 494> 636 52<343 371> 679 20G<548.5 558>
VStem: 63 47<203 209 203 210.5>
LayerCount: 2
Fore
SplineSet
258 0 m 1xd4
 201 0 152 22 117 59 c 0
 82 96 63 146 63 203 c 0
 63 218 64 233 67 248 c 0
 91 380 207 487 336 488 c 0
 393 488 442 466 477 429 c 0
 488 417 498 404 506 389 c 1
 520 468 l 2
 522 481 534 490 547 488 c 0
 560 485 569 473 567 460 c 2
 489 20 l 2
 487 8 477 0 465 0 c 0
 464 0 463 0 461 0 c 0
 448 3 440 15 442 28 c 2
 453 92 l 1
 403 36 333 1 258 0 c 1
 258 0 l 1xd4
114 240 m 0
 111 227 110 215 110 203 c 0
 111 113 171 49 258 48 c 0
 359 47 462 137 481 248 c 1
 481 248 l 1
 483 261 484 273 484 285 c 0
 483 375 425 439 336 440 c 1
 335 440 l 2
 234 440 133 350 114 240 c 0
304 598 m 0
 300 592 294 584 284 584 c 0
 274 584 267 591 268 601 c 0
 269 604 270 610 272 613 c 0
 298 671 325 688 361 688 c 0xd4
 399 688 449 647 483 647 c 0
 505 647 518 658 533 685 c 0
 537 691 544 699 553 699 c 0
 563 699 570 692 569 682 c 0
 569 679 567 673 565 670 c 0
 539 612 512 595 476 595 c 0xec
 438 595 388 636 354 636 c 0
 332 636 319 625 304 598 c 0
EndSplineSet
EndChar

StartChar: egrave
Encoding: 232 232 116
Width: 584
Flags: MW
HStem: 1 48<232 295.5 261 295.5> 235 49<124 494 124 516 111 494> 442 48<341 341> 703 20G<370.5 386>
VStem: 61 48<176.5 210 160 212> 494 48<284 286 285.5 286>
LayerCount: 2
Fore
SplineSet
61 205 m 0
 61 219 62 234 65 250 c 0
 89 383 208 489 341 490 c 0
 399 490 449 468 485 431 c 0
 521 394 542 343 542 286 c 0
 542 277 541 269 540 260 c 0
 540 258 539 256 539 254 c 0
 536 244 527 235 516 235 c 2
 111 235 l 1
 109 225 109 215 109 205 c 0
 109 115 171 50 262 49 c 0
 329 49 396 85 439 139 c 0
 448 149 463 151 473 142 c 0
 483 134 485 120 476 110 c 0
 425 45 346 1 262 1 c 2
 262 1 262 1 261 1 c 0
 203 1 153 23 117 60 c 0
 81 97 61 148 61 205 c 0
341 442 m 0
 249 443 158 374 124 284 c 1
 494 284 l 1
 494 285 494 285 494 286 c 0
 493 376 432 441 341 442 c 0
442 592 m 0
 429 592 422 594 412 605 c 2
 343 682 l 2
 338 688 334 694 335 700 c 0
 336 710 361 723 380 723 c 0
 392 723 399 717 405 705 c 2
 454 612 l 2
 456 609 457 605 456 601 c 1
 456 596 449 592 442 592 c 0
EndSplineSet
EndChar

StartChar: eacute
Encoding: 233 233 117
Width: 584
Flags: MW
HStem: 1 48<232 295.5 261 295.5> 235 49<124 494 124 516 111 494> 442 48<341 341> 703 20G<348 363.5>
VStem: 61 48<176.5 210 160 212> 494 48<284 286 285.5 286>
LayerCount: 2
Fore
SplineSet
61 205 m 0
 61 219 62 234 65 250 c 0
 89 383 208 489 341 490 c 0
 399 490 449 468 485 431 c 0
 521 394 542 343 542 286 c 0
 542 277 541 269 540 260 c 0
 540 258 539 256 539 254 c 0
 536 244 527 235 516 235 c 2
 111 235 l 1
 109 225 109 215 109 205 c 0
 109 115 171 50 262 49 c 0
 329 49 396 85 439 139 c 0
 448 149 463 151 473 142 c 0
 483 134 485 120 476 110 c 0
 425 45 346 1 262 1 c 2
 262 1 262 1 261 1 c 0
 203 1 153 23 117 60 c 0
 81 97 61 148 61 205 c 0
341 442 m 0
 249 443 158 374 124 284 c 1
 494 284 l 1
 494 285 494 285 494 286 c 0
 493 376 432 441 341 442 c 0
292 592 m 0
 285 592 278 596 278 601 c 1
 277 605 278 609 280 612 c 2
 329 705 l 2
 335 717 342 723 354 723 c 0
 373 723 398 710 399 700 c 0
 400 694 396 688 391 682 c 2
 322 605 l 2
 312 594 305 592 292 592 c 0
EndSplineSet
EndChar

StartChar: ecircumflex
Encoding: 234 234 118
Width: 584
Flags: MW
HStem: 1 48<232 295.5 261 295.5> 235 49<124 494 124 516 111 494> 442 48<341 341> 490 102<287 370> 700 20G<400 408 408 414>
VStem: 61 48<176.5 210 160 212> 494 48<284 286 285.5 286>
LayerCount: 2
Fore
SplineSet
61 205 m 0
 61 219 62 234 65 250 c 0
 89 383 208 489 341 490 c 0
 399 490 449 468 485 431 c 0
 521 394 542 343 542 286 c 0
 542 277 541 269 540 260 c 0
 540 258 539 256 539 254 c 0
 536 244 527 235 516 235 c 2
 111 235 l 1
 109 225 109 215 109 205 c 0
 109 115 171 50 262 49 c 0
 329 49 396 85 439 139 c 0
 448 149 463 151 473 142 c 0
 483 134 485 120 476 110 c 0
 425 45 346 1 262 1 c 2
 262 1 262 1 261 1 c 0
 203 1 153 23 117 60 c 0
 81 97 61 148 61 205 c 0
341 442 m 0
 249 443 158 374 124 284 c 1
 494 284 l 1
 494 285 494 285 494 286 c 0
 493 376 432 441 341 442 c 0
395 663 m 1
 325 605 l 2
 311 594 304 592 291 592 c 0
 283 592 279 597 279 602 c 1
 280 606 281 609 286 614 c 2
 370 702 l 2
 380 713 388 720 400 720 c 2
 408 720 l 2
 420 720 426 713 434 702 c 2
 494 614 l 2
 497 609 498 606 497 602 c 1
 497 597 491 592 482 592 c 0xde
 469 592 461 594 451 605 c 2
 395 663 l 1
EndSplineSet
EndChar

StartChar: igrave
Encoding: 236 236 119
Width: 249
Flags: MW
HStem: 0 21G<24 25 24 28> 703 20G<97.5 113>
LayerCount: 2
Fore
SplineSet
24 0 m 0
 11 2 2 15 5 27 c 2
 82 469 l 2
 84 482 97 490 110 489 c 1
 123 486 132 474 129 460 c 2
 51 19 l 2
 49 8 39 0 28 0 c 0
 26 0 26 0 24 0 c 0
169 592 m 0
 156 592 149 594 139 605 c 2
 70 682 l 2
 65 688 61 694 62 700 c 0
 63 710 88 723 107 723 c 0
 119 723 126 717 132 705 c 2
 181 612 l 2
 183 609 184 605 183 601 c 1
 183 596 176 592 169 592 c 0
EndSplineSet
EndChar

StartChar: iacute
Encoding: 237 237 120
Width: 249
Flags: MW
HStem: 0 21G<122 123 122 126> 703 20G<247 262.5>
LayerCount: 2
Fore
SplineSet
122 0 m 0
 109 2 100 15 103 27 c 2
 180 469 l 2
 182 482 195 490 208 489 c 1
 221 486 230 474 227 460 c 2
 149 19 l 2
 147 8 137 0 126 0 c 0
 124 0 124 0 122 0 c 0
191 592 m 0
 184 592 177 596 177 601 c 1
 176 605 177 609 179 612 c 2
 228 705 l 2
 234 717 241 723 253 723 c 0
 272 723 297 710 298 700 c 0
 299 694 295 688 290 682 c 2
 221 605 l 2
 211 594 204 592 191 592 c 0
EndSplineSet
EndChar

StartChar: icircumflex
Encoding: 238 238 121
Width: 249
Flags: MW
HStem: 0 21G<37 38 37 41> 700 20G<149 157 157 163>
LayerCount: 2
Fore
SplineSet
37 0 m 0
 24 2 15 15 18 27 c 2
 95 469 l 2
 97 482 110 490 123 489 c 1
 136 486 145 474 142 460 c 2
 64 19 l 2
 62 8 52 0 41 0 c 0
 39 0 39 0 37 0 c 0
144 663 m 1
 74 605 l 2
 60 594 53 592 40 592 c 0
 32 592 28 597 28 602 c 1
 29 606 30 609 35 614 c 2
 119 702 l 2
 129 713 137 720 149 720 c 2
 157 720 l 2
 169 720 175 713 183 702 c 2
 243 614 l 2
 246 609 247 606 246 602 c 1
 246 597 240 592 231 592 c 0
 218 592 210 594 200 605 c 2
 144 663 l 1
EndSplineSet
EndChar

StartChar: ntilde
Encoding: 241 241 122
Width: 613
Flags: MW
HStem: 0 21G<114 116 114 114.5 116 119 119 121 119 119 121 123 464 465 464 467> 1 21G<125 128 125 125.5> 440 48<370 370> 595 52<468 496 468 496> 636 52<345 373> 679 20G<550.5 560>
VStem: 493 48<314.5 319>
LayerCount: 2
Fore
SplineSet
445 28 m 2xb6
 491 292 l 2
 492 302 493 310 493 319 c 0
 492 389 445 439 370 440 c 0
 288 441 203 370 188 285 c 2
 142 19 l 2
 142 18 141 16 141 15 c 2
 140 14 l 2
 140 13 139 12 139 11 c 0
 138 10 138 10 138 10 c 2
 137 9 137 8 136 7 c 2
 136 7 135 7 135 6 c 1
 134 6 134 5 133 4 c 0
 132 4 132 4 132 3 c 1
 131 3 130 3 129 2 c 2
 129 2 128 2 128 1 c 1
 127 1 126 1 125 1 c 0x6a
 124 0 124 0 123 0 c 0
 122 0 122 0 121 0 c 0
 120 0 119 0 119 0 c 1
 119 0 l 1
 118 0 117 0 116 0 c 0
 115 0 115 0 114 0 c 0
 101 2 93 15 95 28 c 2
 142 292 l 2
 142 293 142 293 142 293 c 1
 172 468 l 2
 174 481 187 490 200 487 c 1
 214 485 222 473 220 460 c 2
 213 421 l 1
 256 462 312 487 370 488 c 0
 419 488 463 470 493 439 c 0
 523 409 541 367 541 319 c 0
 541 308 540 296 538 284 c 2
 491 19 l 2
 489 8 479 0 467 0 c 0
 466 0 466 0 464 0 c 0
 451 2 442 15 445 28 c 2xb6
306 598 m 0
 302 592 296 584 286 584 c 0
 276 584 269 591 270 601 c 0
 271 604 272 610 274 613 c 0
 300 671 327 688 363 688 c 0xaa
 401 688 451 647 485 647 c 0
 507 647 520 658 535 685 c 0
 539 691 546 699 555 699 c 0
 565 699 572 692 571 682 c 0
 571 679 569 673 567 670 c 0
 541 612 514 595 478 595 c 0xb6
 440 595 390 636 356 636 c 0
 334 636 321 625 306 598 c 0
EndSplineSet
EndChar

StartChar: ograve
Encoding: 242 242 123
Width: 640
Flags: MW
HStem: 0 47<254 254 255 255> 442 48<281 361.5 331 361.5> 703 20G<439.5 455>
VStem: 58 48<204 209.5 204 211> 482 47<280 286>
LayerCount: 2
Fore
SplineSet
529 286 m 0
 529 271 528 256 525 240 c 1
 502 245 l 1
 525 240 l 1
 501 107 383 0 255 0 c 2
 255 0 255 0 254 0 c 0
 198 0 148 22 113 59 c 0
 78 96 58 147 58 204 c 0
 58 218 59 233 62 249 c 0
 86 382 204 489 333 490 c 0
 390 490 440 467 475 430 c 0
 510 394 529 342 529 286 c 0
478 249 m 0
 480 261 482 274 482 286 c 0
 481 377 421 441 333 442 c 0
 332 442 332 442 331 442 c 0
 231 442 128 351 109 240 c 0
 107 228 106 215 106 204 c 0
 107 112 166 48 255 47 c 0
 356 46 459 138 478 249 c 0
511 592 m 0
 498 592 491 594 481 605 c 2
 412 682 l 2
 407 688 403 694 404 700 c 0
 405 710 430 723 449 723 c 0
 461 723 468 717 474 705 c 2
 523 612 l 2
 525 609 526 605 525 601 c 1
 525 596 518 592 511 592 c 0
EndSplineSet
EndChar

StartChar: oacute
Encoding: 243 243 124
Width: 640
Flags: MW
HStem: 0 47<254 254 255 255> 442 48<281 361.5 331 361.5> 703 20G<334 349.5>
VStem: 58 48<204 209.5 204 211> 482 47<280 286>
LayerCount: 2
Fore
SplineSet
529 286 m 0
 529 271 528 256 525 240 c 1
 502 245 l 1
 525 240 l 1
 501 107 383 0 255 0 c 2
 255 0 255 0 254 0 c 0
 198 0 148 22 113 59 c 0
 78 96 58 147 58 204 c 0
 58 218 59 233 62 249 c 0
 86 382 204 489 333 490 c 0
 390 490 440 467 475 430 c 0
 510 394 529 342 529 286 c 0
478 249 m 0
 480 261 482 274 482 286 c 0
 481 377 421 441 333 442 c 0
 332 442 332 442 331 442 c 0
 231 442 128 351 109 240 c 0
 107 228 106 215 106 204 c 0
 107 112 166 48 255 47 c 0
 356 46 459 138 478 249 c 0
278 592 m 0
 271 592 264 596 264 601 c 1
 263 605 264 609 266 612 c 2
 315 705 l 2
 321 717 328 723 340 723 c 0
 359 723 384 710 385 700 c 0
 386 694 382 688 377 682 c 2
 308 605 l 2
 298 594 291 592 278 592 c 0
EndSplineSet
EndChar

StartChar: ocircumflex
Encoding: 244 244 125
Width: 640
Flags: MW
HStem: 0 47<254 254 255 255> 442 48<281 361.5 331 361.5> 490 102<301 361.5> 700 20G<414 422 422 428>
VStem: 58 48<204 209.5 204 211> 482 47<280 286>
LayerCount: 2
Fore
SplineSet
529 286 m 0
 529 271 528 256 525 240 c 1
 502 245 l 1
 525 240 l 1
 501 107 383 0 255 0 c 2
 255 0 255 0 254 0 c 0
 198 0 148 22 113 59 c 0
 78 96 58 147 58 204 c 0
 58 218 59 233 62 249 c 0
 86 382 204 489 333 490 c 0
 390 490 440 467 475 430 c 0
 510 394 529 342 529 286 c 0
478 249 m 0
 480 261 482 274 482 286 c 0
 481 377 421 441 333 442 c 0
 332 442 332 442 331 442 c 0
 231 442 128 351 109 240 c 0
 107 228 106 215 106 204 c 0
 107 112 166 48 255 47 c 0
 356 46 459 138 478 249 c 0
409 663 m 1
 339 605 l 2
 325 594 318 592 305 592 c 0
 297 592 293 597 293 602 c 1
 294 606 295 609 300 614 c 2
 384 702 l 2
 394 713 402 720 414 720 c 2
 422 720 l 2
 434 720 440 713 448 702 c 2
 508 614 l 2
 511 609 512 606 511 602 c 1
 511 597 505 592 496 592 c 0xbc
 483 592 475 594 465 605 c 2
 409 663 l 1
EndSplineSet
EndChar

StartChar: otilde
Encoding: 245 245 126
Width: 640
Flags: MW
HStem: 0 47<254 254 255 255> 442 48<281 361.5 331 361.5> 595 52<419 447 419 447> 636 52<296 324> 679 20G<501.5 511>
VStem: 58 48<204 209.5 204 211> 482 47<280 286>
LayerCount: 2
Fore
SplineSet
529 286 m 0xd6
 529 271 528 256 525 240 c 1
 502 245 l 1
 525 240 l 1
 501 107 383 0 255 0 c 2
 255 0 255 0 254 0 c 0
 198 0 148 22 113 59 c 0
 78 96 58 147 58 204 c 0
 58 218 59 233 62 249 c 0
 86 382 204 489 333 490 c 0
 390 490 440 467 475 430 c 0
 510 394 529 342 529 286 c 0xd6
478 249 m 0
 480 261 482 274 482 286 c 0
 481 377 421 441 333 442 c 0
 332 442 332 442 331 442 c 0
 231 442 128 351 109 240 c 0
 107 228 106 215 106 204 c 0
 107 112 166 48 255 47 c 0
 356 46 459 138 478 249 c 0
257 598 m 0
 253 592 247 584 237 584 c 0
 227 584 220 591 221 601 c 0
 222 604 223 610 225 613 c 0
 251 671 278 688 314 688 c 0xd6
 352 688 402 647 436 647 c 0
 458 647 471 658 486 685 c 0
 490 691 497 699 506 699 c 0
 516 699 523 692 522 682 c 0
 522 679 520 673 518 670 c 0
 492 612 465 595 429 595 c 0xee
 391 595 341 636 307 636 c 0
 285 636 272 625 257 598 c 0
EndSplineSet
EndChar

StartChar: ugrave
Encoding: 249 249 127
Width: 613
Flags: MW
HStem: 1 48<253 253> 703 20G<338.5 354>
VStem: 83 48<169 173 169 174.5>
LayerCount: 2
Fore
SplineSet
509 488 m 0
 522 486 531 473 528 460 c 2
 482 195 l 1
 462 86 362 2 253 1 c 1
 253 1 l 1
 204 1 162 19 131 50 c 0
 101 80 83 122 83 169 c 0
 83 180 84 192 86 204 c 2
 133 468 l 2
 136 481 148 490 161 488 c 0
 173 486 182 473 179 460 c 2
 133 195 l 2
 132 186 131 177 131 169 c 0
 132 99 179 50 253 49 c 0
 336 48 421 119 435 204 c 1
 482 468 l 2
 484 481 496 490 509 488 c 0
410 592 m 0
 397 592 390 594 380 605 c 2
 311 682 l 2
 306 688 302 694 303 700 c 0
 304 710 329 723 348 723 c 0
 360 723 367 717 373 705 c 2
 422 612 l 2
 424 609 425 605 424 601 c 1
 424 596 417 592 410 592 c 0
EndSplineSet
EndChar

StartChar: uacute
Encoding: 250 250 128
Width: 613
Flags: MW
HStem: 1 48<253 253> 703 20G<377 392.5>
VStem: 83 48<169 173 169 174.5>
LayerCount: 2
Fore
SplineSet
509 488 m 0
 522 486 531 473 528 460 c 2
 482 195 l 1
 462 86 362 2 253 1 c 1
 253 1 l 1
 204 1 162 19 131 50 c 0
 101 80 83 122 83 169 c 0
 83 180 84 192 86 204 c 2
 133 468 l 2
 136 481 148 490 161 488 c 0
 173 486 182 473 179 460 c 2
 133 195 l 2
 132 186 131 177 131 169 c 0
 132 99 179 50 253 49 c 0
 336 48 421 119 435 204 c 1
 482 468 l 2
 484 481 496 490 509 488 c 0
321 592 m 0
 314 592 307 596 307 601 c 1
 306 605 307 609 309 612 c 2
 358 705 l 2
 364 717 371 723 383 723 c 0
 402 723 427 710 428 700 c 0
 429 694 425 688 420 682 c 2
 351 605 l 2
 341 594 334 592 321 592 c 0
EndSplineSet
EndChar

StartChar: ucircumflex
Encoding: 251 251 129
Width: 613
Flags: MW
HStem: 1 48<253 253> 700 20G<382 390 390 396>
VStem: 83 48<169 173 169 174.5>
LayerCount: 2
Fore
SplineSet
509 488 m 0
 522 486 531 473 528 460 c 2
 482 195 l 1
 462 86 362 2 253 1 c 1
 253 1 l 1
 204 1 162 19 131 50 c 0
 101 80 83 122 83 169 c 0
 83 180 84 192 86 204 c 2
 133 468 l 2
 136 481 148 490 161 488 c 0
 173 486 182 473 179 460 c 2
 133 195 l 2
 132 186 131 177 131 169 c 0
 132 99 179 50 253 49 c 0
 336 48 421 119 435 204 c 1
 482 468 l 2
 484 481 496 490 509 488 c 0
377 663 m 1
 307 605 l 2
 293 594 286 592 273 592 c 0
 265 592 261 597 261 602 c 1
 262 606 263 609 268 614 c 2
 352 702 l 2
 362 713 370 720 382 720 c 2
 390 720 l 2
 402 720 408 713 416 702 c 2
 476 614 l 2
 479 609 480 606 479 602 c 1
 479 597 473 592 464 592 c 0
 451 592 443 594 433 605 c 2
 377 663 l 1
EndSplineSet
EndChar

StartChar: yacute
Encoding: 253 253 130
Width: 588
Flags: MW
HStem: -193 48<151.5 166 151.5 166> 1 47<209.5 233 196 233> 703 20G<382 397.5>
VStem: 63 47<167 171.5 167 173>
LayerCount: 2
Fore
SplineSet
502 480 m 0
 506 476 508 471 508 467 c 1
 509 465 509 462 508 460 c 2
 433 34 l 2
 410 -93 293 -192 166 -193 c 0
 130 -193 96 -184 68 -170 c 0
 56 -163 52 -148 58 -136 c 0
 64 -125 78 -121 90 -127 c 0
 111 -138 137 -145 166 -145 c 0
 268 -146 369 -59 386 42 c 2
 390 65 l 1
 348 26 292 1 233 1 c 1
 233 1 l 1
 186 1 141 18 110 48 c 0
 80 78 63 121 63 167 c 0
 63 179 64 191 66 203 c 2
 112 469 l 2
 114 481 127 490 140 488 c 0
 153 485 162 473 159 460 c 2
 112 194 l 2
 110 185 110 176 110 167 c 0
 111 98 159 48 233 48 c 0
 316 47 400 118 414 203 c 1
 461 469 l 1
 461 469 l 1
 461 469 l 1
 461 469 l 1
 461 469 l 1
 463 481 476 490 488 488 c 0
 494 487 499 484 502 480 c 0
326 592 m 0
 319 592 312 596 312 601 c 1
 311 605 312 609 314 612 c 2
 363 705 l 2
 369 717 376 723 388 723 c 0
 407 723 432 710 433 700 c 0
 434 694 430 688 425 682 c 2
 356 605 l 2
 346 594 339 592 326 592 c 0
EndSplineSet
EndChar

StartChar: trademark
Encoding: 8482 8482 131
Width: 690
Flags: MW
HStem: 399 21G<280 282 280 280.5 513 515 513 513.5> 400 21G<83 83 83 84> 680 20G 680 21<29.5 235 32 121 142 142 142 235>
LayerCount: 2
Fore
SplineSet
83 400 m 1x50
 77 401 73 407 74 412 c 2
 121 680 l 1
 32 680 l 2
 27 680 22 685 22 691 c 0
 22 696 27 701 32 701 c 2
 235 701 l 2
 241 701 245 696 245 691 c 0
 245 685 241 680 235 680 c 2
 142 680 l 1
 95 409 l 2
 94 404 90 400 84 400 c 2
 83 400 l 1x50
513 399 m 0xa0
 508 400 504 406 505 411 c 2
 548 656 l 1
 428 522 l 2
 426 520 423 519 420 519 c 1
 420 519 l 1
 419 519 419 519 419 519 c 2
 416 519 412 521 410 525 c 2
 337 659 l 1
 293 408 l 2
 292 402 287 399 282 399 c 0
 281 399 281 399 280 399 c 0
 274 400 271 406 271 411 c 2
 321 691 l 2
 322 696 327 700 332 700 c 0
 336 700 339 698 342 695 c 1
 422 547 l 1
 556 696 l 2
 558 699 561 700 564 700 c 0
 565 700 566 700 566 700 c 1
 572 699 576 693 575 688 c 2
 525 408 l 2
 524 402 520 399 515 399 c 0
 514 399 514 399 513 399 c 0xa0
EndSplineSet
EndChar

StartChar: copyright
Encoding: 169 169 132
Width: 830
Flags: MW
HStem: -12 28<319.5 509 319.5 515.5> 166 40<381.5 442.5 381.5 449> 505 40<379.5 440> 684 28<321 510.5>
VStem: 53 30<348 350 256.5 448.5> 237 44<354 355 355 356 356 357 314.5 407> 747 30<350 352 251.5 443.5>
LayerCount: 2
Fore
SplineSet
414 -12 m 0
 211 -12 53 151 53 348 c 2
 53 350 l 2
 53 547 213 712 416 712 c 0
 619 712 777 549 777 352 c 2
 777 350 l 2
 777 153 617 -12 414 -12 c 0
414 16 m 0
 604 16 747 167 747 350 c 2
 747 352 l 2
 747 535 605 684 416 684 c 0
 226 684 83 533 83 350 c 2
 83 348 l 2
 83 165 225 16 414 16 c 0
419 166 m 0
 316 166 237 251 237 354 c 2
 237 356 l 2
 237 458 317 545 420 545 c 0
 479 545 517 523 549 495 c 0
 554 491 558 484 558 477 c 0
 558 465 548 456 536 456 c 0
 530 456 525 459 520 463 c 0
 493 486 461 505 419 505 c 0
 340 505 281 438 281 357 c 2
 281 355 l 2
 281 274 343 206 420 206 c 0
 465 206 495 222 526 250 c 0
 529 252 534 255 540 255 c 0
 551 255 560 246 560 235 c 0
 560 229 557 223 553 220 c 0
 516 188 479 166 419 166 c 0
EndSplineSet
EndChar

StartChar: registered
Encoding: 174 174 133
Width: 416
Flags: MW
HStem: 360 21G<159 256.5> 532 94<160 212 160 214 212 214 214 215> 642 68<149 257 151 257 152 257 159.5 214>
VStem: 34 20<534 535 491.5 582.5> 34 110<534 535 535 582.5> 160 98<462 479.5 462 517 462 517 462 626> 276 106<487.5 596.5> 362 20<535 536 487.5 578.5>
LayerCount: 2
Fore
SplineSet
208 360 m 0xf6
 110 360 34 439 34 534 c 2
 34 535 l 2
 34 630 111 710 208 710 c 0
 306 710 382 631 382 536 c 2
 382 535 l 2
 382 440 305 360 208 360 c 0xf6
208 379 m 0
 295 379 362 450 362 535 c 2
 362 536 l 2xed
 362 621 296 691 208 691 c 0
 121 691 54 620 54 535 c 2
 54 534 l 2
 54 449 120 379 208 379 c 0
264 435 m 0
 267 428 274 425 278 425 c 2
 279 425 l 2
 280 425 282 426 283 426 c 0
 286 427 288 431 287 436 c 0
 286 439 283 441 279 441 c 1
 279 441 277 442 276 446 c 0
 274 451 273 459 273 471 c 0
 273 496 258 513 243 521 c 0
 242 521 241 521 240 522 c 1
 261 532 276 554 276 579 c 0xf6
 276 614 248 642 214 642 c 2
 153 642 l 1
 152 642 l 1
 151 642 l 2
 147 642 144 638 144 634 c 2
 144 430 l 2
 144 425 147 422 152 422 c 0
 156 422 160 425 160 430 c 2
 160 517 l 1
 213 517 l 1
 214 516 l 1
 218 515 230 512 240 505 c 0
 250 498 258 488 258 471 c 0
 258 453 260 442 264 435 c 0
261 579 m 0
 261 554 240 532 215 532 c 2
 212 532 l 1
 160 532 l 1
 160 626 l 1
 214 626 l 2
 240 626 261 605 261 579 c 0
EndSplineSet
EndChar

StartChar: exclamdown
Encoding: 161 161 134
Width: 252
Flags: MW
HStem: 680 20G
LayerCount: 2
Fore
SplineSet
115 0 m 0
 102 3 93 16 95 29 c 2
 184 531 l 2
 186 543 196 551 208 551 c 0
 209 551 211 551 212 551 c 0
 226 548 234 536 232 522 c 2
 143 20 l 2
 141 7 128 -2 115 0 c 0
226 628 m 0
 213 631 204 643 206 657 c 2
 210 680 l 2
 212 692 223 700 234 700 c 0
 236 700 237 700 238 700 c 0
 252 697 261 685 258 671 c 2
 254 648 l 2
 252 635 239 626 226 628 c 0
EndSplineSet
EndChar

StartChar: questiondown
Encoding: 191 191 135
Width: 534
Flags: MW
HStem: -1 46<237 268.5 237 277> 679 20G<330 353.5>
VStem: 52 47<181 185.5 181 187>
LayerCount: 2
Fore
SplineSet
345 630 m 0
 332 633 324 645 326 657 c 2
 330 679 l 2
 332 691 342 699 353 699 c 0
 354 699 355 699 357 698 c 0
 369 696 378 684 376 671 c 2
 372 649 l 2
 369 637 357 628 345 630 c 0
237 -1 m 0
 184 -1 138 18 105 51 c 0
 71 84 52 130 52 181 c 0
 52 193 54 206 56 219 c 0
 76 330 175 419 286 429 c 1
 305 540 l 2
 307 552 317 560 328 560 c 0
 329 560 331 560 332 559 c 0
 345 557 353 545 351 532 c 2
 329 407 l 2
 329 406 329 406 328 405 c 0
 327 393 317 384 305 384 c 0
 211 385 118 305 102 211 c 0
 100 200 99 190 99 181 c 0
 100 103 154 46 237 45 c 0
 300 45 363 80 402 132 c 0
 410 142 425 144 435 136 c 0
 445 129 447 114 439 104 c 0
 392 41 317 -1 237 -1 c 0
EndSplineSet
EndChar

StartChar: oe
Encoding: 339 339 136
Width: 1055
Flags: MW
HStem: 1 21G<657 686 686 687> 2 47<254 254 255 255> 236 48<548 919 548 941 535 919> 444 48<281 361.5 331 361.5> 471 20G<765 794>
VStem: 58 48<206 211.5 206 213> 919 48<284 286 286 286>
LayerCount: 2
Fore
SplineSet
475 432 m 0x76
 498 408 514 377 522 342 c 1
 572 429 665 490 765 491 c 0
 823 491 874 469 910 432 c 0
 946 395 967 343 967 286 c 0
 967 277 966 269 965 260 c 0
 965 258 964 256 964 254 c 0
 961 244 952 236 941 236 c 2
 535 236 l 1
 533 226 533 216 533 206 c 0
 533 115 595 50 687 49 c 0x6e
 753 49 820 85 864 140 c 0
 873 150 888 152 898 143 c 0
 908 135 910 120 901 110 c 0
 849 45 770 1 687 1 c 2
 686 1 l 2xb6
 628 1 577 23 541 60 c 0
 517 84 500 115 491 150 c 1
 442 63 351 2 255 2 c 2
 254 2 l 2
 198 2 148 24 113 61 c 0
 78 98 58 149 58 206 c 0
 58 220 59 235 62 251 c 0
 86 384 204 491 333 492 c 0
 390 492 440 469 475 432 c 0x76
478 251 m 0
 480 263 482 276 482 288 c 0
 481 379 421 443 333 444 c 1
 331 444 l 2x76
 231 444 128 353 109 242 c 0
 107 230 106 217 106 206 c 0
 107 114 166 50 255 49 c 0
 356 48 459 140 478 251 c 0
765 443 m 0
 674 444 582 375 548 284 c 1
 919 284 l 1
 919 286 l 1
 918 377 857 442 765 443 c 0
EndSplineSet
EndChar

StartChar: dollar
Encoding: 36 36 137
Width: 632
Flags: MW
HStem: -102 21G<260.5 273.5> 0 45<317 326> 655 45<436 445> 742 20G<478.5 491.5>
LayerCount: 2
Fore
SplineSet
454 738 m 2
 458 751 472 762 485 762 c 0
 498 762 506 751 502 738 c 1
 493 698 l 1
 564 692 609 668 653 628 c 0
 660 621 664 615 661 605 c 0
 658 591 643 580 629 580 c 0
 623 580 618 581 613 587 c 0
 574 626 531 646 479 652 c 1
 408 372 l 1
 553 340 602 283 578 185 c 0
 551 79 443 4 317 0 c 1
 298 -78 l 2
 294 -91 280 -102 267 -102 c 0
 254 -102 246 -91 250 -78 c 2
 269 1 l 1
 184 8 121 40 68 98 c 0
 63 104 61 110 63 119 c 0
 66 132 81 144 94 144 c 0
 103 144 108 140 110 137 c 0
 153 85 207 54 282 46 c 1
 355 331 l 1
 213 364 164 419 190 519 c 1
 215 620 323 697 445 700 c 1
 454 738 l 2
526 181 m 1
 542 250 518 292 396 321 c 1
 326 45 l 1
 426 47 507 105 526 181 c 1
242 523 m 0
 224 455 246 413 368 382 c 1
 436 655 l 1
 338 653 260 595 242 523 c 0
EndSplineSet
EndChar

StartChar: numbersign
Encoding: 35 35 138
Width: 700
Flags: MW
HStem: -4 238<121.5 136.5 376.5 391.5> 187 47<60.5 184 75 168 75 216 232 423 487 588> 470 47<148.5 281 163 265 163 313 329 520 584 676> 470 234<148.5 373.5 155 373.5 313 373.5 358.5 373.5 358.5 520 358.5 568 613.5 628.5>
LayerCount: 2
Fore
SplineSet
113 25 m 2xa0
 168 187 l 1
 67 187 l 2x60
 54 187 45 197 47 210 c 0
 49 223 62 234 75 234 c 2
 184 234 l 1
 265 470 l 1
 155 470 l 2
 142 470 132 480 135 493 c 0
 137 506 150 517 163 517 c 2
 281 517 l 1xa0
 336 682 l 2
 340 695 352 704 365 704 c 0x90
 382 704 386 689 382 675 c 2
 329 517 l 1
 536 517 l 1xa0
 591 682 l 2
 595 695 607 704 620 704 c 0x90
 637 704 641 689 637 675 c 2
 584 517 l 1
 684 517 l 2
 697 517 706 507 704 494 c 0
 702 481 689 470 676 470 c 2
 568 470 l 1
 487 234 l 1
 596 234 l 2
 609 234 618 224 616 211 c 0
 614 198 601 187 588 187 c 2
 471 187 l 1x60
 414 18 l 2
 410 5 398 -4 385 -4 c 0xa0
 368 -4 364 11 368 25 c 2
 423 187 l 1
 216 187 l 1x60
 159 18 l 2
 155 5 143 -4 130 -4 c 0
 113 -4 109 11 113 25 c 2xa0
232 234 m 1
 439 234 l 1
 520 470 l 1
 313 470 l 1
 232 234 l 1
EndSplineSet
EndChar

StartChar: bracketleft
Encoding: 91 91 139
Width: 430
Flags: MW
HStem: -130 38<114 362 150 353> 662 38<307 519 307 307>
LayerCount: 2
Fore
SplineSet
101 -104 m 2
 264 674 l 2
 267 688 282 700 296 700 c 2
 528 700 l 2
 538 700 545 691 543 681 c 0
 541 671 529 662 519 662 c 2
 307 662 l 1
 150 -92 l 1
 362 -92 l 2
 372 -92 378 -101 376 -111 c 0
 374 -121 363 -130 353 -130 c 2
 121 -130 l 2
 107 -130 98 -118 101 -104 c 2
EndSplineSet
EndChar

StartChar: bracketright
Encoding: 93 93 140
Width: 430
Flags: MW
HStem: -130 38<67 293 81 293 81 304> 662 38<233 479 247 450>
LayerCount: 2
Fore
SplineSet
499 674 m 2
 336 -104 l 2
 333 -118 318 -130 304 -130 c 2
 72 -130 l 2
 62 -130 55 -121 57 -111 c 0
 59 -101 71 -92 81 -92 c 2
 293 -92 l 1
 450 662 l 1
 238 662 l 2
 228 662 222 671 224 681 c 0
 226 691 237 700 247 700 c 2
 479 700 l 2
 493 700 502 688 499 674 c 2
EndSplineSet
EndChar

StartChar: braceleft
Encoding: 123 123 141
Width: 480
Flags: MW
HStem: 268 38<80 128.5>
LayerCount: 2
Fore
SplineSet
287 -139 m 0
 128 -105 114 -41 144 62 c 1
 166 141 l 1
 189 219 180 268 77 268 c 0
 61 268 55 276 59 287 c 0
 62 298 72 306 88 306 c 0
 191 306 228 355 251 433 c 1
 273 512 l 1
 303 615 353 679 532 713 c 0
 544 715 552 709 549 697 c 0
 546 689 539 683 532 681 c 0
 376 643 349 605 321 506 c 2
 299 431 l 2
 273 342 222 306 154 287 c 1
 214 265 242 232 216 143 c 2
 194 68 l 2
 166 -31 171 -69 305 -107 c 0
 310 -109 315 -115 312 -123 c 0
 309 -135 297 -141 287 -139 c 0
EndSplineSet
EndChar

StartChar: braceright
Encoding: 125 125 142
Width: 480
Flags: MW
HStem: 268 38<476.5 525>
LayerCount: 2
Fore
SplineSet
318 713 m 0
 477 679 491 615 461 512 c 1
 439 433 l 1
 416 355 425 306 528 306 c 0
 544 306 550 298 546 287 c 0
 543 276 533 268 517 268 c 0
 414 268 377 219 354 141 c 1
 332 62 l 1
 302 -41 252 -105 73 -139 c 0
 61 -141 53 -135 56 -123 c 0
 59 -115 66 -109 73 -107 c 0
 229 -69 256 -31 284 68 c 2
 306 143 l 2
 332 232 383 268 451 287 c 1
 391 309 363 342 389 431 c 2
 411 506 l 2
 439 605 434 643 300 681 c 0
 295 683 290 689 293 697 c 0
 296 709 308 715 318 713 c 0
EndSplineSet
EndChar

StartChar: divide
Encoding: 247 247 143
Width: 620
Flags: MW
HStem: 27 97<231 281> 27 217<231 253> 292 217<372 394 372 541> 412 97<344 394>
LayerCount: 2
Fore
SplineSet
84 244 m 2x60
 528 244 l 2
 541 244 554 255 560 268 c 1
 563 281 554 292 541 292 c 2
 97 292 l 2
 84 292 71 281 68 268 c 0
 64 255 71 244 84 244 c 2x60
383 509 m 0
 405 509 419 491 412 469 c 2
 407 452 l 2
 401 430 377 412 355 412 c 0x90
 333 412 321 430 327 452 c 2
 332 469 l 2
 339 491 361 509 383 509 c 0
270 124 m 0
 292 124 304 106 298 84 c 2
 293 67 l 2
 286 45 264 27 242 27 c 0
 220 27 206 45 213 67 c 2
 218 84 l 2
 224 106 248 124 270 124 c 0
EndSplineSet
EndChar

StartChar: aring
Encoding: 229 229 144
Width: 574
Flags: MW
HStem: 0 48<227 227 227 255.5> 443 47<246 341.5 239.5 346.5> 560 41<311.5 317 317 317> 697 39<328.5 355.5>
LayerCount: 2
Fore
SplineSet
512 490 m 1
 512 490 l 1
 525 490 535 480 532 466 c 2
 454 24 l 2
 452 11 439 0 426 0 c 0
 413 0 404 11 406 24 c 2
 419 97 l 1
 367 39 293 0 218 0 c 0
 89 0 6 111 29 245 c 0
 53 379 175 490 304 490 c 0
 379 490 440 452 472 394 c 1
 484 466 l 2
 487 480 499 490 512 490 c 1
227 48 m 1
 227 48 l 1
 328 48 426 135 445 245 c 0
 465 355 397 443 296 443 c 0
 196 443 97 355 77 245 c 0
 58 135 127 48 227 48 c 1
317 560 m 1
 317 560 l 1
 271 560 235 601 243 647 c 1
 243 648 l 1
 252 696 302 736 348 736 c 0
 397 736 433 696 424 648 c 1
 424 647 l 1
 416 601 366 560 317 560 c 1
324 601 m 0
 353 601 377 624 381 647 c 1
 381 648 l 1
 386 673 370 697 341 697 c 0
 316 697 291 673 286 648 c 1
 286 647 l 1
 282 624 299 601 324 601 c 0
EndSplineSet
EndChar

StartChar: Aring
Encoding: 197 197 145
Width: 790
Flags: MW
HStem: 0 21G<108 114 593.5 599.5> 1 21G<100 101.5 605 607> 181 49<252 535 252 545 226 535> 757 39<475.5 502.5>
LayerCount: 2
Fore
SplineSet
626 33 m 1x70
 626 33 l 1
 628 21 620 6 607 1 c 1x70
 603 1 601 0 598 0 c 0
 589 0 580 6 578 16 c 2
 545 181 l 1
 226 181 l 1
 135 16 l 2
 129 6 119 0 109 0 c 0xb0
 107 0 103 1 100 1 c 1
 89 6 84 21 92 33 c 1
 422 633 l 1
 399 648 385 677 390 707 c 1
 391 708 l 1
 399 756 449 796 495 796 c 0
 544 796 580 756 572 708 c 1
 571 707 l 1
 566 675 540 645 507 630 c 1
 626 33 l 1x70
433 707 m 1
 433 707 l 1
 431 694 435 681 443 673 c 0
 450 666 460 661 471 661 c 0
 481 661 491 664 500 669 c 0
 515 677 526 692 528 707 c 1
 529 708 l 1
 533 733 517 757 488 757 c 0
 463 757 438 733 434 708 c 1
 433 707 l 1
252 230 m 1
 535 230 l 1
 461 606 l 1
 252 230 l 1
EndSplineSet
EndChar

StartChar: ae
Encoding: 230 230 146
Width: 954
Flags: MW
HStem: 0 49 1 21G<648 677 677 678> 236 48<539 910 539 932 526 910> 442 49
VStem: 51 47<204 210 204 211.5> 910 48<284 286 286 286>
LayerCount: 2
Fore
SplineSet
247 0 m 0xbc
 190 0 140 22 105 59 c 0
 70 96 51 147 51 204 c 0
 51 219 52 234 55 249 c 0
 79 382 196 489 325 490 c 0
 382 490 432 468 467 431 c 0
 478 419 488 406 496 391 c 1
 510 470 l 2
 512 483 524 492 537 490 c 0
 550 487 559 475 557 462 c 2
 543 385 l 1
 596 449 673 490 756 491 c 0
 814 491 865 469 901 432 c 0
 937 395 958 343 958 286 c 0
 958 277 957 269 956 260 c 0
 956 258 955 256 955 254 c 0
 952 244 943 236 932 236 c 2
 526 236 l 1
 524 226 524 216 524 206 c 0
 524 115 586 50 678 49 c 0xbc
 744 49 811 85 855 140 c 0
 864 150 879 152 889 143 c 0
 899 135 901 120 892 110 c 0
 840 45 761 1 678 1 c 2
 677 1 l 2x7c
 619 1 568 23 532 60 c 0
 517 75 504 93 495 113 c 1
 479 20 l 2
 477 8 467 0 455 0 c 2
 451 0 l 1
 438 3 430 15 432 28 c 2
 443 92 l 1
 392 36 322 1 247 0 c 0xbc
102 241 m 0
 99 228 98 216 98 204 c 0
 99 113 159 49 247 48 c 0
 348 47 452 138 471 249 c 0
 473 262 474 274 474 286 c 0
 473 377 414 441 325 442 c 1
 324 442 l 2
 223 442 121 351 102 241 c 0
756 443 m 0
 665 444 573 375 539 284 c 1
 910 284 l 1
 910 286 l 1
 909 377 848 442 756 443 c 0
EndSplineSet
EndChar

StartChar: Scaron
Encoding: 352 352 147
Width: 640
Flags: MW
HStem: 0 44<308 308 308 316 271.5 342.5> 657 43<422 422 422 429 397.5 460> 700 220<397.5 404.5 393.5 429 393.5 429>
LayerCount: 2
Fore
SplineSet
485 849 m 1
 555 907 l 2
 569 918 576 920 589 920 c 0
 597 920 601 915 601 910 c 1
 600 906 599 903 594 898 c 2
 510 810 l 2
 500 799 492 792 480 792 c 2
 472 792 l 2
 460 792 454 799 446 810 c 2
 386 898 l 2
 383 903 382 906 383 910 c 1
 383 915 389 920 398 920 c 0
 411 920 419 918 429 907 c 2
 485 849 l 1
73 100 m 1
 73 100 l 1
 121 54 204 1 308 0 c 1
 308 0 l 1
 377 0 443 21 495 55 c 1
 495 55 l 1
 548 88 587 137 597 193 c 1
 597 193 l 1
 607 248 584 292 544 322 c 1
 544 322 l 1
 504 352 447 372 380 385 c 1
 378 385 l 1
 378 385 l 1
 319 396 271 414 240 437 c 1
 240 437 l 1
 210 460 198 486 204 521 c 1
 204 521 l 1
 210 556 236 589 275 615 c 1
 275 615 l 1
 314 640 367 657 422 657 c 1
 422 657 l 1xc0
 498 657 550 619 598 584 c 1
 598 584 l 1
 607 577 621 580 630 590 c 1
 630 590 l 1
 638 600 638 614 629 620 c 1
 629 620 l 1
 581 656 520 700 429 700 c 1
 429 700 l 1
 366 700 304 682 255 650 c 1
 255 650 l 1
 207 619 170 573 161 521 c 1
 161 521 l 1
 151 469 172 428 210 400 c 1
 210 400 l 1
 247 372 300 354 362 342 c 1
 364 342 l 1
 364 342 l 1
 428 329 481 311 514 286 c 1
 514 286 l 1
 547 260 560 232 553 193 c 1
 553 193 l 1
 547 154 519 118 476 90 c 1
 476 90 l 1
 433 62 376 44 316 44 c 1
 316 44 l 1
 227 44 150 92 106 133 c 1
 106 133 l 1
 98 141 84 140 75 130 c 1
 75 130 l 1
 66 121 65 107 73 100 c 1
EndSplineSet
EndChar

StartChar: scaron
Encoding: 353 353 148
Width: 497
Flags: MW
HStem: 0 48<224 224 224 232 204 248> 443 47<300 300 300 309 286.5 324> 443 149<300 376.5 300 376.5> 700 20G<479 487 487 493>
LayerCount: 2
Fore
SplineSet
60 69 m 1xd0
 60 69 l 1
 93 38 150 1 224 0 c 1
 224 0 l 1
 272 0 318 14 356 39 c 1
 356 39 l 1
 393 63 422 98 429 139 c 1
 429 139 l 1
 437 180 420 213 391 234 c 1
 391 234 l 1
 363 255 323 269 277 277 c 1
 275 278 l 1
 275 278 l 1
 237 285 205 297 186 311 c 1
 186 311 l 1
 168 326 161 340 165 360 c 1
 165 360 l 1
 168 380 183 400 207 416 c 1
 207 416 l 1
 232 432 265 443 300 443 c 1
 300 443 l 1
 348 443 382 419 415 395 c 1
 415 395 l 1
 424 388 440 391 449 402 c 1
 449 402 l 1
 458 413 458 428 448 435 c 1
 448 435 l 1
 415 459 373 490 309 490 c 1
 309 490 l 1
 264 490 221 477 186 455 c 1
 186 455 l 1
 151 432 124 399 117 360 c 1
 117 360 l 1
 110 322 126 291 153 271 c 1
 153 271 l 1
 179 251 216 239 259 231 c 1
 260 230 l 1
 260 230 l 1
 302 222 337 210 357 194 c 1
 357 194 l 1
 378 178 385 162 381 139 c 1
 381 139 l 1
 378 117 361 95 334 77 c 1
 334 77 l 1
 308 60 271 48 232 48 c 1
 232 48 l 1
 176 48 125 79 97 106 c 1
 97 106 l 1
 88 115 72 113 62 103 c 1
 62 103 l 1
 52 93 51 78 60 69 c 1xd0
474 663 m 1
 404 605 l 2
 390 594 383 592 370 592 c 0
 362 592 358 597 358 602 c 1
 359 606 360 609 365 614 c 2
 449 702 l 2
 459 713 467 720 479 720 c 2
 487 720 l 2
 499 720 505 713 513 702 c 2
 573 614 l 2
 576 609 577 606 576 602 c 1
 576 597 570 592 561 592 c 0xb0
 548 592 540 594 530 605 c 2
 474 663 l 1
EndSplineSet
EndChar

StartChar: quotedblbase
Encoding: 8222 8222 149
Width: 410
Flags: MW
HStem: -97 21G<64.5 72.5 244.5 252.5> 77 20G<147 165 327 345>
LayerCount: 2
Fore
SplineSet
56 -82 m 0
 57 -77 61 -72 67 -69 c 0
 108 -49 126 -27 131 8 c 1
 117 12 107 23 111 43 c 2
 115 64 l 1
 120 82 138 97 156 97 c 0
 174 97 186 82 181 64 c 1
 176 39 l 2
 164 -17 149 -47 128 -65 c 1
 105 -83 77 -97 68 -97 c 0
 61 -97 54 -92 56 -82 c 0
236 -82 m 0
 237 -77 241 -72 247 -69 c 0
 288 -49 306 -27 311 8 c 1
 297 12 287 23 291 43 c 2
 295 64 l 1
 300 82 318 97 336 97 c 0
 354 97 366 82 361 64 c 1
 356 39 l 2
 344 -17 329 -47 308 -65 c 1
 285 -83 257 -97 248 -97 c 0
 241 -97 234 -92 236 -82 c 0
EndSplineSet
EndChar

StartChar: ellipsis
Encoding: 8230 8230 150
Width: 680
Flags: MW
HStem: 0 115<138.5 150 379.5 391 620.5 632>
LayerCount: 2
Fore
SplineSet
202 58 m 1
 195 25 167 0 133 0 c 0
 100 0 82 25 89 58 c 1
 94 90 122 115 155 115 c 0
 189 115 207 90 202 58 c 1
443 58 m 1
 436 25 408 0 374 0 c 0
 341 0 323 25 330 58 c 1
 335 90 363 115 396 115 c 0
 430 115 448 90 443 58 c 1
684 58 m 1
 677 25 649 0 615 0 c 0
 582 0 564 25 571 58 c 1
 576 90 604 115 637 115 c 0
 671 115 689 90 684 58 c 1
EndSplineSet
EndChar

StartChar: yen
Encoding: 165 165 151
Width: 686
Flags: MW
HStem: 0 222<226.5 240> 167 55<72 242 88 234 88 282 290 436> 322 55<94 234 110 234 110 256 340 458>
LayerCount: 2
Fore
SplineSet
213 24 m 2xa0
 234 167 l 1
 80 167 l 2
 64 167 53 179 56 195 c 0
 58 209 72 222 88 222 c 2
 242 222 l 1
 256 322 l 1
 102 322 l 2
 86 322 76 334 78 349 c 0
 81 365 94 377 110 377 c 2
 234 377 l 1
 71 657 l 2
 65 668 70 684 81 691 c 1
 93 700 109 698 114 687 c 1
 289 386 l 1
 553 687 l 2
 562 698 578 700 588 691 c 1
 598 684 597 668 588 657 c 2
 340 377 l 1
 466 377 l 2
 482 377 493 365 490 349 c 0
 488 334 474 322 458 322 c 2
 304 322 l 1
 290 222 l 1
 444 222 l 2
 460 222 470 209 468 195 c 0
 465 179 452 167 436 167 c 2
 282 167 l 1x60
 261 24 l 2
 259 11 247 0 233 0 c 0
 220 0 211 11 213 24 c 2xa0
EndSplineSet
EndChar

StartChar: sterling
Encoding: 163 163 152
Width: 644
Flags: MW
HStem: 0 47<216 558> 305 48<154.5 238 172 227 172 278 289 556> 663 47<508.5 565.5>
LayerCount: 2
Fore
SplineSet
67 13 m 0
 69 20 74 25 83 27 c 2
 164 45 l 1
 227 305 l 1
 161 305 l 2
 148 305 139 316 142 329 c 0
 145 342 159 353 172 353 c 2
 238 353 l 1
 266 471 l 2
 284 546 323 610 375 652 c 0
 421 689 478 710 539 710 c 0
 637 710 685 669 716 617 c 0
 719 612 721 605 719 598 c 0
 715 584 702 574 688 574 c 0
 679 574 674 578 670 583 c 0
 641 629 605 663 526 663 c 0
 478 663 438 648 403 620 c 0
 362 587 333 536 318 472 c 2
 289 353 l 1
 567 353 l 2
 580 353 588 342 585 329 c 0
 582 316 569 305 556 305 c 2
 278 305 l 1
 216 47 l 1
 570 47 l 2
 583 47 591 36 588 23 c 0
 585 10 571 0 558 0 c 2
 77 0 l 2
 70 0 66 6 67 13 c 0
EndSplineSet
EndChar

StartChar: florin
Encoding: 402 402 153
Width: 506
Flags: MW
HStem: -5 44<81 108.5 77.5 129> 384 45<122 226 128 218 280 416> 661 44<372.5 406.5 355 413>
LayerCount: 2
Fore
SplineSet
94 -5 m 0
 68 -5 56 4 56 17 c 0
 56 32 68 39 87 39 c 0
 130 39 159 65 169 121 c 2
 218 384 l 1
 128 384 l 2
 116 384 105 394 105 406 c 0
 105 419 116 429 128 429 c 2
 226 429 l 1
 252 565 l 2
 271 664 315 705 395 705 c 0
 418 705 434 704 454 699 c 0
 467 696 474 688 474 676 c 0
 474 664 464 655 452 655 c 0
 445 655 426 661 400 661 c 0
 345 661 318 633 305 562 c 2
 280 429 l 1
 416 429 l 2
 428 429 439 418 439 406 c 0
 439 394 428 384 416 384 c 2
 272 384 l 1
 222 118 l 2
 206 35 164 -5 94 -5 c 0
EndSplineSet
EndChar

StartChar: dagger
Encoding: 8224 8224 154
Width: 410
Flags: MW
HStem: 238 21G<148 160> 525 37 525 183
LayerCount: 2
Fore
SplineSet
136 261 m 2xc0
 188 528 l 1
 81 522 l 2
 68 521 59 531 61 543 c 0
 63 555 76 566 88 565 c 2
 192 559 l 1
 208 682 l 2
 209 697 221 708 236 708 c 0xa0
 251 708 259 697 256 682 c 2
 228 559 l 1
 334 565 l 2
 346 566 355 555 353 543 c 0
 351 531 338 521 327 522 c 2
 222 528 l 1
 180 261 l 2
 177 247 166 238 154 238 c 0
 142 238 133 247 136 261 c 2xc0
EndSplineSet
EndChar

StartChar: daggerdbl
Encoding: 8225 8225 155
Width: 430
Flags: MW
HStem: 0 183 146 37 525 37 525 183
LayerCount: 2
Fore
SplineSet
168 26 m 2x60
 196 149 l 1
 90 143 l 2
 78 142 69 153 71 165 c 0
 73 177 86 187 97 186 c 2
 202 180 l 1
 228 354 l 1
 264 528 l 1
 157 522 l 2
 144 521 135 531 137 543 c 0
 139 555 152 566 164 565 c 2
 268 559 l 1
 284 682 l 2
 285 697 297 708 312 708 c 0x50
 327 708 335 697 332 682 c 2
 304 559 l 1
 410 565 l 2
 422 566 431 555 429 543 c 0
 427 531 414 521 403 522 c 2
 298 528 l 1
 272 354 l 1
 236 180 l 1
 343 186 l 2
 356 187 365 177 363 165 c 0
 361 153 348 142 336 143 c 2
 232 149 l 1
 216 26 l 2
 214 11 203 0 188 0 c 0xa0
 173 0 164 11 168 26 c 2x60
EndSplineSet
EndChar

StartChar: Ydieresis
Encoding: 376 376 156
Width: 716
Flags: MW
HStem: -1 21G<203 208 203 204> 770 71<277.5 285 444.5 452>
LayerCount: 2
Fore
SplineSet
317 805 m 1
 313 786 295 770 275 770 c 0
 255 770 242 786 246 805 c 1
 249 825 268 841 287 841 c 0
 307 841 320 825 317 805 c 1
484 805 m 1
 480 786 462 770 442 770 c 0
 422 770 409 786 413 805 c 1
 416 825 435 841 454 841 c 0
 474 841 487 825 484 805 c 1
581 658 m 2
 287 334 l 1
 232 19 l 2
 230 7 219 -1 208 -1 c 0
 206 -1 205 -1 203 -1 c 0
 190 1 181 14 183 27 c 2
 239 341 l 1
 61 662 l 2
 54 674 59 689 70 695 c 0
 82 702 97 698 104 686 c 2
 269 387 l 1
 544 690 l 2
 553 700 569 701 579 692 c 0
 589 683 590 668 581 658 c 2
EndSplineSet
EndChar

StartChar: guillemotright
Encoding: 187 187 157
Width: 515
Flags: MW
HStem: 44 21G<82 92 286 296> 448 20G<156 166.5 366 366 366 370>
LayerCount: 2
Fore
SplineSet
366 468 m 1
 366 468 l 1
 374 468 380 464 383 457 c 2
 489 278 l 2
 494 269 496 263 495 256 c 0
 494 249 490 243 481 234 c 2
 313 55 l 2
 306 48 300 44 292 44 c 0
 280 44 271 53 273 65 c 0
 274 71 277 77 282 82 c 2
 439 255 l 1
 344 430 l 2
 341 435 340 441 341 447 c 0
 343 459 354 468 366 468 c 1
162 468 m 0
 171 468 176 464 179 457 c 2
 285 278 l 2
 290 269 292 263 291 256 c 0
 290 249 286 243 277 234 c 2
 109 55 l 2
 102 48 96 44 88 44 c 0
 76 44 67 53 69 65 c 0
 70 71 73 77 78 82 c 2
 235 255 l 1
 140 430 l 2
 137 436 134 440 137 447 c 1
 140 459 150 468 162 468 c 0
EndSplineSet
EndChar

StartChar: guillemotleft
Encoding: 171 171 158
Width: 515
Flags: MW
HStem: 44 21G<181 191 384.5 395> 448 20G<255 265 459 469>
LayerCount: 2
Fore
SplineSet
185 44 m 0
 177 44 171 48 168 55 c 2
 62 234 l 2
 57 243 55 249 56 256 c 0
 57 263 61 269 70 278 c 2
 238 457 l 2
 245 464 251 468 259 468 c 0
 271 468 280 459 278 447 c 0
 277 441 274 435 269 430 c 2
 112 257 l 1
 207 82 l 2
 210 77 211 71 210 65 c 0
 208 53 197 44 185 44 c 0
389 44 m 0
 380 44 375 48 372 55 c 2
 266 234 l 2
 261 243 259 249 260 256 c 0
 261 263 265 269 274 278 c 2
 442 457 l 2
 449 464 455 468 463 468 c 0
 475 468 484 459 482 447 c 0
 481 441 478 435 473 430 c 2
 316 257 l 1
 411 82 l 2
 414 76 417 72 414 65 c 1
 411 53 401 44 389 44 c 0
EndSplineSet
EndChar

StartChar: AE
Encoding: 198 198 159
Width: 1045
Flags: MW
HStem: 1 21G<50.5 61.5> 6 48<512 969 553 961> 202 47<264 527 227 536> 335 48<611 969 603 977> 658 48<660 1071 660 660>
LayerCount: 2
Fore
SplineSet
37 25 m 1xb8
 37 25 l 1
 38 29 41 34 44 39 c 2
 553 690 l 2
 561 700 569 706 582 706 c 2
 1079 706 l 2
 1092 706 1101 695 1099 682 c 0
 1097 669 1084 658 1071 658 c 2
 660 658 l 1
 611 383 l 1
 977 383 l 2
 990 383 999 372 997 359 c 0
 995 346 982 335 969 335 c 2
 603 335 l 1
 553 54 l 1
 969 54 l 2
 982 54 991 43 989 30 c 0
 987 17 974 6 961 6 c 2
 519 6 l 2x78
 505 6 495 18 497 32 c 2
 527 202 l 1
 227 202 l 1
 81 14 l 2
 75 6 66 1 57 1 c 0
 44 1 35 12 37 25 c 1xb8
264 249 m 1
 536 249 l 1
 608 659 l 1
 582 659 l 1
 264 249 l 1
EndSplineSet
EndChar

StartChar: Ccedilla
Encoding: 199 199 160
Width: 738
Flags: MW
HStem: -131 177<293 448.5> -1 47<404 404> 676 47<427 560>
LayerCount: 2
Fore
SplineSet
675 108 m 0xa0
 595 44 513 2 404 -1 c 1x60
 330 -111 l 2
 322 -123 316 -131 301 -131 c 0
 285 -131 269 -118 271 -107 c 0
 272 -103 273 -99 279 -92 c 2
 358 1 l 1
 178 17 73 169 106 359 c 1
 106 361 l 1
 141 559 318 723 520 723 c 0
 636 723 702 683 760 625 c 0
 764 620 768 613 766 604 c 0
 764 590 749 578 735 578 c 0
 728 578 721 581 718 585 c 0
 669 638 609 676 511 676 c 0
 343 676 192 539 161 363 c 1
 160 361 l 1
 129 184 234 46 401 46 c 0
 496 46 569 80 646 143 c 0
 651 147 657 151 665 151 c 0
 678 151 688 139 686 126 c 0
 685 118 680 112 675 108 c 0xa0
EndSplineSet
EndChar

StartChar: ccedilla
Encoding: 231 231 161
Width: 571
Flags: MW
HStem: -127 176<195 338> 3 46<306 306> 491 46<321 413.5>
LayerCount: 2
Fore
SplineSet
507 91 m 0xa0
 449 41 387 7 306 3 c 1x60
 233 -107 l 2
 225 -119 218 -127 203 -127 c 0
 187 -127 172 -114 174 -103 c 0
 174 -99 176 -95 181 -88 c 2
 261 5 l 1
 134 22 58 136 81 268 c 1
 81 270 l 1
 107 413 242 537 388 537 c 0
 476 537 528 499 566 456 c 0
 570 452 571 445 570 438 c 0
 568 424 555 413 541 413 c 0
 535 413 528 415 525 419 c 0
 491 458 448 491 379 491 c 0
 263 491 156 394 135 272 c 1
 134 270 l 1
 113 147 188 49 305 49 c 0
 371 49 430 81 478 122 c 0
 483 126 489 130 496 130 c 0
 508 130 518 118 515 106 c 1
 515 101 512 95 507 91 c 0xa0
EndSplineSet
EndChar

StartChar: multiply
Encoding: 215 215 162
Width: 620
Flags: MW
HStem: 142 21G<115.5 125.5 489 500> 542 20G<190 201 564.5 574.5>
LayerCount: 2
Fore
SplineSet
577 520 m 2
 378 353 l 1
 517 187 l 2
 521 182 524 175 522 167 c 0
 520 153 507 142 493 142 c 0
 485 142 479 146 475 151 c 2
 338 319 l 1
 141 150 l 2
 135 145 129 142 122 142 c 0
 109 142 100 153 102 166 c 0
 103 173 107 179 113 184 c 2
 312 351 l 1
 173 517 l 2
 169 522 166 529 168 537 c 0
 170 551 183 562 197 562 c 0
 205 562 211 558 215 553 c 2
 352 385 l 1
 549 554 l 2
 554 559 561 562 568 562 c 0
 581 562 590 551 588 538 c 0
 587 531 582 525 577 520 c 2
EndSplineSet
EndChar

StartChar: oslash
Encoding: 248 248 163
Width: 640
Flags: MW
HStem: 1 46<276.5 319 309 319> 489 46<334.5 421.5> 514 20G<635 643.5>
LayerCount: 2
Fore
SplineSet
309 1 m 1xa0
 309 1 l 1
 244 1 190 24 152 61 c 1
 96 12 l 2
 90 7 82 4 76 4 c 0
 65 4 58 12 60 23 c 0
 61 28 64 34 68 38 c 2
 128 90 l 1
 96 138 83 199 95 266 c 1
 95 268 l 1
 120 411 253 535 405 535 c 0xc0
 470 535 524 512 561 474 c 1
 618 526 l 2
 624 531 632 534 638 534 c 0
 649 534 656 526 655 515 c 0
 654 510 651 504 646 500 c 2
 585 446 l 1
 618 399 631 337 619 270 c 1
 619 268 l 1
 594 125 461 1 309 1 c 1xa0
319 47 m 1
 319 47 l 1
 440 47 544 146 566 266 c 1
 566 268 l 1
 575 322 566 371 543 409 c 1
 191 99 l 1
 222 66 266 47 319 47 c 1
148 268 m 1
 138 214 147 165 170 127 c 1
 523 436 l 1
 491 469 448 489 395 489 c 0
 274 489 169 390 148 270 c 1
 148 268 l 1
EndSplineSet
EndChar

StartChar: Oslash
Encoding: 216 216 164
Width: 850
Flags: MW
HStem: -20 20G<87 96.5> -3 47<376.5 405 405 405> 674 47<437.5 562.5>
LayerCount: 2
Fore
SplineSet
405 -3 m 1x60
 405 -3 l 1x60
 313 -3 242 28 192 79 c 1
 112 8 l 2
 106 3 100 0 93 0 c 0xa0
 81 0 73 9 75 21 c 0
 76 27 79 33 84 37 c 2
 165 110 l 1
 119 176 101 264 118 357 c 1
 118 359 l 1
 152 550 323 721 535 721 c 0
 626 721 698 689 748 638 c 1
 828 710 l 2
 834 715 840 718 847 718 c 0
 859 718 867 709 865 697 c 0
 863 691 860 685 856 681 c 2
 774 607 l 1
 821 542 839 454 822 361 c 1
 822 359 l 1
 788 168 617 -3 405 -3 c 1x60
172 359 m 1
 172 359 l 1
 158 278 172 205 209 149 c 1
 707 599 l 1
 664 645 601 674 524 674 c 0
 351 674 203 534 172 361 c 1
 172 359 l 1
415 44 m 0
 588 44 737 184 768 357 c 1
 768 359 l 1
 782 439 767 512 731 568 c 1
 232 119 l 1
 275 72 338 44 415 44 c 0
EndSplineSet
EndChar

StartChar: Eth
Encoding: 208 208 165
Width: 812
Flags: MW
HStem: 1 49<156 253 120 262> 331 38<66.5 163 79 156 212 285> 652 49<262 368 262 262>
LayerCount: 2
Fore
SplineSet
72 331 m 2
 61 331 55 339 57 351 c 0
 59 362 68 369 79 369 c 2
 163 369 l 1
 217 677 l 2
 220 690 233 701 246 701 c 2
 377 701 l 2
 570 701 699 543 665 350 c 0
 631 157 446 1 253 1 c 2
 120 1 l 1
 108 2 100 12 102 25 c 2
 156 331 l 1
 72 331 l 2
262 50 m 2
 428 50 587 184 616 350 c 0
 645 517 534 651 368 652 c 1
 262 652 l 1
 212 369 l 1
 292 369 l 2
 302 369 310 362 308 351 c 0
 306 339 295 331 285 331 c 2
 205 331 l 1
 156 50 l 1
 262 50 l 2
EndSplineSet
EndChar

StartChar: eth
Encoding: 240 240 166
Width: 628
Flags: MW
HStem: -2 46<242 361 242 366.5> 452 44<303.5 405.5 302 422.5> 726 20G<555.5 563>
LayerCount: 2
Fore
SplineSet
531 433 m 1
 420 641 l 1
 287 579 l 2
 283 577 278 576 275 576 c 0
 263 576 255 587 257 599 c 0
 259 609 266 615 275 619 c 2
 402 676 l 1
 388 702 l 2
 386 706 384 713 385 720 c 0
 388 733 401 744 415 744 c 0
 426 744 431 738 435 731 c 2
 451 699 l 1
 544 743 l 2
 549 745 554 746 557 746 c 0
 569 746 577 735 575 723 c 0
 573 713 566 707 557 703 c 2
 469 663 l 1
 549 502 l 2
 588 424 610 355 593 258 c 0
 569 120 445 -2 288 -2 c 0
 144 -2 58 116 82 254 c 0
 108 399 239 496 365 496 c 0
 446 496 493 467 531 433 c 1
539 253 m 0
 558 362 482 452 363 452 c 0
 244 452 155 364 135 251 c 0
 116 144 183 44 301 44 c 0
 421 44 519 142 539 253 c 0
EndSplineSet
EndChar

StartChar: cent
Encoding: 162 162 167
Width: 581
Flags: MW
HStem: -10 21G<191 205.5> 88 46<301 339 301 340> 576 46<323 405 381 405> 690 20G
LayerCount: 2
Fore
SplineSet
181 21 m 2
 212 103 l 1
 116 139 62 239 82 353 c 1
 83 355 l 1
 108 498 244 622 390 622 c 2
 405 622 l 1
 430 690 l 2
 434 700 444 710 457 710 c 0
 473 710 483 697 476 679 c 2
 452 615 l 1
 504 602 539 572 567 540 c 0
 572 534 574 528 573 520 c 0
 570 506 559 495 545 495 c 0
 536 495 531 498 527 503 c 0
 502 532 473 558 432 569 c 1
 271 137 l 1
 283 135 295 134 307 134 c 0
 371 134 428 163 480 207 c 0
 486 212 492 216 500 216 c 0
 512 216 520 205 518 193 c 0
 517 186 513 181 508 177 c 0
 450 125 384 88 296 88 c 0
 283 88 270 88 257 90 c 1
 227 10 l 2
 223 0 212 -10 199 -10 c 0
 183 -10 174 3 181 21 c 2
136 355 m 1
 119 261 160 181 233 149 c 1
 390 576 l 1
 381 576 l 2
 265 576 158 479 136 357 c 1
 136 355 l 1
EndSplineSet
EndChar

StartChar: bar
Encoding: 124 124 168
Width: 286
Flags: MW
HStem: -138 21G<136 148> 776 20G<300 312>
LayerCount: 2
Fore
SplineSet
123 -116 m 2
 280 774 l 2
 283 786 294 796 306 796 c 0
 318 796 327 786 324 774 c 2
 167 -116 l 2
 165 -128 154 -138 142 -138 c 0
 130 -138 121 -128 123 -116 c 2
EndSplineSet
EndChar

StartChar: asciicircum
Encoding: 94 94 169
Width: 500
Flags: MW
HStem: 488 21G<88.5 100.5 396 409> 686 20G<283 291 291 297>
LayerCount: 2
Fore
SplineSet
278 659 m 1
 130 502 l 2
 120 491 108 488 93 488 c 0
 84 488 80 494 81 499 c 0
 81 503 83 506 88 512 c 2
 252 688 l 2
 263 699 271 706 283 706 c 2
 291 706 l 2
 303 706 309 699 316 688 c 2
 418 512 l 2
 421 506 421 503 421 499 c 0
 420 494 414 488 404 488 c 0
 388 488 376 491 370 502 c 2
 278 659 l 1
EndSplineSet
EndChar

StartChar: asciitilde
Encoding: 126 126 170
Width: 460
Flags: MW
HStem: 240 21G<98 108> 251 52<277 305 277 312> 292 52<155 183> 335 20G<352.5 362>
LayerCount: 2
Fore
SplineSet
121 254 m 0xa0
 118 248 113 240 103 240 c 0
 93 240 85 247 85 257 c 0
 85 260 86 266 87 269 c 0
 106 327 130 344 166 344 c 0xa0
 204 344 260 303 294 303 c 0
 316 303 327 314 339 341 c 0
 342 347 348 355 357 355 c 0
 367 355 375 348 375 338 c 0
 375 335 374 329 373 326 c 0
 354 268 330 251 294 251 c 0x50
 256 251 200 292 166 292 c 0
 144 292 133 281 121 254 c 0xa0
EndSplineSet
EndChar

StartChar: dieresis
Encoding: 168 168 171
Width: 500
Flags: MW
HStem: 594 86<176 185 341 350>
LayerCount: 2
Fore
SplineSet
138 637 m 0
 142 661 164 680 188 680 c 0
 212 680 228 661 224 637 c 0
 219 613 197 594 173 594 c 0
 149 594 133 613 138 637 c 0
303 637 m 0
 307 661 329 680 353 680 c 0
 377 680 393 661 389 637 c 0
 384 613 362 594 338 594 c 0
 314 594 298 613 303 637 c 0
EndSplineSet
EndChar

StartChar: bullet
Encoding: 8226 8226 172
Width: 470
Flags: MW
HStem: 228 248<238.5 258>
LayerCount: 2
Fore
SplineSet
224 228 m 0
 156 228 111 283 123 351 c 1
 124 353 l 1
 136 421 206 476 271 476 c 0
 335 476 384 421 372 353 c 1
 371 351 l 1
 359 283 292 228 224 228 c 0
EndSplineSet
EndChar

StartChar: percent
Encoding: 65536 -1 173
Width: 824
Flags: MW
HStem: 1 43<517 536 536 536> 316 43<561.5 619> 359 43<147 203 193 203> 674 43<218.5 276>
LayerCount: 2
Fore
SplineSet
193 359 m 1
 193 359 l 1
 101 359 55 443 71 536 c 1
 72 538 l 1
 88 632 165 717 258 717 c 0
 350 717 396 632 380 540 c 1
 380 538 l 1
 363 444 286 359 193 359 c 1
72 26 m 1
 72 26 l 1
 73 31 75 35 79 39 c 2
 682 702 l 2
 689 709 695 713 703 713 c 0
 715 713 724 704 722 692 c 0
 721 687 719 683 715 679 c 2
 111 16 l 2
 105 9 99 5 91 5 c 0
 79 5 70 14 72 26 c 1
536 1 m 1
 536 1 l 1
 444 1 398 85 414 178 c 1
 414 180 l 1
 431 274 508 359 601 359 c 0
 693 359 739 274 723 182 c 1
 722 180 l 1
 706 86 629 1 536 1 c 1
203 402 m 1xb0
 203 402 l 1
 262 402 314 461 327 536 c 1
 328 538 l 1
 341 616 304 674 248 674 c 0
 189 674 137 613 124 540 c 1
 124 538 l 1
 110 459 147 402 203 402 c 1xb0
545 44 m 0
 604 44 657 103 670 178 c 1
 670 180 l 1
 684 258 647 316 591 316 c 0xd0
 532 316 480 255 467 182 c 1
 466 180 l 1
 452 101 489 44 545 44 c 0
EndSplineSet
EndChar

StartChar: OE
Encoding: 338 338 174
Width: 1152
Flags: MW
HStem: 0 49<241.5 376.5 666 992> 325 49<723 1008 715 1016> 660 40 690 20G<343.5 502.5>
LayerCount: 2
Fore
SplineSet
613 24 m 1xe0
 642 189 l 1
 566 76 441 0 312 0 c 0
 123 0 3 159 37 355 c 1
 73 551 249 710 438 710 c 0xd0
 567 710 664 633 700 521 c 1
 728 676 l 2
 730 689 743 700 756 700 c 2
 1116 700 l 2
 1130 700 1138 689 1136 676 c 0
 1133 662 1121 651 1107 651 c 2
 772 651 l 1
 723 374 l 1
 1016 374 l 2
 1029 374 1038 363 1036 349 c 0
 1034 336 1021 325 1008 325 c 2
 715 325 l 1
 666 49 l 1
 1001 49 l 2
 1015 49 1023 38 1021 24 c 1
 1018 11 1006 0 992 0 c 2
 630 0 l 1
 619 1 610 11 613 24 c 1
 613 24 l 1xe0
86 355 m 0
 56 184 162 49 321 49 c 0
 475 49 629 184 660 355 c 1
 689 528 583 660 429 660 c 0xe0
 270 660 116 528 86 355 c 0
EndSplineSet
EndChar

StartChar: guilsinglleft
Encoding: 8249 8249 175
Width: 311
Flags: MW
HStem: 45 21G<181 191> 449 20G<255 265>
LayerCount: 2
Fore
SplineSet
185 45 m 0
 177 45 171 49 168 56 c 2
 62 235 l 2
 57 244 55 250 56 257 c 0
 57 264 61 270 70 279 c 2
 238 458 l 2
 245 465 251 469 259 469 c 0
 271 469 280 460 278 448 c 0
 277 442 274 436 269 431 c 2
 112 258 l 1
 207 83 l 2
 210 78 211 72 210 66 c 0
 208 54 197 45 185 45 c 0
EndSplineSet
EndChar

StartChar: guilsinglright
Encoding: 8250 8250 176
Width: 311
Flags: MW
HStem: 45 21G<82 92> 449 20G<156 166>
LayerCount: 2
Fore
SplineSet
162 469 m 0
 170 469 176 465 179 458 c 2
 285 279 l 2
 290 270 292 264 291 257 c 0
 290 250 286 244 277 235 c 2
 109 56 l 2
 102 49 96 45 88 45 c 0
 76 45 67 54 69 66 c 0
 70 72 73 78 78 83 c 2
 235 256 l 1
 140 431 l 2
 137 436 136 442 137 448 c 0
 139 460 150 469 162 469 c 0
EndSplineSet
EndChar

StartChar: endash
Encoding: 8211 8211 177
Width: 528
Flags: MW
HStem: 271 52<83 443 99 434>
LayerCount: 2
Fore
SplineSet
90 271 m 2
 76 271 66 283 69 297 c 0
 71 311 85 323 99 323 c 2
 443 323 l 2
 457 323 467 311 465 297 c 0
 462 283 448 271 434 271 c 2
 90 271 l 2
EndSplineSet
EndChar

StartChar: emdash
Encoding: 8212 8212 178
Width: 898
Flags: MW
HStem: 271 52<82 816 102 803>
LayerCount: 2
Fore
SplineSet
89 271 m 2
 75 271 66 283 70 297 c 0
 73 311 88 323 102 323 c 2
 816 323 l 2
 830 323 839 311 836 297 c 0
 832 283 817 271 803 271 c 2
 89 271 l 2
EndSplineSet
EndChar

StartChar: Acircumflex
Encoding: 194 194 179
Width: 646
Flags: MW
HStem: 0 21G<81 87 568 574.5 574 579> 182 49<224 508 224 518 197 508> 680 20G<438.5 468> 900 20G<475 483 483 489>
LayerCount: 2
Fore
SplineSet
518 182 m 1
 197 182 l 1
 104 13 l 2
 100 5 91 0 83 0 c 0
 79 0 75 1 71 3 c 0
 59 10 55 24 61 36 c 2
 421 687 l 2
 425 696 434 700 443 700 c 0
 455 700 466 692 468 680 c 2
 598 29 l 2
 600 16 592 3 579 0 c 0
 577 0 575 0 574 0 c 0
 562 0 552 8 550 20 c 2
 518 182 l 1
508 231 m 1
 433 608 l 1
 224 231 l 1
 508 231 l 1
470 863 m 1
 400 805 l 2
 386 794 379 792 366 792 c 0
 358 792 354 797 354 802 c 1
 355 806 356 809 361 814 c 2
 445 902 l 2
 455 913 463 920 475 920 c 2
 483 920 l 2
 495 920 501 913 509 902 c 2
 569 814 l 2
 572 809 573 806 572 802 c 1
 572 797 566 792 557 792 c 0
 544 792 536 794 526 805 c 2
 470 863 l 1
EndSplineSet
EndChar

StartChar: Adieresis
Encoding: 196 196 180
Width: 646
Flags: MW
HStem: 0 21G<81 87 568 574.5 574 579> 182 49<224 508 224 518 197 508> 680 20G<438.5 468> 794 86<387 396 552 561>
LayerCount: 2
Fore
SplineSet
518 182 m 1
 197 182 l 1
 104 13 l 2
 100 5 91 0 83 0 c 0
 79 0 75 1 71 3 c 0
 59 10 55 24 61 36 c 2
 421 687 l 2
 425 696 434 700 443 700 c 0
 455 700 466 692 468 680 c 2
 598 29 l 2
 600 16 592 3 579 0 c 0
 577 0 575 0 574 0 c 0
 562 0 552 8 550 20 c 2
 518 182 l 1
508 231 m 1
 433 608 l 1
 224 231 l 1
 508 231 l 1
349 837 m 0
 353 861 375 880 399 880 c 0
 423 880 439 861 435 837 c 0
 430 813 408 794 384 794 c 0
 360 794 344 813 349 837 c 0
514 837 m 0
 518 861 540 880 564 880 c 0
 588 880 604 861 600 837 c 0
 595 813 573 794 549 794 c 0
 525 794 509 813 514 837 c 0
EndSplineSet
EndChar

StartChar: Ecircumflex
Encoding: 202 202 181
Width: 593
Flags: MW
HStem: -2 49<126 491 126 491 130 491 131 491 159 491 159 491> 323 49<217 507 217 507 208 507> 649 49<266 606 266 266> 698 94<353 363.5 541.5 552.5> 900 20G<466 474 474 480>
LayerCount: 2
Fore
SplineSet
126 -2 m 0
 113 1 104 13 106 27 c 2
 221 678 l 2
 223 690 234 698 246 698 c 2
 247 698 l 1
 606 698 l 2
 619 698 630 687 630 673 c 0
 630 660 619 649 606 649 c 2
 266 649 l 1
 217 372 l 1
 507 372 l 2
 520 372 531 361 531 348 c 0
 531 334 520 323 507 323 c 2
 208 323 l 1
 159 47 l 1
 491 47 l 2
 504 47 515 36 515 22 c 0
 515 9 504 -2 491 -2 c 2
 132 -2 l 1
 132 -2 132 -2 131 -2 c 2
 131 -2 131 -2 130 -2 c 0
 129 -2 128 -2 126 -2 c 0
461 863 m 1
 391 805 l 2
 377 794 370 792 357 792 c 0
 349 792 345 797 345 802 c 1
 346 806 347 809 352 814 c 2
 436 902 l 2
 446 913 454 920 466 920 c 2
 474 920 l 2
 486 920 492 913 500 902 c 2
 560 814 l 2
 563 809 564 806 563 802 c 1
 563 797 557 792 548 792 c 0xd8
 535 792 527 794 517 805 c 2
 461 863 l 1
EndSplineSet
EndChar

StartChar: Edieresis
Encoding: 203 203 182
Width: 593
Flags: MW
HStem: -2 49<126 491 126 491 130 491 131 491 159 491 159 491> 323 49<217 507 217 507 208 507> 649 49<266 606 266 266> 794 86<378 387 543 552>
LayerCount: 2
Fore
SplineSet
126 -2 m 0
 113 1 104 13 106 27 c 2
 221 678 l 2
 223 690 234 698 246 698 c 2
 247 698 l 1
 606 698 l 2
 619 698 630 687 630 673 c 0
 630 660 619 649 606 649 c 2
 266 649 l 1
 217 372 l 1
 507 372 l 2
 520 372 531 361 531 348 c 0
 531 334 520 323 507 323 c 2
 208 323 l 1
 159 47 l 1
 491 47 l 2
 504 47 515 36 515 22 c 0
 515 9 504 -2 491 -2 c 2
 132 -2 l 1
 132 -2 132 -2 131 -2 c 2
 131 -2 131 -2 130 -2 c 0
 129 -2 128 -2 126 -2 c 0
340 837 m 0
 344 861 366 880 390 880 c 0
 414 880 430 861 426 837 c 0
 421 813 399 794 375 794 c 0
 351 794 335 813 340 837 c 0
505 837 m 0
 509 861 531 880 555 880 c 0
 579 880 595 861 591 837 c 0
 586 813 564 794 540 794 c 0
 516 794 500 813 505 837 c 0
EndSplineSet
EndChar

StartChar: Odieresis
Encoding: 214 214 183
Width: 850
Flags: MW
HStem: 0 48<311.5 429.5 352 429.5> 651 49<388 507.5 465 507.5> 794 86<489 498 654 663>
VStem: 73 49<289 298 289 299.5> 697 49<401 410>
LayerCount: 2
Fore
SplineSet
467 700 m 0
 548 700 619 668 668 616 c 0
 717 564 746 491 746 410 c 0
 746 389 744 367 740 345 c 1
 716 350 l 1
 740 345 l 1
 705 154 535 0 352 0 c 1
 352 0 l 1
 271 0 200 31 151 83 c 0
 101 135 73 208 73 289 c 0
 73 310 75 332 79 354 c 0
 113 545 283 699 467 700 c 0
692 354 m 0
 695 373 697 392 697 410 c 0
 696 549 603 650 467 651 c 0
 466 651 466 651 465 651 c 0
 311 651 156 513 127 345 c 0
 124 326 122 307 122 289 c 0
 123 150 216 49 352 48 c 1
 507 48 663 185 692 354 c 0
451 837 m 0
 455 861 477 880 501 880 c 0
 525 880 541 861 537 837 c 0
 532 813 510 794 486 794 c 0
 462 794 446 813 451 837 c 0
616 837 m 0
 620 861 642 880 666 880 c 0
 690 880 706 861 702 837 c 0
 697 813 675 794 651 794 c 0
 627 794 611 813 616 837 c 0
EndSplineSet
EndChar

StartChar: Udieresis
Encoding: 220 220 184
Width: 814
Flags: MW
HStem: 1 49<346 346 347 347> 794 86<415 424 580 589>
VStem: 105 49<239 245.5 239 247>
LayerCount: 2
Fore
SplineSet
724 701 m 0
 737 698 746 686 744 672 c 2
 674 280 l 2
 646 125 502 2 347 1 c 0
 346 1 346 1 346 1 c 2
 277 1 216 27 173 69 c 0
 130 112 105 172 105 239 c 0
 105 255 107 271 110 288 c 2
 179 681 l 2
 181 694 194 703 207 701 c 0
 221 698 229 686 227 672 c 2
 158 280 l 2
 155 266 154 252 154 239 c 0
 155 130 232 51 347 50 c 0
 476 49 604 158 626 288 c 1
 696 681 l 2
 698 694 711 703 724 701 c 0
377 837 m 0
 381 861 403 880 427 880 c 0
 451 880 467 861 463 837 c 0
 458 813 436 794 412 794 c 0
 388 794 372 813 377 837 c 0
542 837 m 0
 546 861 568 880 592 880 c 0
 616 880 632 861 628 837 c 0
 623 813 601 794 577 794 c 0
 553 794 537 813 542 837 c 0
EndSplineSet
EndChar

StartChar: adieresis
Encoding: 228 228 185
Width: 619
Flags: MW
HStem: 0 48<235 235> 440 48<261.5 341.5 312 341.5> 594 86<316 325 481 490>
VStem: 40 47<203 209 203 210.5>
LayerCount: 2
Fore
SplineSet
235 0 m 1
 178 0 129 22 94 59 c 0
 59 96 40 146 40 203 c 0
 40 218 41 233 44 248 c 0
 68 380 184 487 313 488 c 0
 370 488 419 466 454 429 c 0
 465 417 475 404 483 389 c 1
 497 468 l 2
 499 481 511 490 524 488 c 0
 537 485 546 473 544 460 c 2
 466 20 l 2
 464 8 454 0 442 0 c 0
 441 0 440 0 438 0 c 0
 425 3 417 15 419 28 c 2
 430 92 l 1
 380 36 310 1 235 0 c 1
 235 0 l 1
91 240 m 0
 88 227 87 215 87 203 c 0
 88 113 148 49 235 48 c 0
 336 47 439 137 458 248 c 1
 458 248 l 1
 460 261 461 273 461 285 c 0
 460 375 402 439 313 440 c 1
 312 440 l 2
 211 440 110 350 91 240 c 0
278 637 m 0
 282 661 304 680 328 680 c 0
 352 680 368 661 364 637 c 0
 359 613 337 594 313 594 c 0
 289 594 273 613 278 637 c 0
443 637 m 0
 447 661 469 680 493 680 c 0
 517 680 533 661 529 637 c 0
 524 613 502 594 478 594 c 0
 454 594 438 613 443 637 c 0
EndSplineSet
EndChar

StartChar: edieresis
Encoding: 235 235 186
Width: 609
Flags: MW
HStem: 1 48<229 292.5 258 292.5> 235 49<121 491 121 513 108 491> 442 48<338 338> 594 86<309 318 474 483>
VStem: 58 48<176.5 210 160 212> 491 48<284 286 285.5 286>
LayerCount: 2
Fore
SplineSet
58 205 m 0
 58 219 59 234 62 250 c 0
 86 383 205 489 338 490 c 0
 396 490 446 468 482 431 c 0
 518 394 539 343 539 286 c 0
 539 277 538 269 537 260 c 0
 537 258 536 256 536 254 c 0
 533 244 524 235 513 235 c 2
 108 235 l 1
 106 225 106 215 106 205 c 0
 106 115 168 50 259 49 c 0
 326 49 393 85 436 139 c 0
 445 149 460 151 470 142 c 0
 480 134 482 120 473 110 c 0
 422 45 343 1 259 1 c 2
 259 1 259 1 258 1 c 0
 200 1 150 23 114 60 c 0
 78 97 58 148 58 205 c 0
338 442 m 0
 246 443 155 374 121 284 c 1
 491 284 l 1
 491 285 491 285 491 286 c 0
 490 376 429 441 338 442 c 0
271 637 m 0
 275 661 297 680 321 680 c 0
 345 680 361 661 357 637 c 0
 352 613 330 594 306 594 c 0
 282 594 266 613 271 637 c 0
436 637 m 0
 440 661 462 680 486 680 c 0
 510 680 526 661 522 637 c 0
 517 613 495 594 471 594 c 0
 447 594 431 613 436 637 c 0
EndSplineSet
EndChar

StartChar: idieresis
Encoding: 239 239 187
Width: 281
Flags: MW
HStem: 0 21G<116 117 116 120> 594 86<136 145 301 310>
LayerCount: 2
Fore
SplineSet
116 0 m 0
 103 2 94 15 97 27 c 2
 174 470 l 2
 176 483 189 491 202 490 c 1
 215 487 224 475 221 461 c 2
 143 19 l 2
 141 8 131 0 120 0 c 0
 118 0 118 0 116 0 c 0
98 637 m 0
 102 661 124 680 148 680 c 0
 172 680 188 661 184 637 c 0
 179 613 157 594 133 594 c 0
 109 594 93 613 98 637 c 0
263 637 m 0
 267 661 289 680 313 680 c 0
 337 680 353 661 349 637 c 0
 344 613 322 594 298 594 c 0
 274 594 258 613 263 637 c 0
EndSplineSet
EndChar

StartChar: odieresis
Encoding: 246 246 188
Width: 625
Flags: MW
HStem: 0 47<266 266 267 267> 442 48<293 373.5 343 373.5> 594 86<319 328 484 493>
VStem: 70 48<204 209.5 204 211> 494 47<280 286>
LayerCount: 2
Fore
SplineSet
541 286 m 0
 541 271 540 256 537 240 c 1
 514 245 l 1
 537 240 l 1
 513 107 395 0 267 0 c 2
 267 0 267 0 266 0 c 0
 210 0 160 22 125 59 c 0
 90 96 70 147 70 204 c 0
 70 218 71 233 74 249 c 0
 98 382 216 489 345 490 c 0
 402 490 452 467 487 430 c 0
 522 394 541 342 541 286 c 0
490 249 m 0
 492 261 494 274 494 286 c 0
 493 377 433 441 345 442 c 0
 344 442 344 442 343 442 c 0
 243 442 140 351 121 240 c 0
 119 228 118 215 118 204 c 0
 119 112 178 48 267 47 c 0
 368 46 471 138 490 249 c 0
281 637 m 0
 285 661 307 680 331 680 c 0
 355 680 371 661 367 637 c 0
 362 613 340 594 316 594 c 0
 292 594 276 613 281 637 c 0
446 637 m 0
 450 661 472 680 496 680 c 0
 520 680 536 661 532 637 c 0
 527 613 505 594 481 594 c 0
 457 594 441 613 446 637 c 0
EndSplineSet
EndChar

StartChar: udieresis
Encoding: 252 252 189
Width: 613
Flags: MW
HStem: 1 48<253 253> 594 86<279 288 444 453>
VStem: 83 48<169 173 169 174.5>
LayerCount: 2
Fore
SplineSet
509 488 m 0
 522 486 531 473 528 460 c 2
 482 195 l 1
 462 86 362 2 253 1 c 1
 253 1 l 1
 204 1 162 19 131 50 c 0
 101 80 83 122 83 169 c 0
 83 180 84 192 86 204 c 2
 133 468 l 2
 136 481 148 490 161 488 c 0
 173 486 182 473 179 460 c 2
 133 195 l 2
 132 186 131 177 131 169 c 0
 132 99 179 50 253 49 c 0
 336 48 421 119 435 204 c 1
 482 468 l 2
 484 481 496 490 509 488 c 0
241 637 m 0
 245 661 267 680 291 680 c 0
 315 680 331 661 327 637 c 0
 322 613 300 594 276 594 c 0
 252 594 236 613 241 637 c 0
406 637 m 0
 410 661 432 680 456 680 c 0
 480 680 496 661 492 637 c 0
 487 613 465 594 441 594 c 0
 417 594 401 613 406 637 c 0
EndSplineSet
EndChar

StartChar: ydieresis
Encoding: 255 255 190
Width: 588
Flags: MW
HStem: -193 48<151.5 166 151.5 166> 1 47<209.5 233 196 233> 594 86<266 275 431 440>
VStem: 63 47<167 171.5 167 173>
LayerCount: 2
Fore
SplineSet
502 480 m 0
 506 476 508 471 508 467 c 1
 509 465 509 462 508 460 c 2
 433 34 l 2
 410 -93 293 -192 166 -193 c 0
 130 -193 96 -184 68 -170 c 0
 56 -163 52 -148 58 -136 c 0
 64 -125 78 -121 90 -127 c 0
 111 -138 137 -145 166 -145 c 0
 268 -146 369 -59 386 42 c 2
 390 65 l 1
 348 26 292 1 233 1 c 1
 233 1 l 1
 186 1 141 18 110 48 c 0
 80 78 63 121 63 167 c 0
 63 179 64 191 66 203 c 2
 112 469 l 2
 114 481 127 490 140 488 c 0
 153 485 162 473 159 460 c 2
 112 194 l 2
 110 185 110 176 110 167 c 0
 111 98 159 48 233 48 c 0
 316 47 400 118 414 203 c 1
 461 469 l 1
 461 469 l 1
 461 469 l 1
 461 469 l 1
 461 469 l 1
 463 481 476 490 488 488 c 0
 494 487 499 484 502 480 c 0
228 637 m 0
 232 661 254 680 278 680 c 0
 302 680 318 661 314 637 c 0
 309 613 287 594 263 594 c 0
 239 594 223 613 228 637 c 0
393 637 m 0
 397 661 419 680 443 680 c 0
 467 680 483 661 479 637 c 0
 474 613 452 594 428 594 c 0
 404 594 388 613 393 637 c 0
EndSplineSet
EndChar

StartChar: germandbls
Encoding: 223 223 191
Width: 496
Flags: HWO
LayerCount: 2
Fore
SplineSet
416.991 652.681 m 1
 415.539 653.285 l 1
 462 592.5 459.5 481.5 345 442 c 1
 345 442 l 1
 328.594 436.021 311.606 425.307 297 413 c 1
 297 413 l 1
 283 401 259 377 256 357 c 1
 256 357 l 1
 252 337 256.667 314 273 301 c 1
 273 301 l 1
 287 291 300.667 284.667 313 279 c 1
 313 279 l 1
 315 278 l 1
 336 269 375 249 391 234 c 1
 391 234 l 1
 420 213 435 168.5 428 139 c 1
 428 139 l 1
 421 98 393 56 368 36 c 1
 368 36 l 1
 340 16.5 312 0 262 0 c 1
 262 0 l 1
 223.5 0 193.333 13.667 172.045 50.5215 c 1
 172.045 50.5215 l 1
 165.681 61.5439 170.529 75.7744 182.776 82.8447 c 1
 182.776 82.8447 l 1
 195.023 89.916 210.996 87.707 217.36 76.6846 c 1
 217.36 76.6846 l 1
 235.667 49.667 252.667 50.333 270 48 c 1
 270 48 l 1
 299 47.5 326 59 345 74 c 1
 345 74 l 1
 363 89 377 117 380 139 c 1
 380 139 l 1
 382 158.5 372.5 181.5 357 194 c 1
 357 194 l 1
 346 207 319 223 298 231 c 1
 298 231 l 1
 297 232 l 1
 275.5 241 258 249 240 264 c 1
 240 264 l 1
 213 284 201 319 208 357 c 1
 208 357 l 1
 215 396 254.5 437 276 452 c 1
 276 452 l 1
 301.669 469.362 324.667 481 347 489 c 1
 347 489 l 1
 400.5 508.5 416 582 372.849 626.984 c 1
 372.843 626.994 l 1
 351 648 320.524 652 300 652 c 0
 276 652 250 643 237 631 c 0
 224 619 209 595 201 550 c 2
 192 498 l 1
 190 487 l 2
 189.365 483.189 188 479.333 187.25 473 c 1
 186.667 467.333 186.693 466.509 186 462 c 2
 184 449 l 1
 108 23 l 2
 106 10 93 -1 80 -1 c 0
 66 -1 57 10 60 23 c 2
 135 449 l 1
 136.75 460.25 l 2
 137.734 466.58 138.25 469 138.75 472.75 c 1
 139.75 479.5 140.486 482.604 141 485.75 c 2
 143 498 l 1
 152 550 l 2
 161 600 176 637 204 664 c 1
 233 690 270 699 309 699 c 1
 347.5 698.5 390 686.5 416.991 652.681 c 1
EndSplineSet
EndChar
